<svg xmlns="http://www.w3.org/2000/svg" fill="none" viewBox="0 0 144 144">
    <path fill="#7F96BA" d="m83.18 115.58-38.62-14.8 44.97-9.53 38.1 13.23-44.45 11.1Z" />
    <path fill="#122744" d="M89.53 38.34v42.5L44.56 42.57l44.97-4.23Z" />
    <path fill="#1C3760" d="M89.53 80.84v10.41l-44.97 9.52v-58.2l44.97 38.27Z" />
    <path fill="#B4C5E0" d="M44.56 42.57H13.34v58.2h31.22v-58.2Z" />
    <path fill="#B4C5E0" d="m44.56 100.77 38.62 14.81-27.5 3.18-36.52-14.28 25.4-3.7Z" />
    <path fill="#DDE6F3" d="m83.18 53.68 46.56-5.29-40.2-10.05-44.98 4.23 38.62 11.11Z" />
    <path fill="#7F96BA"
        d="m44.56 42.57 38.62 11.11-12.7-28.04-39.54-6.88 13.62 23.81Zm85.18 5.82-46.56 5.29v61.9l44.44-11.1 2.12-56.09Z" />
    <path fill="#B4C5E0" d="m100.11 124.58-16.93-9v-61.9l18 5.3-1.07 65.6Z" />
</svg>