<svg xmlns="http://www.w3.org/2000/svg" fill="none" viewBox="0 0 144 114">
    <g clip-path="url(#a)">
        <path stroke="#122744" stroke-miterlimit="10" stroke-width="4.844"
            d="M27.855 14.291a5.934 5.934 0 1 0 0-11.869 5.934 5.934 0 0 0 0 11.869Zm37.726 2.241a5.934 5.934 0 1 0 0-11.87 5.934 5.934 0 0 0 0 11.87Z" />
        <path fill="#C0BEBC" d="m10.658 5.995-1.03 90.288 79.448 3.27V24.706L10.658 5.995Z" />
        <path fill="#DCD9D7" d="M9.568 19.317 4.542 89.44l78.479 8.599 3.996-80.902-77.45 2.18Z" />
        <path fill="#fff"
            d="M9.023 19.862S5.57 78.056.243 79.932C-5.028 81.81 74.18 95.98 74.18 95.98s9.991-51.35 8.478-71.031L9.023 19.862Z" />
        <path fill="#7F95B9" d="M83.021 25.433 9.144 20.346l1.03-14.533L83.02 9.507v15.926Z" />
        <path fill="#26518D"
            d="m89.076 26.947-6.358-1.453.303-15.987 6.055 1.514v15.926ZM45.78 70.486l-8.418-1.09c-2.664-.363-3.875-1.332-3.694-3.028.243-1.877 1.878-2.664 4.845-2.24.303.06.605.06.908.12l2.422-18.771c-1.332.666-2.18 1.03-2.543.969-.787-.121-1.453-.485-1.938-1.09-.484-.606-.726-1.333-.605-2.06.12-.786.666-1.513 1.695-2.18l2.604-1.453 2.846-1.756c1.15-.605 2.24-.847 3.21-.726 1.271.181 1.816 1.03 1.635 2.543a197.143 197.143 0 0 1-1.15 7.085c-.546 3.028-1.151 7.388-1.878 13.02l-.666 5.086 1.393.182c.787.12 1.453.484 1.937 1.03.485.605.666 1.27.606 2.058-.121.787-.485 1.393-1.09 1.817a3.555 3.555 0 0 1-2.12.484Z" />
        <path fill="#DCE5F2"
            d="M144 84.414c-1.756.908-38.392 20.225-55.045 26.705l-7.024-4.481-5.147 5.207a20.189 20.189 0 0 1-10.355-10.052c-6.116-12.717-24.888-36.09-24.464-51.108l61.887-24.04s16.895 51.168 26.099 55.71c8.599 4.3 13.443 2.362 14.049 2.059Z" />
        <path fill="#B3B4DF"
            d="M89.016 111.119c-3.391 1.332-5.935 2.119-7.206 2.119h-.364c-.242-.061-.484-.121-.726-.121a16.953 16.953 0 0 1-3.876-1.211l5.147-5.208 7.025 4.421Z" />
        <path fill="#26518D"
            d="M83.02 72.242c2.968.242 5.088 1.756 6.42 4.663 1.09 2.301 1.15 4.663.181 7.085-.968 2.422-2.664 4.178-5.147 5.329-1.816.847-3.633 1.271-5.45 1.21-2.12-.06-3.815-.786-5.147-2.119a2.179 2.179 0 0 1-.484-.726c-.303-.606-.303-1.272.06-1.938.303-.606.727-1.03 1.393-1.332.727-.303 1.393-.303 2.12.06 1.15.666 1.877.97 1.998 1.03.969.242 2.12.06 3.512-.606a4.61 4.61 0 0 0 2.362-2.3c.484-1.03.545-2 .12-2.907-1.332-2.847-3.935-3.573-7.932-2.18-1.756.605-2.907.302-3.452-.909-.424-.969-.12-1.938.97-2.967l3.27-2.543c.665-.606 1.09-1.15 1.331-1.757.182-.544.182-1.09-.06-1.634-.727-1.696-2.483-1.938-5.147-.727-.909.424-1.696 1.211-2.422 2.361-.727 1.151-1.333 1.817-1.696 1.999-.666.303-1.332.303-1.998.06-.666-.242-1.15-.666-1.393-1.271-.424-.97.06-2.362 1.514-4.178 1.332-1.635 2.483-2.725 3.573-3.21 2.603-1.211 4.904-1.574 6.963-1.211 2.301.424 3.936 1.756 5.026 4.057.606 1.272.848 2.422.788 3.512-.122 1.15-.545 2.18-1.272 3.15Zm26.1 4.663-6.782 3.149c-2.119.969-3.512.848-4.178-.545-.727-1.514.12-2.846 2.543-3.936.242-.121.485-.242.787-.303l-7.024-15.14c-.666 1.15-1.15 1.756-1.453 1.938-.666.303-1.272.303-1.999.06-.666-.242-1.15-.666-1.453-1.271-.303-.606-.182-1.453.242-2.483l1.272-2.301 1.332-2.604c.545-1.03 1.272-1.695 2.059-2.059 1.03-.484 1.817-.12 2.362 1.15.605 1.333 1.453 3.27 2.482 5.814 1.03 2.483 2.604 6.056 4.724 10.597l1.937 4.118 1.151-.545c.666-.303 1.332-.363 1.938-.121.666.242 1.09.605 1.393 1.271.302.606.302 1.272.06 1.878-.242.605-.727 1.03-1.393 1.332Z" />
        <path fill="#7074B0"
            d="M28.158 17.56a2.785 2.785 0 1 0 0-5.57 2.785 2.785 0 0 0 0 5.57Zm37.665 2.302a2.785 2.785 0 1 0 0-5.571 2.785 2.785 0 0 0 0 5.571Z" />
        <path stroke="#122744" stroke-linecap="round" stroke-miterlimit="10" stroke-width="4.844"
            d="M27.855 14.23a5.944 5.944 0 0 1-5.934-5.934c0-3.27 2.664-5.874 5.934-5.874m37.726 14.049a5.944 5.944 0 0 1-5.934-5.934 5.944 5.944 0 0 1 5.934-5.935" />
    </g>
    <defs>
        <clipPath id="a">
            <path fill="#fff" d="M0 0h144v113.238H0z" />
        </clipPath>
    </defs>
</svg>