<svg xmlns="http://www.w3.org/2000/svg" fill="none" viewBox="0 0 149 144">
    <path fill="#26518D"
        d="M49.782 144c-1.151 0-2.375-.504-3.166-1.439l-6.62-7.269c-1.44-1.583-1.512-4.03-.073-5.685l7.412-8.635-8.132-10.363c-1.439-1.871-1.151-4.606.72-6.045s4.606-1.152 6.045.719l10.363 13.17c1.295 1.583 1.223 3.886-.144 5.469l-7.196 8.42 4.102 4.462c1.583 1.727 1.51 4.461-.288 6.117-.936.719-1.943 1.079-3.023 1.079Zm50.231-12.738c-.432 0-.864-.072-1.295-.215l-9.428-3.023c-1.439-.432-2.59-1.655-2.878-3.166l-2.663-11.731-13.457-5.397a4.236 4.236 0 0 1-2.375-5.613 4.237 4.237 0 0 1 5.613-2.375l15.544 6.189a4.211 4.211 0 0 1 2.591 3.095l2.59 11.514 7.053 2.231a4.284 4.284 0 0 1 2.807 5.397 4.273 4.273 0 0 1-4.102 3.094Zm9.139-22.596c-.216 0-.431 0-.647-.072l-11.443-1.871c-1.51-.288-2.734-1.368-3.094-2.879l-7.556-31.952c-.504-2.015.791-4.102 2.806-4.606 2.015-.504 4.102.792 4.606 2.807l6.98 29.505 8.924 1.511a3.772 3.772 0 0 1 3.094 4.39c-.215 1.871-1.799 3.167-3.67 3.167ZM4.3 112.264c-1.87 0-3.597-1.224-4.101-3.095-.72-2.302.576-4.677 2.878-5.397l9.212-2.807 2.95-25.115c.288-2.375 2.447-4.03 4.822-3.814 2.375.288 4.03 2.447 3.814 4.822l-3.238 27.922c-.216 1.727-1.368 3.166-3.023 3.598l-11.946 3.598a3.336 3.336 0 0 1-1.367.288Zm63.401-27.418-11.946-.792c-7.412.576-14.609-1.655-20.366-6.477-5.54-4.605-9.067-11.082-10.003-18.207L12.145 35.55l-.072-.935c-.72-7.556 1.583-14.897 6.405-20.726C23.299 8.06 30.136 4.462 37.62 3.814l22.74-2.087c15.545-1.44 29.362 10.075 30.801 25.62l.072.72-7.7 30.512c.576 6.26 1.008 12.162-.647 16.767-2.087 5.614-6.909 8.708-14.825 9.428l-.36.072Zm-12.018-9.428 11.946.792c7.772-.792 8.636-2.879 7.269-17.487l-.072-.72 7.7-30.44C81.158 17.127 71.803 9.498 61.224 10.506l-22.74 2.087c-5.254.504-9.931 2.95-13.314 7.052-3.166 3.814-4.75 8.564-4.533 13.53l13.241 23.748.072.935c1.008 10.795 10.579 18.783 21.373 17.775l.36-.216Z" />
    <path fill="#7F95B9"
        d="M55.755 115.142c24.045 0 43.538-19.492 43.538-43.538 0-24.045-19.493-43.538-43.538-43.538-24.046 0-43.538 19.493-43.538 43.538 0 24.046 19.492 43.538 43.538 43.538Z" />
    <path fill="#EEE"
        d="M57.914 105.787c18.481 0 33.463-14.982 33.463-33.463S76.395 38.86 57.914 38.86 24.451 53.843 24.451 72.324s14.982 33.463 33.463 33.463Z" />
    <path fill="#E6D165"
        d="M32.295 32.168 7.539 52.606c-.575.503-1.583.072-2.087-.792l-2.59-4.39c-3.742-6.332-3.455-13.313.72-16.695l7.987-6.621c4.174-3.454 11.01-2.375 16.552 2.447l3.814 3.382c.72.72.936 1.8.36 2.231Zm63.256 11.946L72.667 28.426c-.504-.36-.432-1.295.144-1.943l3.022-3.166c4.39-4.606 10.219-6.046 14.033-3.383l7.412 5.11c3.814 2.662 4.606 8.635 1.871 14.32l-1.87 3.959c-.36.72-1.224 1.15-1.728.791Z" />
    <path fill="#E6D165"
        d="M6.1 28.066a3.958 3.958 0 1 0 0-7.916 3.958 3.958 0 0 0 0 7.916Zm89.235-4.606a3.454 3.454 0 1 0 0-6.908 3.454 3.454 0 0 0 0 6.908Z" />
    <path fill="#E9E7E5"
        d="M139.234 20.87h-15.545c-.863 1.367-2.159 2.518-3.67 3.094l-1.223.504.144-.432c.359-1.08.144-2.23-.504-3.166-4.966 0-8.996-4.03-8.996-8.996V9.067A8.909 8.909 0 0 1 118.364 0h20.87c4.965 0 8.995 4.03 8.995 8.995v2.807c0 5.038-4.03 9.068-8.995 9.068Z" />
    <path fill="#7F95B9"
        d="M120.883 12.954a2.158 2.158 0 1 0 0-4.317 2.158 2.158 0 0 0 0 4.316Zm8.635 0a2.159 2.159 0 1 0 0-4.318 2.159 2.159 0 0 0 0 4.318Zm8.636 0a2.16 2.16 0 1 0 0-4.319 2.16 2.16 0 0 0 0 4.319Z" />
    <path stroke="#7F95B9" stroke-miterlimit="10" stroke-width="2.879"
        d="m61.512 73.044-5.397 11.154m-5.757-28.066 11.514 16.552" />
    <path stroke="#7F95B9" stroke-miterlimit="10" stroke-width=".72" d="m61.513 72.684 11.154-23.029" />
    <path fill="#26518D" d="M61.872 77.002a4.318 4.318 0 1 0 0-8.636 4.318 4.318 0 0 0 0 8.636Z" />
</svg>