<svg xmlns="http://www.w3.org/2000/svg" fill="none" viewBox="0 0 137 111.713">
   <path fill="#26518d"
      d="M130.589 111.713H6.349A6.336 6.336 0 0 1 0 105.364V83.765c0-3.486 2.801-6.287 6.349-6.287h124.302A6.335 6.335 0 0 1 137 83.827v21.599c-.062 3.423-2.863 6.287-6.411 6.287z" />
   <path fill="#26518d"
      d="m20.711 51.052-6.585 1.874 9.37 32.927 6.585-1.874zm39.476 32.875 6.586 1.874 9.37-32.927L69.557 51z" />
   <path fill="#d0d8e2"
      d="M19.607 99.886a5.291 5.291 0 1 0 0-10.582 5.291 5.291 0 0 0 0 10.582zm19.296 0a5.291 5.291 0 1 0 0-10.582 5.291 5.291 0 0 0 0 10.582zm73.137-13.694h-2.49v16.806h2.49zm6.536 0h-2.49v16.806h2.49zm6.535 0h-2.489v16.806h2.489z" />
   <circle cx="70.5" cy="28.5" r="5.5" fill="#e5d065" />
   <circle cx="51.5" cy="28.5" r="5.5" fill="#e5d065" />
   <circle cx="32.5" cy="28.5" r="5.5" fill="#e5d065" />
   <circle cx="13.5" cy="28.5" r="5.5" fill="#e5d065" />
   <path fill="#e5d065" d="M111 52c14.359 0 26-11.64 26-26S125.359 0 111 0 85 11.64 85 26s11.641 26 26 26z" />
   <g clip-path="url(#a)" transform="translate(-119 -20)">
      <path fill="#fff"
         d="m214.534 41.825 2.821 2.82c7.01-7.009 18.378-7.009 25.387 0l2.821-2.82c-8.561-8.561-22.454-8.561-31.029 0zm11.283 11.283 4.232 4.231 4.231-4.23c-2.327-2.342-6.121-2.342-8.463 0zm-5.641-5.641 2.821 2.82c3.892-3.892 10.211-3.892 14.104 0l2.82-2.82c-5.444-5.445-14.287-5.445-19.745 0z" />
   </g>
   <defs>
      <clipPath id="a">
         <path fill="#fff" d="M213.124 29.131h33.85v33.85h-33.85z" />
      </clipPath>
   </defs>
</svg>