<svg xmlns="http://www.w3.org/2000/svg" fill="none" viewBox="0 0 149 99">
    <path fill="#E5D065" d="M115.035 98.527H24.391l33.895-77.994h29.562l27.187 77.994Z" />
    <path fill="#B3C4DF"
        d="M119.927 46.391 35.643 32.204C41.093 10.818 62.13-3.16 84.284.614c22.155 3.775 37.46 23.762 35.643 45.777Z" />
    <path fill="#7F95B9"
        d="m33.057 37.515 83.585 17.822c-3.355 6.918-22.574 8.805-44.588 4.123-22.015-4.682-38.788-14.327-38.997-21.945Z" />
    <path fill="#26518D"
        d="M149 61.627 0 36.537c6.08-16.563 40.465-24.53 79.672-17.961 39.207 6.57 69.048 25.439 69.328 43.05Z" />
    <path fill="#fff"
        d="M80.37 41.22a6.989 6.989 0 1 0 0-13.978 6.989 6.989 0 0 0 0 13.977Zm27.606 5.59a5.242 5.242 0 1 0 0-10.483 5.242 5.242 0 0 0 0 10.483ZM51.367 36.327a5.242 5.242 0 1 0 0-10.483 5.242 5.242 0 0 0 0 10.483ZM24.46 34.93a4.193 4.193 0 1 0 0-8.387 4.193 4.193 0 0 0 0 8.386ZM131.388 53.8a4.194 4.194 0 1 0 0-8.388 4.194 4.194 0 0 0 0 8.387Z" />
    <g clip-path="url(#a)">
        <path fill="#fff"
            d="m54.41 75.693 2.821 2.821c7.01-7.01 18.378-7.01 25.387 0l2.821-2.82c-8.56-8.562-22.453-8.562-31.029 0Zm11.284 11.284 4.23 4.23 4.232-4.23c-2.327-2.342-6.121-2.342-8.462 0Zm-5.642-5.642 2.82 2.82c3.894-3.892 10.212-3.892 14.105 0l2.82-2.82c-5.444-5.444-14.287-5.444-19.745 0Z" />
    </g>
    <defs>
        <clipPath id="a">
            <path fill="#fff" d="M53 63h33.85v33.85H53z" />
        </clipPath>
    </defs>
</svg>