<svg xmlns="http://www.w3.org/2000/svg" fill="none" viewBox="0 0 132 99">
    <path fill="#1C3760"
        d="M65.75 95.08c26.61 0 48.19-5.38 48.19-12 0-6.64-21.58-12.02-48.2-12.02-26.6 0-48.19 5.38-48.19 12.01s21.58 12 48.2 12Z" />
    <path fill="#7F95B9" d="M73.24 0C41.84 0 31.8 14.02 31.8 31.35v47.32h72.75V31.35A31.28 31.28 0 0 0 73.24 0Z" />
    <path fill="#B3C4DF" d="M73.24 0A31.33 31.33 0 0 0 41.9 31.35v47.32h62.7V31.35A31.36 31.36 0 0 0 73.24 0Z" />
    <g clip-path="url(#a)">
        <path fill="#fff"
            d="m59.41 34.7 2.82 2.81a17.95 17.95 0 0 1 25.39 0l2.82-2.82a21.95 21.95 0 0 0-31.03 0Zm11.28 11.28 4.23 4.23 4.24-4.23a5.98 5.98 0 0 0-8.47 0Zm-5.64-5.64 2.82 2.82a9.98 9.98 0 0 1 14.1 0l2.83-2.82a13.98 13.98 0 0 0-19.75 0Z" />
    </g>
    <path fill="#E5D065"
        d="M97.58 83.61c-.27.6-.54 1.2-.92 1.69-.44.6-1.03 1.14-1.74 1.9 5.1.92 7.99-2.77 12.06-4.46-1.03 1.69-1.9 3.1-3.04 4.9 4.62 1.19 8.04-.98 11.36-2.29 3.36-1.3 5.86-4.34 7.82-7.6.16.16.32.32.49.43-1.2 2.4-2.4 4.84-3.53 7.06 1.2.11 2.06.22 2.98.33l-.05-.05c-.54.81-.98 1.73-1.58 2.5-.49.6-1.2 1.03-1.79 1.52.11.16.22.38.33.54 2.17-.82 4.34-1.58 6.46-2.5 1.2-.54 2.18-1.41 3.37-1.96.54-.27 1.3-.21 2.01-.05-3.1 3.59-5.81 7.44-10.54 8.86-.6 2.11-2.88 1.95-4.3 3.04-.53.38-1.24.7-1.9.7-8.36.06-16.78.06-25.15 0-3.75 0-7.5-.27-11.19-.16-6.63.16-13.26.55-19.88.65-7.66.11-15.38.11-23.04-.05-4.89-.1-9.73-.65-14.56-.98-3.42-.22-6.96-.22-10.32-.81-1.8-.33-3.37-1.85-5-2.88-.55-.33-1.03-.82-1.58-1.2-.1-.05-.27-.1-.32-.16A297.18 297.18 0 0 1 0 85.52c-.06-.17.27-.55.38-.76 2.6.92 4.61 3.3 7.55 2.98.76-1.68.32-2.93-.7-4.07a3.75 3.75 0 0 1-.82-1.52c-1.09-3.7-2.23-7.34-3.2-11.03-.5-1.85-.66-3.8-.99-5.76-.32-2.23-.81-4.46-.97-6.68-.28-2.88-.22-5.76-.28-8.59 0-.49.17-.98.38-1.95.71 3.9 1.15 7.44 2.07 10.8.92 3.43 2.39 6.7 3.7 10 .26.71.6 1.42.92 2.12l4.72 9.3.87-.33c-2.5-6.14-4.18-12.39-4.23-19.4 2.22 5.44 4.07 10.6 6.4 15.54 2.34 4.94 4.79 9.89 9.57 13.31 1.47-2.28.54-4.67.27-6.95-.43-3.32-.6-6.58.38-9.78.65 4.02 1.58 7.88 3.75 11.3l.76-.16V73.45c.16 0 .38-.05.54-.05.5 1.14.93 2.4 1.52 3.48 1.04 1.84 2.77 3.47 3.16 5.38.43 2.6 2.6 3.26 4.02 5.1.16-.65.43-1.08.38-1.46a85.45 85.45 0 0 0-1.3-6.2c-1.2-4.45-2.29-8.85-2.13-13.53.11-2.66-.32-5.37-.27-8.04a27.8 27.8 0 0 1 1.03-6.24c.76 5.48 2.29 10.59 5.44 15.32.43-4.19.87-8.37 1.36-12.55.21-.06.48-.06.7-.11 1.25 3.53 2.45 7.06 3.59 10.32.76.22 1.3.38 2.12.65-.44-7.71-.06-15.26 2.22-22.54h.66c.05.21.21.43.21.65 0 5.7-.38 11.46.11 17.17.38 4.5 1.74 8.9 2.83 13.3.43 1.85 1.25 3.65 2 5.44.39.87 1.15 1.57 2.18 2.88 3.59-7.34 3.8-14.72 4.62-22 .16 0 .38-.06.54-.06.87 7.12 1.74 14.24 2.66 21.35 2.29-5.43 2.83-11.24 3.48-16.95a4.8 4.8 0 0 1 2.5 4.73c-.05.81.92 1.57 1.09 2.44.65 3.86 1.2 7.72 1.79 11.58.1.7.38 1.95.7 2 .82.11 1.85-.1 2.45-.65 1.52-1.4 2.83-3.1 4.24-4.61.43-.5.92-.98 1.36-1.47l.43.27c-.43 1.2-.98 2.34-1.25 3.59-.22.81-.38 2.06.06 2.55.76.87 1.9.7 2.88-.27 1.9-1.9 3.9-3.64 6.14-5.76-1.2 2.17-2.29 4.13-3.37 6.14.21.22.38.49.6.7 1.08-.54 2.11-1.14 3.2-1.63.7-.38 1.63-.54 2.55-.76 0-.05-.05-.05 0 0Z" />
    <defs>
        <clipPath id="a">
            <path fill="#fff" d="M58 22h33.85v33.85H58z" />
        </clipPath>
    </defs>
</svg>