<svg width="375" height="144" viewBox="0 0 375 144" fill="none" xmlns="http://www.w3.org/2000/svg">
    <path
        d="M249.589 131.713H125.349C121.801 131.713 119 128.849 119 125.364V103.765C119 100.279 121.801 97.4781 125.349 97.4781H249.651C253.137 97.4781 256 100.279 256 103.827V125.426C255.938 128.849 253.137 131.713 249.589 131.713Z"
        fill="#26518D" />
    <path d="M139.711 71.0519L133.126 72.9259L142.496 105.853L149.081 103.979L139.711 71.0519Z" fill="#26518D" />
    <path d="M179.187 103.927L185.773 105.801L195.143 72.8739L188.557 70.9999L179.187 103.927Z" fill="#26518D" />
    <path
        d="M138.607 119.886C141.529 119.886 143.898 117.517 143.898 114.595C143.898 111.673 141.529 109.305 138.607 109.305C135.685 109.305 133.316 111.673 133.316 114.595C133.316 117.517 135.685 119.886 138.607 119.886Z"
        fill="#D0D8E2" />
    <path
        d="M157.903 119.886C160.825 119.886 163.194 117.517 163.194 114.595C163.194 111.673 160.825 109.305 157.903 109.305C154.981 109.305 152.612 111.673 152.612 114.595C152.612 117.517 154.981 119.886 157.903 119.886Z"
        fill="#D0D8E2" />
    <path d="M231.04 106.192H228.55V122.998H231.04V106.192Z" fill="#D0D8E2" />
    <path d="M237.576 106.192H235.086V122.998H237.576V106.192Z" fill="#D0D8E2" />
    <path d="M244.111 106.192H241.622V122.998H244.111V106.192Z" fill="#D0D8E2" />
    <circle cx="189.5" cy="48.5" r="5.5" fill="#E5D065" />
    <circle cx="170.5" cy="48.5" r="5.5" fill="#E5D065" />
    <circle cx="151.5" cy="48.5" r="5.5" fill="#E5D065" />
    <circle cx="132.5" cy="48.5" r="5.5" fill="#E5D065" />
    <path
        d="M230 72C244.359 72 256 60.3594 256 46C256 31.6406 244.359 20 230 20C215.641 20 204 31.6406 204 46C204 60.3594 215.641 72 230 72Z"
        fill="#E5D065" />
    <g clip-path="url(#clip0_8864_1315)">
        <path
            d="M214.534 41.8249L217.355 44.6457C224.365 37.636 235.733 37.636 242.742 44.6457L245.563 41.8249C237.002 33.2637 223.109 33.2637 214.534 41.8249ZM225.817 53.1081L230.049 57.3393L234.28 53.1081C231.953 50.7669 228.159 50.7669 225.817 53.1081ZM220.176 47.4665L222.997 50.2873C226.889 46.3946 233.208 46.3946 237.101 50.2873L239.921 47.4665C234.477 42.0223 225.634 42.0223 220.176 47.4665Z"
            fill="white" />
    </g>
    <defs>
        <clipPath id="clip0_8864_1315">
            <rect width="33.8497" height="33.8497" fill="white" transform="translate(213.124 29.1312)" />
        </clipPath>
    </defs>
</svg>