<svg xmlns="http://www.w3.org/2000/svg" fill="none" viewBox="0 0 171 112">
    <path fill="#26518D"
        d="M170.2 96.29c-.91 1.9-2.44 2.59-4.5 2.51-3.43-.15-6.86 0-10.29 0h-1.37c-.23-5.72-2.44-10.44-6.86-14.02a16.94 16.94 0 0 0-11.36-3.81c-9.45.15-17.3 7.62-17.68 17.75H52.21c-.3-6.86-3.5-12.11-9.83-15.85h73.4V40.5c0-3.35 1.52-3.89 5.49-4.11 6.1-.3 12.95-.3 19.05 0 3.28.15 5.57.76 7.17 3.27 6.86 11.36 13.8 22.64 20.58 34 .91 1.6 1.37 3.5 2.05 5.18V96.3h.08ZM.15 85.39c.84-1.99 2.29-2.67 4.42-2.67 6.71.07 13.42 0 20.05 0h1.14a22.15 22.15 0 0 0-6.78 6.78 18.19 18.19 0 0 0-2.6 9.15h-6.17c-1.9 0-3.8-.08-5.71 0-2.06.15-3.6-.55-4.5-2.52.15-3.43.15-7.09.15-10.74Z" />
    <path fill="#7F95B9"
        d="M34.38 86c7 0 12.72 5.71 12.72 12.8a12.7 12.7 0 0 1-12.72 12.73 12.77 12.77 0 0 1-12.73-12.8A12.7 12.7 0 0 1 34.38 86Zm101.9 0a12.75 12.75 0 0 1 12.66 13.03 12.7 12.7 0 0 1-13.12 12.5 12.79 12.79 0 0 1-12.42-12.96A12.8 12.8 0 0 1 136.28 86Z" />
    <path fill="#E5D065"
        d="M26.68 73.04h64.7a8.6 8.6 0 0 0 7.48-12.88L66.46 4.29a8.58 8.58 0 0 0-14.86 0L19.28 60.16a8.55 8.55 0 0 0 7.4 12.88ZM59.08 43a4.26 4.26 0 0 1-4.28-4.27v-8.61a4.26 4.26 0 1 1 8.54 0v8.6c0 2.37-1.9 4.28-4.27 4.28Zm4.26 17.15h-8.61v-8.54h8.6v8.54Z" />
</svg>