<svg xmlns="http://www.w3.org/2000/svg" fill="none" viewBox="0 0 248 148">
    <g clip-path="url(#a)">
        <path fill="#F2F2F2"
            d="M189.529 146.326c-3.169-2.678-5.094-6.908-4.589-11.027.505-4.118 3.632-7.904 7.688-8.779 4.056-.874 8.679 1.547 9.911 5.509.678-7.639 1.46-15.598 5.521-22.103 3.677-5.89 10.047-10.105 16.95-10.86 6.902-.753 14.17 2.095 18.475 7.543 4.306 5.448 5.36 13.369 2.344 19.624-2.221 4.608-6.313 8.038-10.601 10.828a68.42 68.42 0 0 1-46.793 10.237l1.094-.972Z" />
        <path fill="#fff"
            d="M236.659 101.319a111.904 111.904 0 0 0-15.6 15.491 112.25 112.25 0 0 0-17.571 29.362c-.316.776.943 1.113 1.256.347a111.627 111.627 0 0 1 32.836-44.28c.65-.529-.276-1.445-.921-.92Z" />
        <path fill="#F2F2F2"
            d="M79.69 145.599c4.353-3.678 6.997-9.489 6.304-15.146-.694-5.656-4.988-10.857-10.56-12.058-5.57-1.201-11.92 2.124-13.613 7.566-.931-10.492-2.004-21.423-7.582-30.358-5.051-8.09-13.8-13.88-23.28-14.915-9.482-1.036-19.464 2.876-25.377 10.36C-.332 98.53-1.78 109.41 2.362 118c3.05 6.329 8.671 11.04 14.56 14.871 18.789 12.226 42.095 17.325 64.272 14.061" />
        <path fill="#fff"
            d="M14.958 83.78c7.823 6.373 15 13.5 21.427 21.278a155.934 155.934 0 0 1 16.897 25.008 155.34 155.34 0 0 1 7.236 15.321c.435 1.065-1.294 1.529-1.724.476a152.618 152.618 0 0 0-13.945-26.385 153.234 153.234 0 0 0-31.156-34.433c-.893-.727.38-1.985 1.265-1.264Z" />
        <path fill="#F2F2F2"
            d="M177.695 147.676H73.838V41.116C73.838 18.445 92.283 0 114.954 0h21.625c22.672 0 41.116 18.445 41.116 41.116v106.56Z" />
        <g clip-path="url(#b)">
            <path fill="#CED2DB"
                d="M201.97 130.182c-.388 3.372-2.209 6.046-4.457 8.332-.078.077-.116.155-.194.194-6.2 5.813-14.338 8.525-22.67 8.37-1.124-.038-2.248-.116-3.333-.31-4.031-.581-7.945-2.247-11.277-4.689-.233-.155-.465-.31-.659-.504-1.047-.813-2.015-1.666-2.907-2.635-2.557-2.635-4.495-5.774-5.541-9.107a32.02 32.02 0 0 1 .775-4.96c.271-1.628 2.596-2.015 2.984-3.178 3.487-11.626 13.563-18.989 25.461-16.858a24.71 24.71 0 0 1 4.224 1.202c.93.349 1.86.775 2.751 1.201 5.464 2.868 10.657 7.518 13.254 13.254 1.356 2.984 1.976 6.239 1.589 9.688Zm-80.297 13.137c.116-.387.232-.813.31-1.278.387-2.287.349-5.348 2.015-6.162.387-.194.891-.271 1.55-.194 6.704 1.085 14.649-.31 19.803 4.263.542.387.814.852.891 1.279.078.465-.039.969-.232 1.434a5.788 5.788 0 0 1-2.674 2.906 7.4 7.4 0 0 1-1.899.698c-5.929.736-13.06 1.821-19.105-.814-.504-.581-.776-1.356-.659-2.132Z" />
            <path fill="#CED2DB"
                d="M179.803 105.225s-13.37-8.564-15.075-4.224c-1.705 4.379 7.014 21.818 12.866 18.292 5.813-3.488 2.209-14.068 2.209-14.068Z" />
            <path fill="#DCDEE5"
                d="M185.073 134.949c-.581 3.139-1.473 5.735-3.565 8.177a16.89 16.89 0 0 1-3.411 3.022 18.528 18.528 0 0 1-5.231 2.481c-2.093.658-4.341.968-6.588.93-.543 0-1.047-.039-1.589-.078-1.744 0-3.488 0-5.309-.039-10.115.117-23.291 2.829-29.104-7.634-4.263-7.363-2.325-16.664 2.209-23.174a16.565 16.565 0 0 1 2.751-2.713 16.326 16.326 0 0 1 4.573-2.48c6.356-2.325 12.905-2.597 19.416-1.744 2.17.271 4.34.697 6.433 1.24 8.874 2.364 18.679 6.976 19.299 17.168.348 1.589.348 3.216.116 4.844Z" />
            <path fill="#36353A"
                d="M173.486 143.164c-.116 2.209-.31 3.992-.62 5.464-2.093.659-4.34.969-6.588.931.039-.349.116-.698.233-1.124 4.456-14.649-8.41-25.229-15.502-35.614 3.294 2.325 6.86 4.96 10.192 7.944a54.23 54.23 0 0 1 4.728 4.728c4.031 5.038 7.867 10.928 7.557 17.671Zm-29.685-16.586c.465-4.457.31-9.107-1.977-13.176 3.333.852 5.891 3.449 7.596 6.627 2.015 3.759 2.48 8.138 1.511 12.246-1.472 6.084-4.146 14.92-9.765 12.207-1.279-2.597 3.022-10.192 2.635-15.153a16.198 16.198 0 0 1 0-2.751Zm24.918-12.75c-1.666-.387-2.79-.581-4.379-.504 2.171 3.178 4.844 5.658 6.162 9.069 1.511-1.705-.116-3.566-.31-5.193-.387-1.202-.853-2.442-1.473-3.372Zm11.239.388c-1.628-.698-3.566-.31-5.503-1.085.852.775 1.705 1.589 2.557 2.364.853.775 1.667 1.627 2.519 2.403 1.899 1.395 3.449 3.332 5.387 4.882.387-2.325-.775-3.875-2.17-5.038-.814-1.201-1.783-2.48-2.79-3.526Zm5.076 15.85c-2.713 4.805-5.154 9.455-8.332 13.602 4.418-.349 7.945-4.418 8.332-8.758a14.532 14.532 0 0 0 0-4.844Z" />
            <path fill="#CED2DB"
                d="M189.375 109.526s16.586-2.983 17.361 2.713c.542 3.876-2.209 9.417-5.658 8.526-3.449-.891-7.324 4.844-7.324 4.844l-4.379-16.083Z" />
            <path fill="#4F5156"
                d="M201.969 130.182c-.387 3.372-2.209 6.046-4.456 8.332-3.643-5.658-2.519-13.486 2.829-18.02 1.395 2.984 2.015 6.239 1.627 9.688Z" />
            <path fill="#DCDEE5"
                d="M197.126 141.421c-.117.387-.155.813-.194 1.279-.233 2.325 0 5.347-1.473 6.316-.349.233-.814.349-1.434.31-6.239-.542-13.524 1.473-18.562-2.674-.543-.348-.814-.775-.93-1.24-.117-.465-.039-.969.116-1.472.465-1.434 1.279-2.403 2.286-3.101.504-.348 1.085-.62 1.705-.852 5.426-1.202 11.936-2.868 17.711-.736.542.581.852 1.356.775 2.17Z" />
            <path fill="#36353A"
                d="M129.307 129.291c-.155-.194-.387-.388-.62-.582a4.972 4.972 0 0 0-.736-.503c-.504-.272-1.046-.504-1.589-.62-1.085-.233-2.209.116-2.945.968-.349.427-.62.931-.853 1.473-.194.543-.387 1.163-.465 1.705a6.288 6.288 0 0 0-.077.853c0 .271.038.542.155.697.116.155.193.233.387.31.194.039.426 0 .659-.077a2.744 2.744 0 0 0 1.279-.93c.155-.194.31-.427.387-.659.078-.233.078-.426.078-.698-.078-.503-.271-1.046-.543-1.588a7.109 7.109 0 0 0-1.046-1.434c-.814-.853-1.783-1.55-2.906-1.822-1.047-.232-2.209-.116-3.294.349a.526.526 0 0 1-.698-.271.526.526 0 0 1 .271-.698c.62-.271 1.279-.465 1.977-.504.697-.038 1.395 0 2.054.194 1.317.349 2.48 1.163 3.41 2.132a7.802 7.802 0 0 1 1.162 1.627c.31.582.582 1.24.659 1.977.039.348 0 .813-.116 1.162a3.39 3.39 0 0 1-.581.969c-.465.543-1.047.969-1.744 1.201a2.41 2.41 0 0 1-1.202.117c-.426-.078-.891-.427-1.046-.814-.194-.388-.232-.775-.232-1.124 0-.349.038-.698.077-1.046.116-.659.31-1.279.543-1.899.232-.62.542-1.24 1.007-1.783a3.907 3.907 0 0 1 1.705-1.24c.698-.271 1.434-.31 2.093-.232.698.077 1.356.232 2.015.426.31.077.659.232.969.349.31.116.62.232 1.008.426l.077.039c.543.232.775.891.504 1.433-.271.543-.891.776-1.434.504a3.37 3.37 0 0 0-.349-.387Z" />
            <path fill="#36353A"
                d="M114.813 126.578c.078.155.233.31.388.31l1.434.194h.232c.233.039.504 0 .698-.155.232-.155.426-.388.465-.659.077-.271.039-.542-.116-.814-.969-.465-1.473-1.899-2.829-1.046-.62.62 1.589 1.085 0 1.473-.233.155-.388.426-.272.697Z" />
            <path fill="#DCDEE5"
                d="M128.339 149.442c.116-.387.193-.814.232-1.279.271-2.325.039-5.348 1.667-6.278.387-.232.891-.31 1.55-.271 6.743.698 14.61-1.162 19.996 3.1.582.349.853.775.969 1.24.116.466.039.931-.155 1.473-.504 1.395-1.395 2.364-2.519 3.023a7.041 7.041 0 0 1-1.821.814c-5.852 1.046-12.944 2.557-19.144.31a2.957 2.957 0 0 1-.775-2.132Z" />
            <path fill="#4F5156"
                d="M190.615 107.899c2.751 2.906-20.617 14.416-20.694 8.061.969-.233.775-1.628-.233-1.551-8.952 1.551-18.679 4.224-5.038-7.673-8.758 3.488 2.093-9.766 25.965 1.163Z" />
        </g>
        <path fill="#CCC"
            d="M156.069 147.676H73.838V41.116a40.798 40.798 0 0 1 8.423-24.933 41.105 41.105 0 0 1 8.751-8.493c.188-.137.376-.271.567-.405a41.026 41.026 0 0 1 9.526-4.895 40.982 40.982 0 0 1 8.852-2.087c.187-.026.379-.046.571-.066a41.627 41.627 0 0 1 8.851 0 40.99 40.99 0 0 1 9.423 2.153 40.907 40.907 0 0 1 9.993 5.225 41.536 41.536 0 0 1 5.231 4.429 41.057 41.057 0 0 1 3.62 4.14 40.796 40.796 0 0 1 8.423 24.932v106.56Z" />
        <path fill="#198CFF" d="M149.383 100.015a4.552 4.552 0 1 0 .002-9.104 4.552 4.552 0 0 0-.002 9.104Z" />
        <path fill="#3F3D56"
            d="M239.008 147.859H28.934a.337.337 0 0 1-.239-.578c.063-.064.15-.1.239-.1h210.074a.337.337 0 0 1 .338.339.338.338 0 0 1-.338.339Z" />
        <path fill="#fff"
            d="M133.449 116.803h-36.99a1.839 1.839 0 0 1-1.85-1.825V32.413a1.84 1.84 0 0 1 1.85-1.825h36.99a1.84 1.84 0 0 1 1.85 1.825v82.565a1.84 1.84 0 0 1-1.85 1.825Z" />
        <path fill="#CCC" d="M135.299 57.303h-40.69v.57h40.69v-.57Zm.142 32.469h-40.69v.57h40.69v-.57Z" />
        <path fill="#CCC" d="M107.983 30.588h-.569v86.5h.569v-86.5Zm14.227 0h-.569v86.5h.569v-86.5Z" />
    </g>
    <defs>
        <clipPath id="a">
            <path fill="#fff" d="M0 0h247.549v148H0z" />
        </clipPath>
        <clipPath id="b">
            <path fill="#fff" d="M114.775 99.8h92v52.976h-92z" />
        </clipPath>
    </defs>
</svg>