<svg xmlns="http://www.w3.org/2000/svg" fill="none" viewBox="0 0 93 130">
    <g clip-path="url(#a)">
        <path fill="#7F95B9"
            d="M39.94 14.7s-6.7-9.9-5.9-12.35c.8-2.46 26.04-7.1 26.67 12.36m21.74 112.77c5.6 0 10.13-5.63 10.13-12.59 0-6.95-4.53-12.58-10.13-12.58-5.6 0-10.13 5.63-10.13 12.58 0 6.96 4.54 12.6 10.13 12.6Z" />
        <path fill="#E9E7E5"
            d="M83.65 125.88a35.45 35.45 0 0 0 4.12-9.33c.29-1.08.52-2.17.75-3.26 1.14-9.5 1.66-19.17-.35-28.38a44.71 44.71 0 0 0-6.64-15.62c-.74-1.49-1.42-2.97-2.17-4.35-3.03-5.6-7.1-10.35-12.99-13.73a13.6 13.6 0 0 0-4.57-.57c-15.68.57-35.37 23.92-35.37 23.92s-14.59 8.4-14.59 32.61c0 24.2 37.48 21.97 37.48 21.97" />
        <path fill="#E9E7E5"
            d="M80.9 45.26c.12 1.54.12 3.03.06 4.58l-.17 2.29c-.57 11.15-7.2 21.8-18.3 24.83a35.62 35.62 0 0 1-9.61 2.17c-1.15.17-2.3.35-3.5.4-1.09.12-2.17.12-3.26.12a27.01 27.01 0 0 1-12.65-3.26 38.73 38.73 0 0 1-2.92-1.72 16.77 16.77 0 0 1-2.68-2.29 22.65 22.65 0 0 1-8.81-15.1 22.16 22.16 0 0 1-.75-3.38 37.3 37.3 0 0 1 .8-14.2c.12-1.2.34-2.4.57-3.6 3.15-14.07 15.1-24.54 29.36-24.54 10.7 0 20.14 5.9 25.46 14.76a52.73 52.73 0 0 1 6.12 16.7c.12.75.23 1.5.29 2.24Z" />
        <path fill="#1C3760"
            d="M81.25 59.34c.23 2.34-1.09 4-1.54 6-.4.92-.86 1.83-1.38 2.75-4.8 7.9-15.96 13.45-29 13.45-11.62 0-21.75-4.41-27.19-10.93-.68-.8-1.31-1.66-1.83-2.58A17.87 17.87 0 0 1 18.2 52.3c.34-1.03.8-2 1.37-2.92 4.58-6.52 12.13-9.61 19.85-10.99l3.32-.51a52.47 52.47 0 0 1 14.65-.17c10.47 1.03 23.75 6 23.92 18.6.11 1.02.05 2-.06 3.03Z" />
        <path fill="#7F95B9"
            d="M19.97 34.73s6.4.29 9.1 0c2.69-.28-10.02 4.98-10.02 4.98m-.57 2.57 5.78-2.57-6.35 8.75m60.77-12.93s-8.07.92-8.76.92c-.69 0 10.3 4.63 10.3 4.63m.51 2.98-6.17-3.6 6.4 8" />
        <path fill="#D6D6D6" d="M61.4 125.54a20.08 20.08 0 1 0 0-40.17 20.08 20.08 0 0 0 0 40.17Z" />
        <path fill="#E9E7E5"
            d="M37.02 16.42s-7.5-8-9.84-5.43c-2.35 2.57 1.94 5.49 1.26 10.81m37.13 98.13s-15.22-23.12-15.5-32.96c-.29-9.84-13.05 12.42-13.05 12.42s11.73 24.77 28.55 20.54ZM64.08 16.6s10.36-5.04 12.02-1.78c1.66 3.26-3.72 4.58-4.7 9.9M67 117.64S77.93 92.06 77.76 88c-.17-4.06 9.5 15.34 7.55 21.34-1.94 6.01-12.47 10.08-18.3 8.3Z" />
        <path fill="#6B81A0"
            d="M84.45 124.05c-.45 5.72-7.5 5.95-11.78 4.52-.29-.11-.63-.17-.98-.29-.4-.11-.8-.17-1.2-.28-3.09-.86-5.55-2.7-5.32-6.13.06-.57.17-1.14.4-1.71a9.62 9.62 0 0 1 10.02-6.24c.57.06 1.2.17 1.77.34.57.18 1.14.35 1.72.63a7.7 7.7 0 0 1 1.48.86c2.23 1.49 4.24 3.55 3.9 6.7.05.45.05 1.03 0 1.6Z" />
        <path fill="#6B81A0"
            d="M66.89 122.56c1.03 5.67-5.72 7.67-10.24 7.38-.35 0-.7-.05-.98 0-.4 0-.85.06-1.26 0-3.2-.05-6.06-1.14-6.69-4.58a6.08 6.08 0 0 1-.06-1.77 9.6 9.6 0 0 1 8.07-8.58 9.43 9.43 0 0 1 3.66 0c.57.11 1.15.23 1.66.4 2.58.86 4.98 2.34 5.5 5.44.1.57.28 1.14.34 1.71Z" />
        <path fill="#7F95B9"
            d="M47.15 129.43c5.6 0 10.13-5.64 10.13-12.59s-4.54-12.59-10.13-12.59c-5.6 0-10.13 5.64-10.13 12.59s4.53 12.59 10.13 12.59Z" />
        <path fill="#E9E7E5"
            d="M15.45 111.23c-.17.52-.46.86-.69 1.2a5 5 0 0 1-.86.75c-.28.17-.63.34-.97.46-.34.11-.63.28-.97.45a20.04 20.04 0 0 0-3.55 2.12c-.51.4-1.03.8-1.43 1.26-.46.46-.86.92-1.14 1.43a6.36 6.36 0 0 0-.98 2.4l-.17 1.03c-.06.69-.11 1.32-.06 1.78 0 .22.06.45.12.57.06.17.11.28.23.4.23.23.74.51 1.37.63.63.17 1.37.23 2.12.29 1.54.05 3.15.05 4.75 0l2.4-.06c.8 0 1.6 0 2.46.28l.06.58c-.75.45-1.55.57-2.35.74l-2.34.46c-1.6.28-3.15.63-4.87.86-.86.11-1.71.17-2.69.11-.91-.06-2-.23-3.14-.86A5.55 5.55 0 0 1 .5 125.2a9.86 9.86 0 0 1-.51-2.97v-1.38a12.4 12.4 0 0 1 1.09-4.46 15.24 15.24 0 0 1 3.49-4.69 22.28 22.28 0 0 1 4.46-3.26c.4-.23.8-.46 1.2-.63a5 5 0 0 1 2.63-.69c.52 0 .98.12 1.6.4l.98 3.72Z" />
        <path fill="#1C3760"
            d="M22.94 126.1c-2.86.41-5.26 3.33-8.18 1.9-1.43-.46-1.43-2.4 0-3.38 2.4-1.43 4.87 0 7.21.97.57.29.97.52.97.52Z" />
        <path fill="#7F95B9"
            d="M20.14 80.56s5.78 5.32 8.18 5.32c2.4 0-9.44 1.66-11.04-1.08m-3.2 7.15s8.86 3.15 11.27 2.17c2.4-.97-8.76 3.9-12.59 2.92m-.92 10.13s.18 6.75 1.55 7.72c1.37.98 12.36-9.44 12.36-9.44s-7.15 2.18-13.9 1.72ZM85.6 76.96s-5.55 5.1-8.47 5.55c-2.92.46 6.35 1.94 10.41 0m1.38 6.75s-4.7 4.75-7.5 3.83c-2.86-.91 6.52 2.87 8.13 1.5m-.18 9.66s-7.43 2.4-9.32 2.4c-1.95 0 4.8 3.44 8.92 2.7" />
        <path fill="#1C3760"
            d="M39.08 37.05c1.2-.4 1.76-1.95 1.25-3.44-.5-1.5-1.88-2.39-3.08-1.98-1.2.4-1.76 1.95-1.25 3.44.5 1.5 1.88 2.38 3.08 1.98Zm25.39-1.73c.27-1.56-.52-3-1.76-3.2-1.25-.22-2.48.86-2.75 2.42s.52 3 1.77 3.21c1.24.22 2.47-.87 2.74-2.43Z" />
        <path fill="#7F95B9"
            d="m5.95 110.43 2.46 5.72 1.6-1.03-2-6.12-2.06 1.43Zm-5.44 7.38.8-1.94 4.3 3.37-.57 1.15L.5 117.8Zm1.21 9.39 4.63-1.55 2.18.29-5.73 2.17-1.08-.91Z" />
        <path stroke="#7F95B9" stroke-miterlimit="10" stroke-width=".57"
            d="M32.44 31.47s4.8-1.37 5.55-4.12m23.41 2.06s4.92 2.92 5.6 2.92" />
    </g>
    <defs>
        <clipPath id="a">
            <path fill="#fff" d="M0 0h92.58v130H0z" />
        </clipPath>
    </defs>
</svg>