<svg xmlns="http://www.w3.org/2000/svg" fill="none" viewBox="0 0 144 96">
    <g clip-path="url(#a)">
        <path fill="#7F95B9"
            d="M129.433 47.284H12.418a12.169 12.169 0 0 1-12.18-12.18v-.955a12.17 12.17 0 0 1 12.18-12.179h117.015a12.169 12.169 0 0 1 12.179 12.18v.955a12.17 12.17 0 0 1-12.179 12.179Z" />
        <path fill="#E9E7E5"
            d="M129.672 44.657H11.702C5.253 44.657 0 39.403 0 32.955c0-6.447 5.254-11.701 11.701-11.701h117.971c6.447 0 11.701 5.253 11.701 11.701s-5.254 11.702-11.701 11.702Z" />
        <path fill="#26518D"
            d="M111.761 64.478c17.805 0 32.239-14.434 32.239-32.24C144 14.435 129.566 0 111.761 0S79.522 14.434 79.522 32.239s14.434 32.239 32.239 32.239Z" />
        <path fill="#26518D"
            d="m135.928 95.093-1.194.477c-2.627 1.003-5.588-.334-6.591-2.961l-14.376-37.78c-1.003-2.626.334-5.587 2.961-6.59l1.194-.478c2.627-1.003 5.588.334 6.591 2.961l14.377 37.78c1.003 2.626-.335 5.588-2.962 6.59Z" />
        <path fill="#B3C4DF"
            d="M112 61.134c15.827 0 28.657-12.83 28.657-28.656 0-15.827-12.83-28.657-28.657-28.657S83.343 16.65 83.343 32.478c0 15.826 12.83 28.656 28.657 28.656Z" />
        <path fill="#DCE5F2"
            d="M112.191 57.552c-10.316 0-19.534-6.543-22.925-16.286-.24-.764.143-1.576.86-1.815.763-.24 1.575.143 1.814.86 3.01 8.596 11.129 14.328 20.251 14.328 4.537 0 8.884-1.385 12.561-4.06.621-.477 1.529-.334 2.006.334.478.621.335 1.529-.334 2.006-4.155 3.057-9.075 4.633-14.233 4.633Z" />
        <path fill="#7F95B9"
            d="M13.612 35.343a1.91 1.91 0 1 0 0-3.82 1.91 1.91 0 0 0 0 3.82Zm8.597 0a1.91 1.91 0 1 0 0-3.82 1.91 1.91 0 0 0 0 3.82Zm8.597 0a1.91 1.91 0 1 0 0-3.82 1.91 1.91 0 0 0 0 3.82Z" />
    </g>
    <defs>
        <clipPath id="a">
            <path fill="#fff" d="M0 0h144v95.857H0z" />
        </clipPath>
    </defs>
</svg>