<svg xmlns="http://www.w3.org/2000/svg" fill="none" viewBox="0 0 205 96">
    <path fill="#DCE5F2"
        d="M203.414 74.175c-4.381 0-6.572 1.813-8.536 3.474-1.359 1.133-2.417 2.04-4.23 2.417h-3.776c-1.738-.377-2.871-1.284-4.23-2.417-1.964-1.662-4.155-3.474-8.46-3.474-4.305 0-6.496 1.813-8.46 3.474-1.359 1.133-2.417 2.04-4.23 2.417h-3.625a6.135 6.135 0 0 1-2.191-.906c-2.341-1.435-5.136-2.115-8.158-2.115h-.679v-1.133h-6.345V73.57c0-6.042-4.91-10.877-10.877-10.877h-8.233c-.378-.906-1.285-1.51-2.342-1.51h-.076a2.547 2.547 0 0 0-2.568 2.568v16.315H89.961v-7.629c.151 0 .302.076.454.076h9.743c.756 0 1.36-.302 1.889-.755.453-.454.755-1.058.755-1.738.076-1.51-1.284-2.794-2.795-2.794H89.961v-3.702a2.547 2.547 0 0 0-2.568-2.568h-.075c-1.209 0-2.19.831-2.493 1.888h-13.52c-6.043 0-10.878 4.91-10.878 10.878v2.492h-6.042v1.51h-1.058c-3.021 0-5.816.756-8.157 2.116-.076 0-.152.075-.227.15-1.133.68-2.342.907-3.852.907-1.662 0-2.87-.378-3.853-.906-.755-.453-1.435-1.058-2.19-1.662-1.964-1.662-4.155-3.474-8.46-3.474-4.305 0-6.496 1.812-8.46 3.474-.755.604-1.435 1.209-2.19 1.662-.982.604-2.19.906-3.853.906-1.661 0-2.87-.378-3.852-.906-.755-.453-1.435-1.058-2.19-1.662-1.51-1.284-3.248-2.72-6.043-3.248v-1.057C0 49.55 19.79 29.76 44.263 29.76c2.795 0 5.514.227 8.158.756C62.542 12.388 81.955 0 104.313 0c29.005 0 53.176 20.923 58.237 48.493h.68c17.826 0 33.159 10.5 40.184 25.682Z" />
    <path fill="#DCE5F2"
        d="M8.233 80.066H.378c-.076-.302-.076-.604-.076-.906-.15-1.284-.226-2.644-.302-4.003 2.795.528 4.457 1.964 6.043 3.248.755.604 1.435 1.208 2.19 1.661Zm29.081 0h-6.27c-1.132-.83-2.416-1.36-4.456-1.36-2.04 0-3.323.53-4.456 1.36h-6.27c.756-.453 1.435-1.057 2.19-1.662 1.965-1.661 4.155-3.474 8.46-3.474 4.306 0 6.497 1.813 8.46 3.474.907.605 1.587 1.21 2.342 1.662Zm65.412-10.046c-.075.68-.302 1.284-.755 1.738-.453.453-1.133.755-1.888.755h-9.744c-.151 0-.302 0-.453-.076v7.63H45.018c.076-.076.151-.076.227-.152 2.342-1.435 5.136-2.115 8.158-2.115h.982v-1.51h6.042v-2.493c0-6.043 4.91-10.877 10.877-10.877h13.37c.302-1.057 1.284-1.888 2.492-1.888h.076A2.547 2.547 0 0 1 89.81 63.6v3.625h10.046c1.586 0 2.946 1.21 2.87 2.795Zm55.141 10.046h-41.544V63.751a2.547 2.547 0 0 1 2.568-2.568h.075c1.058 0 1.964.604 2.342 1.51h8.233c6.043 0 10.877 4.91 10.877 10.877v2.342h6.421v1.133h.679c3.022 0 5.817.755 8.158 2.115.68.453 1.435.755 2.191.906Zm29.08 0h-7.251c-1.435-1.208-2.87-2.115-5.438-2.115-2.569 0-3.928.907-5.439 2.115h-7.251c1.737-.377 2.87-1.284 4.23-2.417 1.964-1.662 4.154-3.474 8.46-3.474 4.305 0 6.496 1.812 8.459 3.474 1.36 1.133 2.493 2.04 4.23 2.417ZM205 78.102a10.42 10.42 0 0 0-1.662-.15c-2.568 0-3.928.906-5.438 2.114h-7.252c1.738-.377 2.871-1.284 4.23-2.417 1.964-1.662 4.155-3.474 8.46-3.474h.076A42.738 42.738 0 0 1 205 78.102Z" />
    <path fill="#E5D065"
        d="M102.726 70.02c-.075.68-.302 1.284-.755 1.737-.453.454-1.133.756-1.888.756h-9.744c-.151 0-.302 0-.453-.076a2.659 2.659 0 0 1-2.19-2.04c-.076-.15-.076-.377-.076-.528 0-1.36.982-2.417 2.266-2.644h10.046c1.51 0 2.87 1.209 2.794 2.795Zm0 15.862c0 .68-.302 1.284-.755 1.738-.453.453-1.133.755-1.888.755h-9.744c-1.284 0-2.417-.83-2.72-2.115-.302-1.662.983-3.172 2.569-3.172h9.668c1.586 0 2.946 1.284 2.87 2.794Z" />
    <path fill="#26518D"
        d="M89.886 63.6v28.778a2.547 2.547 0 0 1-2.569 2.569h-.075c-1.209 0-2.19-.831-2.493-1.889-.075-.226-.075-.453-.075-.68V63.6c0-.227 0-.453.075-.68a2.604 2.604 0 0 1 2.493-1.888h.075a2.547 2.547 0 0 1 2.569 2.568Z" />
    <path fill="#26518D"
        d="M87.62 62.92v30.138H71.304c-5.967 0-10.801-4.834-10.877-10.726v-8.535c0-6.043 4.91-10.877 10.877-10.877H87.62s0-.076 0 0Zm33.99.83v29.082a2.548 2.548 0 0 1-2.568 2.266h-.076a2.547 2.547 0 0 1-2.568-2.569V63.751a2.547 2.547 0 0 1 2.568-2.568h.076c1.057 0 1.964.604 2.341 1.51a2.4 2.4 0 0 1 .227 1.058Z" />
    <path fill="#26518D"
        d="M140.494 73.57v8.46c0 6.043-4.91 10.877-10.877 10.877h-8.762V62.693h8.686c6.043 0 10.953 4.91 10.953 10.877Z" />
    <path fill="#26518D"
        d="M205 78.102a10.421 10.421 0 0 0-1.662-.15c-2.568 0-3.928.906-5.438 2.114-.227.151-.454.302-.605.53-1.963 1.66-4.154 3.474-8.459 3.474-4.306 0-6.496-1.813-8.46-3.475-.227-.151-.453-.378-.605-.529-1.435-1.208-2.87-2.115-5.438-2.115-2.568 0-3.928.907-5.438 2.115-.227.151-.454.302-.605.53-1.964 1.66-4.154 3.474-8.46 3.474-2.266 0-4.23-.53-5.967-1.587-1.737-1.057-3.852-1.586-6.194-1.586h-7.931v-3.776h7.856c3.021 0 5.816.755 8.158 2.114.679.454 1.435.68 2.19.907.604.15 1.209.15 1.888.15.68 0 1.36-.075 1.889-.15 1.737-.378 2.87-1.284 4.23-2.417 1.964-1.662 4.154-3.475 8.46-3.475 4.305 0 6.495 1.813 8.459 3.475 1.36 1.133 2.417 2.04 4.23 2.417.529.15 1.133.15 1.889.15.755 0 1.359-.075 1.888-.15 1.737-.378 2.87-1.284 4.23-2.417 1.964-1.662 4.154-3.475 8.46-3.475h.075l1.36 3.852ZM61.183 77.8v3.777h-7.856c-2.341 0-4.456.529-6.194 1.586-1.813 1.133-3.7 1.587-5.967 1.587-4.305 0-6.496-1.813-8.46-3.475-.529-.453-1.057-.907-1.586-1.284-1.133-.831-2.417-1.36-4.457-1.36-2.039 0-3.323.529-4.456 1.36-.529.377-1.058.83-1.586 1.284-1.964 1.662-4.155 3.474-8.46 3.474-4.306 0-6.496-1.812-8.46-3.474-.529-.453-1.057-.907-1.586-1.284a6.316 6.316 0 0 0-1.737-.907C.227 77.8.15 76.441.075 75.081c2.795.529 4.457 1.964 6.043 3.248.756.604 1.435 1.209 2.19 1.662.983.604 2.191.906 3.853.906 1.662 0 2.87-.377 3.852-.906.755-.453 1.435-1.058 2.19-1.662 1.965-1.662 4.155-3.474 8.46-3.474 4.306 0 6.497 1.812 8.46 3.474.756.604 1.436 1.209 2.19 1.662.983.604 2.191.906 3.853.906 1.51 0 2.72-.302 3.852-.906.076-.076.151-.076.227-.151 2.342-1.435 5.136-2.115 8.158-2.115h7.78v.075Z" />
    <path fill="#26518D" d="M146.914 75.912h-10.575v6.043h10.575v-6.043Zm-81.954.378H54.384v6.042h10.574V76.29Z" />
</svg>