<svg xmlns="http://www.w3.org/2000/svg" fill="none" viewBox="0 0 93 130">
    <g clip-path="url(#a)">
        <path fill="#E9E7E5"
            d="M21.21 96.99c-.34-.1-.58-.2-.83-.34-.24-.1-.53-.25-.78-.34a17.97 17.97 0 0 1-4.14-2.73 14 14 0 0 1-3.8-5.52 27.75 27.75 0 0 0-2.44-5.31c-.98-1.61-2.34-2.98-3.9-2.54l-.44-1.5a4.06 4.06 0 0 1 3.6.54 8.57 8.57 0 0 1 2.4 2.38 29.39 29.39 0 0 1 3.02 5.56c.78 1.65 1.9 3.07 3.36 4.19a18.9 18.9 0 0 0 2.34 1.46c.4.2.83.4 1.27.59.2.1.44.14.63.24.2.05.44.15.59.2l-.88 3.12Z" />
        <path fill="#E9E7E5" d="M18.04 88.7s-13.16-6.54-6.73-29.21c6.44-22.67 11.9 6.97 11.9 6.97V79.3l-5.17 9.4Z" />
        <path fill="#7F95B9" d="M13.17 14.29S4.73 8.63 4.58 6.44C4.44 4.19 22.87-7.51 29.6 7.66" />
        <path fill="#E9E7E5"
            d="M55.3 25.3a46.88 46.88 0 0 1 1.5 3.62c.2.63.45 1.21.6 1.85 3.11 8.97 1.31 19.5-6.5 25.45A32.03 32.03 0 0 1 44.03 61c-.87.54-1.7.98-2.62 1.42-.83.43-1.66.82-2.54 1.17a22.17 22.17 0 0 1-11.02 1.46c-.92-.05-1.9-.2-2.82-.44-.93-.24-1.9-.54-2.88-.93a19.04 19.04 0 0 1-11.8-9.12 21.41 21.41 0 0 1-1.66-2.43 32.02 32.02 0 0 1-3.95-11.46c-.3-1.03-.49-2-.68-3.03-2.1-12 4-24.13 15.26-28.72 8.44-3.41 17.8-1.8 24.87 3.47a44.5 44.5 0 0 1 10.2 11.22c.28.58.62 1.11.92 1.7Z" />
        <path fill="#1C3760"
            d="M60.08 36.28c.92 1.75.43 3.51.73 5.27 0 .87-.05 1.7-.2 2.58-1.22 7.8-8.29 15.75-18.58 19.94-9.16 3.7-18.58 3.51-24.96.1-.78-.44-1.56-.88-2.25-1.41A15.15 15.15 0 0 1 8.1 51c-.04-.93 0-1.86.15-2.78 1.51-6.59 6.49-11.46 12.14-15.02l2.49-1.47a46.04 46.04 0 0 1 11.5-4.82c8.59-2.54 20.68-2.88 24.88 6.97.34.73.63 1.56.83 2.39Z" />
        <path fill="#7F95B9"
            d="M3.8 36.52s5.12-1.8 7.17-2.92c2.05-1.12-6.34 7.12-6.34 7.12m.44 2.24 3.7-3.85-2.19 8.92m43.79-29.7s-6.1 3.32-6.58 3.52c-.54.2 9.65.34 9.65.34m1.36 2.24-6.09-.93 7.66 4.3" />
        <path fill="#E9E7E5"
            d="M11.41 16.63s-8.48-3.9-9.5-1.12c-1.03 2.78 3.3 3.75 4.48 8.14m26.43-15.6s6.53-7.32 8.92-5.27c2.39 2.05-1.46 4.83-.54 9.31" />
        <path fill="#1C3760"
            d="M19.64 32.24c.81-.7.76-2.1-.12-3.12s-2.25-1.27-3.07-.57c-.81.7-.76 2.1.12 3.12s2.25 1.27 3.07.57Zm18.09-6.74c1.05-.23 1.67-1.48 1.38-2.8-.28-1.31-1.37-2.2-2.42-1.96-1.06.22-1.68 1.48-1.39 2.8.29 1.3 1.37 2.19 2.43 1.96Z" />
        <path fill="#26518D"
            d="M84.11 130H28.43a8.26 8.26 0 0 1-8.24-8.24V49.98c0-4.53 3.7-8.24 8.24-8.24H84.1c4.54 0 8.25 3.7 8.25 8.24v71.78A8.24 8.24 0 0 1 84.1 130Z" />
        <path fill="#E9E7E5" d="M84.07 50.03v65.83l-6.34 6.34H28.48V50.03h55.59Z" />
        <path fill="#7F95B9" d="m84.07 115.86-6.34 6.34 3.41-8.78 2.93 2.44Z" />
        <path fill="#E5D065"
            d="M68.85 37.35h-5.9a7.3 7.3 0 1 0-14.04-2.93c0 1.03.2 2.05.58 2.93h-5.31a7.9 7.9 0 0 0-7.9 7.9v8.2h40.47v-8.2a7.9 7.9 0 0 0-7.9-7.9Zm-10 0c-.68.59-1.6.98-2.58.98-.97 0-1.9-.4-2.58-.98a3.91 3.91 0 0 1 2.58-6.83 3.91 3.91 0 0 1 2.59 6.83Z" />
        <path fill="#6B81A0"
            d="M24.14 74.75 21.6 87.33a2.21 2.21 0 0 1-3.12 1.56c-2.68-1.26-4.58-4.43-4.58-8.14 0-4.83 3.26-8.78 7.31-8.78.44 0 .88.05 1.32.15 1.12.24 1.85 1.46 1.6 2.63Z" />
        <path fill="#1C3760"
            d="M0 76.36c2.34.88 5.32-.34 6.88 1.95.87.98.1 2.4-1.37 2.54-2.39.1-3.6-1.95-4.97-3.66-.34-.49-.54-.83-.54-.83Z" />
        <path fill="#6B81A0"
            d="M78.5 33.5c.06.24.06.49.1.73.59 5.56-2.82 8-9.16 8.49-.05 0-4.54.24-4.88-1.95a8.95 8.95 0 0 1-.1-1.76h.05c0-.05-.05-.05-.05-.1v.05a3.77 3.77 0 0 1-1.75-2.24 3.5 3.5 0 0 1 .24-2.73.75.75 0 0 0 0-.78 4.43 4.43 0 0 1-.39-1.8c.05-1.67 1.32-4.2 3.32-4.83.92-.3 2.58-.93 3.8-.93.54 0 .93-.44.88-.98-.2-1.7-.15-3.9 1.36-4.48 2.54-1.03 5.37.2 4.88 2.73-.44 2.34.78 5.85.98 6.34v.05c.1.29.2.63.29.97v.15c.05.73.14 1.46.2 2.1.14.34.19.68.24.97Z" />
        <path fill="#7F95B9" d="M66.6 36.91s-.04 0-.04-.05v-.04c.05 0 .05.04.05.1Z" />
        <path fill="#7F95B9"
            d="M66.6 36.91s-.04 0-.04-.05v-.04c.05 0 .05.04.05.1ZM10.58 62.56s3.76 3.12 4.73 3.12c.98 0-4.92.78-5.36.4m-.35 6.19s2.79-.3 4.25-1.27c1.46-.98-2.98 4.48-3.9 4.68" />
    </g>
    <defs>
        <clipPath id="a">
            <path fill="#fff" d="M0 0h92.36v130H0z" />
        </clipPath>
    </defs>
</svg>