<svg xmlns="http://www.w3.org/2000/svg" fill="none" viewBox="0 0 186 149">
    <g clip-path="url(#a)">
        <path fill="#F3F6FA"
            d="M156.755 141.972c.732.046 1.137-.864.582-1.394l-.055-.219.022-.053a2.061 2.061 0 0 1 2.684-1.104c3.302 1.365-.184 4.503.078 6.625.092.733 2.962.773 2.799 1.492a25.628 25.628 0 0 0 2.328-10.643 24.73 24.73 0 0 0-.155-2.759 25.505 25.505 0 0 0-.353-2.237 25.918 25.918 0 0 0-5.144-10.984c-1.228-.671-.479-1.72-1.098-2.977-.222-.453-2.204-.463-2.287-.96.089.012 1.37-1.319.947-1.977-.279-.433-.192-.984.166-1.354.035-.037.068-.075.098-.116 1.057-1.434 2.514-1.184 3.275.764 1.625.819 1.641 2.179.645 3.487-.634.832-.721 1.958-1.277 2.848.057.074.117.145.174.218a26.114 26.114 0 0 1 2.725 4.313c-.217-1.69.101-3.725.645-5.038.624-1.506 1.797-2.773 2.825-4.075 1.228-1.556 3.726-.85 3.943 1.12l.007.056a7.324 7.324 0 0 0-.447.274c-.829.548-.542 1.834.441 1.985l.022.004c-.054.547-1.996 2.271-2.134 2.804 1.314 5.073.331 5.743-3.71 5.827l-.212.303c.383 1.101.691 2.228.922 3.37a25.238 25.238 0 0 1 .438 7.286l.007-.048c.29-1.493 1.1-2.888 2.277-3.855 1.753-1.441 4.229-1.972 6.121-3.13.91-.558 2.077.162 1.918 1.218l-.007.05a7.315 7.315 0 0 0-1.269.67c-.829.549-.542 1.835.441 1.985l.023.004a.7.7 0 0 1 .045.007c-.482 1.147-5.082 2.765-5.924 3.684-.819 4.431-.417 4.299-4.187 3.01h-.002a26.687 26.687 0 0 1-1.787 5.221l-6.388.002a5.834 5.834 0 0 1-.064-.215c.59.036 1.186.002 1.767-.106-.474-.581-.948-1.167-1.422-1.749-.012-.011-.021-.023-.03-.034l-.007-.009-.658-2.165c.052-.48.137-.957.252-1.425v-.001Z" />
        <path fill="#101B25"
            d="m89.245 147.624-56.529.02a7.777 7.777 0 0 1-6.804-3.925 7.841 7.841 0 0 1-1.066-3.928c0-1.349.354-2.698 1.063-3.928l28.247-51.421a7.776 7.776 0 0 1 6.802-3.93 7.776 7.776 0 0 1 6.804 3.925l28.286 51.408a7.824 7.824 0 0 1 1.063 3.922 7.843 7.843 0 0 1-1.064 3.927 7.775 7.775 0 0 1-6.802 3.93Zm-63.689-7.834c0 1.228 6.238-1.418 6.884-.3 1.293 2.237-2.307 7.446.276 7.445 0 0 61.426-1.357 62.717-3.595a7.135 7.135 0 0 0 .968-3.574 7.132 7.132 0 0 0-.97-3.573L67.144 84.785a7.07 7.07 0 0 0-6.187-3.564c-2.582 0-35.402 57.341-35.402 58.569Z" />
        <path fill="#101B25"
            d="M89.874 146.915c-.709 1.419 32.477.983 32.87.983 0 0 9.327-.206 9.524-.546a1.075 1.075 0 0 0-.001-1.086l-4.295-7.806a1.072 1.072 0 0 0-.94-.541c-.016 0-.04.014-.071.042-5.73 5.12-12.792 8.505-20.476 8.62-8.17.121-16.567.244-16.611.334Z" />
        <path fill="#CED2DB"
            d="M0 147.859a.42.42 0 0 0 .422.422l185.156-.064a.42.42 0 0 0 .422-.422.42.42 0 0 0-.422-.422l-185.156.064a.42.42 0 0 0-.422.422Z" />
        <path fill="#7EBEFF"
            d="M77.453 136.284c14.293 0 25.879-11.586 25.879-25.879 0-14.293-11.586-25.88-25.879-25.88-14.292 0-25.879 11.587-25.879 25.88s11.587 25.879 25.88 25.879Z" />
        <path fill="#fff"
            d="M77.457 126.269a2.376 2.376 0 1 0 .001-4.751 2.376 2.376 0 0 0 0 4.751Zm-.009-31.729c-.219 1.451.172 1.755.175 8.007.002 6.253 1.3 14.637-.168 14.637-1.466.001-2.003-17.3-7.096-18.832-5.988-1.8 7.795-8.506 7.089-3.811Z" />
        <path fill="#101B25"
            d="m42.719 123.618-2.338 4.94c2.826-2.027 7.241-3.774 10.755-4.71-3.274-1.581-7.28-4.131-9.672-6.655l1.344 5.22c-15.766-3.211-27.088-15.306-27.093-29.161l-.57-.196c.005 14.472 11.171 27.283 27.574 30.562Z" />
        <g clip-path="url(#b)">
            <path fill="#DCDEE5"
                d="M132.301 147.89a5.9 5.9 0 0 0-.78-.06c-1.379 0-3.148.27-3.808-.54-.15-.18-.24-.449-.27-.779 0-2.489-.749-5.217-.449-7.676.03-.36.12-.69.21-1.02.509-.989 1.409-2.788 2.908-2.488 1.799.599 2.399 2.099 2.639 3.898.09.329.209.659.299.989.66 2.309 1.08 4.798.42 7.136-.27.33-.689.54-1.169.54Z" />
            <path fill="#36353A"
                d="M155.898 137.156c.42.15.9.15 1.349.03.45-.12.87-.36 1.2-.72.33-.33.599-.72.719-1.169.15-.45.15-.93.03-1.38l.06.12c-.15-.21-.24-.389-.359-.569-.12-.18-.21-.33-.33-.48-.12-.12-.21-.21-.3-.21-.09-.03-.21 0-.33.09l.09-.06c-.21.21-.39.51-.48.81-.09.299-.06.629.03.929.12.27.3.48.57.63.06.03.15.06.21.09l.27.09c.18.06.359.09.539.12.72.119 1.44.06 2.129-.15.69-.21 1.29-.63 1.799-1.14l.6.57c-.6.63-1.349 1.109-2.159 1.349-.809.27-1.679.33-2.519.18-.209-.03-.419-.09-.629-.15l-.3-.09c-.12-.03-.21-.09-.33-.12a2.054 2.054 0 0 1-.989-1.079c-.33-.93 0-1.949.659-2.609l.03-.03.06-.03c.24-.12.54-.21.87-.12.33.09.54.3.719.48.15.21.27.39.39.57.12.18.21.36.33.51l.03.06.03.059c.15.57.12 1.2-.03 1.77a3.649 3.649 0 0 1-.84 1.529c-.389.42-.869.809-1.409 1.079-.539.3-1.109.48-1.739.63l.03-1.589Z" />
            <path fill="#CED2DB"
                d="M154.759 147.08c-.36.09-.69.18-1.02.24-1.679.33-3.208.33-4.857.42l-.93.09c-.3.03-.629.03-.929.03-7.107.21-14.063-2.758-18.201-8.365-.239-.33-.479-.66-.689-1.02-1.529-2.549-2.129-5.247-3.478-7.526-.09-.24-.18-.48-.27-.75-.09-.239-.15-.479-.24-.749-1.349-4.438-.96-8.845 3.388-12.174a12.737 12.737 0 0 1 4.438-2.668c4.857-1.799 9.655.3 12.953 3.598 2.878 3.238 6.206 7.136 8.665 11.274l.81 1.439c.479.93.929 1.859 1.289 2.789.12.299.21.599.3.899.09.3.18.63.27.93.959 3.658 3.358 7.855-.24 10.884-.45.27-.84.45-1.259.659Z" />
            <path fill="#36353A"
                d="M141.956 143.782c-1.05.96-1.949 1.679-2.759 2.219-1.259-.659-2.399-1.529-3.418-2.548.18-.15.39-.27.629-.42 8.666-4.678 7.586-15.292 9.026-23.238.449 2.549.899 5.367 1.049 8.216.09 1.439.09 2.878 0 4.288-.42 4.137-1.319 8.545-4.527 11.483Zm14.212-8.515c0 .66 0 1.349-.06 2.009-.33 2.788-.9 5.697-2.399 8.155-.839.42-1.829.75-2.998.93-1.259.21-2.489.36-3.748.39 5.817-3.508 6.626-9.835 7.316-15.772.48.87.929 1.739 1.289 2.609.24.509.42 1.079.6 1.679Zm-3.118-6.987c-.6-.929-1.02-1.529-1.769-2.218-.45 2.428-.33 4.767-1.29 6.926 1.439-.09 1.559-1.679 2.219-2.519.36-.719.69-1.499.84-2.189Z" />
            <path fill="#36353A"
                d="M153.14 143.033c-3.419.959-6.627 1.979-9.925 2.458 2.159 1.829 5.607 1.56 7.766-.209.809-.63 1.559-1.38 2.159-2.249Zm11.783-9.025c0 .119-.06.209-.18.269l-.839.42c-.06.03-.09.03-.15.06-.15.06-.3.09-.45.06a.62.62 0 0 1-.42-.3.746.746 0 0 1-.09-.509c.51-.48.51-1.47 1.5-1.23.509.24-.75.99.329.9.18 0 .33.15.3.33Z" />
            <path fill="#CED2DB"
                d="M125.704 104.773s-6.506-6.806-8.575-4.437c-1.409 1.619-1.859 5.067-.06 5.787 1.799.719 1.799 4.617 1.799 4.617l6.836-5.967Zm19.22 4.018s8.066-6.207 9.415-3.508c1.319 2.699-3.298 14.332-7.226 12.383-3.958-1.949-2.189-8.875-2.189-8.875Z" />
            <path fill="#4F5156"
                d="M122.676 107.562s-2.039-3.658-3.808-3.268c-1.769.389 1.259 3.987 1.229 5.277-.03 1.289 3.119-1.02 2.579-2.009Zm23.447 7.106c.12-.96.69-1.829 1.5-2.369 1.469-.959 4.047-2.518 4.257-1.559.3 1.349-2.338 7.166-4.587 6.327-1.11-.45-1.26-1.47-1.17-2.399Z" />
            <path fill="#DCDEE5"
                d="M124.985 135.267c4.258 1.259 8.455.66 11.904-1.499.359-.21.689-.39 1.049-.63a18.83 18.83 0 0 0 2.878-2.279c.57-.539 1.11-1.139 1.62-1.739a20.548 20.548 0 0 0 3.927-7.256c1.02-3.298.96-6.866-.06-10.194-3.388-10.195-17.12-11.065-24.317-4.348a17.87 17.87 0 0 0-3.118 3.418c-1.769 2.459-2.848 5.457-3.148 8.516-.09.899-.12 1.829-.09 2.728.24 5.397 2.848 10.554 8.096 12.803.419.18.839.36 1.259.48Z" />
            <path fill="#4F5156"
                d="M124.625 135.927c4.048 1.199 8.545.599 12.233-1.56l1.08-.629a22.193 22.193 0 0 0 2.968-2.339c.12-.12.24-.24.36-.33a4.42 4.42 0 0 0 1.319-3.568c-.479-5.517-4.707-10.584-10.134-12.593-5.547-2.069-12.264-.81-16.192 3.238a4.375 4.375 0 0 0-1.259 2.938c0 .39 0 .81.03 1.2.24 5.547 2.938 10.854 8.306 13.163.419.18.839.33 1.289.48Z" />
            <path fill="#36353A"
                d="M140.83 114.903c.141-.95-.236-1.793-.842-1.883-.606-.09-1.212.607-1.353 1.557-.141.95.236 1.793.842 1.883.606.09 1.212-.607 1.353-1.557Zm-16.214-1.524c.546-.009.98-.646.968-1.424-.011-.778-.464-1.403-1.01-1.395-.547.009-.98.646-.969 1.424.012.778.464 1.403 1.011 1.395Z" />
            <path fill="#DCDEE5"
                d="M144.954 146.781c-.06-1.05-.75-2.459-.78-3.358 0-.45.15-.78.66-.87 3.898 0 7.196-1.499 10.614-3.238.24-.06.48-.15.69-.18.45-.09.899-.09 1.289.12 1.499.899.9 2.698.93 4.258 0 .239 0 .449-.03.659-.03.33-.12.63-.24.93-.12.3-.27.569-.45.809-3.238 2.669-7.736 2.369-11.544 1.979-.3-.09-.569-.24-.869-.42-.12-.239-.24-.449-.27-.689Z" />
            <path fill="#CED2DB"
                d="M138.627 147.92c-.24-.03-.479-.06-.779-.06-1.38-.03-3.149.21-3.778-.539-.15-.18-.24-.39-.24-.72.06-2.399-.78-5.037-.24-7.346.09-.39.21-.75.39-1.14.689-.719.989-1.919 2.219-1.559.419.09.779.24 1.109.42.33.18.57.39.81.66.239.24.419.539.569.839.93 2.729 2.159 5.967 1.17 8.995-.33.27-.75.45-1.23.45Z" />
            <path fill="#A5A5A5"
                d="M145.284 147.471a12.19 12.19 0 0 1-1.079-2.489c-.15-.45-.24-.869-.3-1.349 0-.24 0-.48.06-.75.03-.12.12-.24.21-.36.09-.09.269-.179.359-.209.48-.12.93-.15 1.38-.18l1.349-.09c.45-.03.9-.06 1.349-.12.45-.06.9-.09 1.29-.3-.18.15-.39.21-.6.3-.21.06-.45.12-.66.18-.45.09-.899.15-1.349.21-.45.059-.9.119-1.349.149-.45.06-.9.09-1.32.21-.359.06-.419.51-.419.93.03.42.12.869.21 1.289.299.87.569 1.739.869 2.579Z" />
            <path fill="#4F5156"
                d="M128.553 104.024c.629 1.169 1.679 2.038 2.848 2.608 3.718 1.739 10.405 4.348 13.493 2.159 4.408-3.148-3.388-10.135-5.187-11.274-1.799-1.14 0 2.339 0 2.339s-8.036-4.378-8.336-6.956c-.33-2.55-2.129.75-.929 4.047 1.199 3.299 2.099 3.598 2.099 3.598s-2.429-1.109-4.228-.72c-1.769.421-3.778 1.77-2.639 1.83.84.06 2.279 1.229 2.879 2.369Z" />
            <path fill="#36353A"
                d="M127.503 132.538c.27.99-.629 1.889-1.529 1.59-.899-.3-1.199-.9-1.529-1.68-.12-.419-.12-.869.03-1.319.15-.3.36-.48.6-.54.899-.059 1.499.54 2.128 1.26.12.21.24.45.3.689Z" />
        </g>
    </g>
    <defs>
        <clipPath id="a">
            <path fill="#fff" d="M0 0h186v148.281H0z" />
        </clipPath>
        <clipPath id="b">
            <path fill="#fff" d="M115 92h49.923v56.1H115z" />
        </clipPath>
    </defs>
</svg>