<svg xmlns="http://www.w3.org/2000/svg" fill="none" viewBox="0 0 196 224">
    <g clip-path="url(#a)">
        <path fill="#F2F2F2"
            d="m94.06 210.01-.25-5.61-.08-.04a3.45 3.45 0 0 0-4.89 4.03c.8 2.73 1.35 5.67 2.82 8.06a10.92 10.92 0 0 0 8 5.04l3.4 2.09a18.3 18.3 0 0 0-3.85-14.82 17.64 17.64 0 0 0-3.25-3.02c-.81 2.15-1.9 4.27-1.9 4.27Z" />
        <path fill="#E6E6E6"
            d="M63.61 153.02c-6.54-6.76-16.03-10.63-26.03-10.63h-.38a37.18 37.18 0 0 1-18.74-5.06l-.6-.34.49-.5a36.23 36.23 0 0 0 6.38-9.04 10.95 10.95 0 0 1-8.84 2.86 11.23 11.23 0 0 1-8.23-5.28C4.16 119.37 0 111.33 0 105.2a37.28 37.28 0 0 1 12.16-27.52 23.21 23.21 0 0 0 7.67-17.3v-.47c0-4.3.52-8.57 1.56-12.74l.1-.42.44.01c2.8.1 5.59-.14 8.33-.7a28.1 28.1 0 0 1-7.47-1.98l-.47-.19.16-.48c10.9-6.74 35.5-3.25 49.78-35.91C83.83-19 124.68 31 124.68 59.9c0 2.95-2.92 6.85-.73 8.8 23.61 21.07 7.32 34.6 2.18 48.21-1.22 3.23 1.43 6.78 1.43 10.27 0 .6-.02 1.2-.05 1.82l-.05.95-.78-.53c-1.56-1.02-3-2.2-4.31-3.53a22.74 22.74 0 0 1-.72 19.62c-2.48 4.67-4.87 8.02-7.12 9.94a37.17 37.17 0 0 1-50.92-2.44Z" />
        <path fill="#3F3D56"
            d="M103.16 223.3c.16 0 .31-.06.43-.17a.7.7 0 0 0 .23-.4c.03-.2 2.8-20.28.3-46.97-2.3-24.64-9.72-60.13-31.93-89.28a.67.67 0 1 0-1.06.8c22.02 28.9 29.37 64.14 31.67 88.6 2.48 26.54-.28 46.46-.3 46.66a.53.53 0 0 0 .01.28.66.66 0 0 0 .37.42c.08.04.18.06.28.06Z" />
        <path fill="#3F3D56"
            d="M85.03 127.6a.67.67 0 0 0 .4-1.22c-.09-.05-8.21-5.91-20.36-10.36-11.23-4.1-28.3-7.84-45.89-2.24a.65.65 0 0 0-.4.33.67.67 0 0 0 .55.97.7.7 0 0 0 .26-.03c17.22-5.48 33.98-1.81 45.02 2.23a90.48 90.48 0 0 1 20.03 10.19c.11.08.25.12.39.12Zm30.62-76.26a.68.68 0 0 0-.42-.67.67.67 0 0 0-.76.19c-.07.07-6.5 7.76-11.8 19.55-4.91 10.9-9.86 27.67-5.55 45.61a.67.67 0 0 0 .81.5.67.67 0 0 0 .5-.81c-4.23-17.57.63-34.03 5.46-44.75a90.67 90.67 0 0 1 11.6-19.24.6.6 0 0 0 .16-.38Z" />
        <path fill="#FFB6B6" d="m164.91 80.15-6.07 8.49-2.66-2.41 4.07-9.13a3.5 3.5 0 1 1 4.66 3.05Z" />
        <path fill="#CACACA"
            d="m85.69 223.77 72.46.1a.38.38 0 0 0 .38-.38c0-.1-.04-.2-.11-.27a.38.38 0 0 0-.27-.11l-72.46-.1a.38.38 0 0 0-.38.38.38.38 0 0 0 .38.38Z" />
        <path fill="#E6E6E6"
            d="M59.48 190.6c.14-.91-.83-1.81-2.15-2-1.31-.2-2.5.39-2.63 1.3-.13.92.83 1.82 2.15 2.02 1.32.19 2.5-.4 2.63-1.32Z" />
        <path fill="#3F3D56"
            d="M75.2 189.07c.13-.92-.83-1.82-2.15-2.01-1.32-.2-2.5.4-2.63 1.31-.14.92.82 1.82 2.14 2.01 1.32.2 2.5-.4 2.64-1.31Z" />
        <path fill="#FF6584"
            d="M55.18 177.88c.13-.92-.83-1.82-2.15-2-1.32-.2-2.5.39-2.63 1.3-.13.92.83 1.82 2.15 2.02 1.32.19 2.5-.4 2.63-1.32Z" />
        <path fill="#E6E6E6"
            d="M48.35 172.67c0-.84-.46-1.53-1.05-1.53-.58 0-1.06.67-1.07 1.52 0 .84.46 1.53 1.05 1.53.59 0 1.07-.68 1.07-1.52Z" />
        <path fill="#3F3D56"
            d="M46.04 162.97c0-.85-.47-1.53-1.05-1.54-.59 0-1.07.68-1.08 1.52 0 .84.47 1.53 1.05 1.53.59 0 1.07-.67 1.08-1.51Z" />
        <path fill="#E6E6E6"
            d="M64.04 180.05c0-.85-.46-1.53-1.05-1.54-.58 0-1.06.68-1.07 1.52 0 .84.46 1.53 1.05 1.53.59 0 1.07-.67 1.07-1.51Z" />
        <path fill="#FF6584"
            d="M56.45 183.84c0-.84-.46-1.53-1.05-1.54-.59 0-1.07.68-1.07 1.52-.01.84.46 1.53 1.05 1.54.58 0 1.06-.68 1.07-1.52Z" />
        <path fill="#3F3D56"
            d="M67.02 190.84c0-.84-.46-1.53-1.05-1.53-.59 0-1.07.68-1.07 1.52-.01.84.46 1.53 1.05 1.53.58 0 1.06-.67 1.07-1.52Z" />
        <path fill="#E6E6E6"
            d="M180.28 141.4c.13-.93-.83-1.83-2.15-2.02-1.32-.2-2.5.4-2.63 1.32-.14.91.82 1.81 2.14 2 1.32.2 2.5-.4 2.64-1.3Z" />
        <path fill="#3F3D56"
            d="M195.99 139.86c.13-.92-.83-1.82-2.15-2.01-1.32-.2-2.5.4-2.63 1.31-.14.92.83 1.82 2.15 2.01 1.32.2 2.5-.4 2.63-1.31Z" />
        <path fill="#FF6584"
            d="M175.97 128.67c.13-.92-.83-1.82-2.15-2.01-1.32-.2-2.5.4-2.63 1.31-.13.92.83 1.82 2.15 2.02 1.32.19 2.5-.4 2.63-1.32Z" />
        <path fill="#E6E6E6"
            d="M169.14 123.46c.01-.84-.46-1.53-1.05-1.53-.58 0-1.06.67-1.07 1.51 0 .85.47 1.53 1.05 1.54.59 0 1.07-.68 1.07-1.52Z" />
        <path fill="#3F3D56"
            d="M166.83 113.75c0-.84-.47-1.53-1.05-1.53-.59 0-1.07.67-1.07 1.52-.01.84.46 1.53 1.04 1.53.6 0 1.07-.67 1.08-1.52Z" />
        <path fill="#E6E6E6"
            d="M184.83 130.84c.01-.85-.46-1.53-1.05-1.54-.58 0-1.06.68-1.07 1.52 0 .84.47 1.53 1.05 1.53.59 0 1.07-.67 1.07-1.51Z" />
        <path fill="#FF6584"
            d="M177.24 134.63c0-.85-.46-1.53-1.05-1.54-.59 0-1.07.68-1.07 1.52s.46 1.53 1.05 1.53c.58 0 1.06-.67 1.07-1.51Z" />
        <path fill="#3F3D56"
            d="M187.81 141.63c0-.84-.46-1.53-1.05-1.53-.58 0-1.07.68-1.07 1.52s.46 1.53 1.05 1.53c.58 0 1.06-.67 1.07-1.52Z" />
        <path fill="#fff"
            d="M121.8 50.32c.13-.92-.83-1.82-2.15-2.01-1.32-.2-2.5.4-2.63 1.31-.14.92.83 1.82 2.15 2.01 1.31.2 2.5-.4 2.63-1.31Z" />
        <path fill="#3F3D56"
            d="M137.5 48.78c.14-.91-.82-1.81-2.14-2-1.32-.2-2.5.4-2.63 1.3-.13.93.83 1.83 2.15 2.02 1.32.2 2.5-.4 2.63-1.32Z" />
        <path fill="#FF6584"
            d="M117.5 37.6c.13-.92-.83-1.82-2.15-2.01-1.32-.2-2.5.4-2.64 1.31-.13.92.83 1.82 2.15 2.01 1.32.2 2.5-.4 2.63-1.31Z" />
        <path fill="#E6E6E6"
            d="M110.67 32.39c0-.85-.47-1.53-1.06-1.54-.58 0-1.06.68-1.07 1.52 0 .84.47 1.53 1.05 1.53.59 0 1.07-.67 1.08-1.51Z" />
        <path fill="#3F3D56"
            d="M108.35 22.68c0-.84-.46-1.53-1.05-1.53-.59 0-1.07.67-1.07 1.52-.01.84.46 1.52 1.05 1.53.58 0 1.06-.68 1.07-1.52Z" />
        <path fill="#E6E6E6"
            d="M126.36 39.76c0-.84-.47-1.53-1.05-1.53-.6 0-1.07.67-1.08 1.52 0 .84.47 1.53 1.05 1.53.59 0 1.07-.68 1.08-1.52Z" />
        <path fill="#FF6584"
            d="M118.76 43.55c0-.84-.46-1.53-1.05-1.53-.58 0-1.06.67-1.07 1.52 0 .84.46 1.53 1.05 1.53.59 0 1.07-.67 1.07-1.52Z" />
        <path fill="#3F3D56"
            d="M129.33 50.56c0-.84-.46-1.53-1.05-1.53-.58 0-1.06.67-1.07 1.51 0 .85.46 1.53 1.05 1.54.59 0 1.07-.68 1.07-1.52Z" />
        <g clip-path="url(#b)">
            <path fill="#CED2DB"
                d="M145.84 149.81s7.65-12.88 11.74-9.99c2.77 1.98 4.72 7.18 2.18 8.96-2.54 1.79-1.11 7.85-1.11 7.85l-12.81-6.82Zm-28.4 13.17s-14.79-6.7-15.86-2.06c-1.07 4.64 10.31 21.06 15.7 16.62 5.4-4.45.16-14.56.16-14.56Z" />
            <path fill="#4F5156"
                d="M151.55 153.03s1.86-6.43 4.76-6.47c2.9-.04-.52 6.66 0 8.65.51 1.98-5.24-.44-4.76-2.18Zm-33.87 19.51a5.45 5.45 0 0 0-3.17-3.17c-2.66-1-7.22-2.46-7.18-.92.04 2.19 6.23 10.28 9.4 8.17 1.58-1.03 1.47-2.7.95-4.08Z" />
            <path fill="#CED2DB"
                d="M134.73 221.83c-2.5.04-5.67.04-6.86-1.94-1.98-2.38 1.2-5.16 2.38-7.85a22.45 22.45 0 0 1 3.6-5.24c.8-1.19 3.98-.79 4.37.8.76 2.97.24 5.79-.4 8.56-.11.56-.27 1.11-.39 1.67-.4 1.27-.4 2.06-.75 3.33a2.7 2.7 0 0 1-1.95.67Z" />
            <path fill="#DCDEE5"
                d="M145.72 222.67c-2.66-.44-7.65.9-7.65-2.26 0-3.18 1.82-6.35 2.22-9.68.04-.51.12-1 .2-1.47a4.23 4.23 0 0 1 2.57-3.33c4.52-1.35 6.78 1.83 5.44 5.99v8.02a2.8 2.8 0 0 1-.8 1.93c-.55.48-1.23.8-1.98.8Z" />
            <path fill="#CED2DB"
                d="M170.23 221.91c-.36-.08-.8-.08-1.23-.08-2.22-.04-5.04.44-6.07-.87-.24-.32-.4-.71-.4-1.3.04-5.88-2.46-12.42 1.03-17.46.28-.51.68-.79 1.07-.95.44-.12.88-.12 1.4 0a5.5 5.5 0 0 1 3.09 1.9c.35.44.67.96.95 1.51 1.55 4.96 3.6 10.87 2.1 16.38-.51.56-1.19.87-1.94.87Z" />
            <path fill="#DCDEE5"
                d="M177.44 222.3c-.35-.07-.79-.07-1.22-.11-2.19-.04-5.04.36-6.03-.95-.24-.32-.4-.75-.4-1.31.12-5.87-2.26-12.45 1.3-17.41.33-.52.68-.8 1.08-.91.44-.12.87-.08 1.39 0a5.33 5.33 0 0 1 3.05 1.94c.36.44.67.95.91 1.5 1.47 4.96 3.45 10.91 1.87 16.43-.52.51-1.2.83-1.95.83Z" />
            <path fill="#DCDEE5"
                d="M180.9 195.74c-.32 1.58-.8 3.13-1.4 4.6-3.05 9.12-11.5 13.6-20.42 14.75a39.02 39.02 0 0 1-8.64.08c-5.55-.8-11.1-2.78-15.5-6.42-.88-.68-1.71-1.4-2.5-2.19-.8-.79-1.51-1.62-2.15-2.53-5.23-9.05-9.6-20.94-5.23-31.25 3.57-8.73 15.07-9.13 23.4-8.02 1.82.12 3.6.32 5.39.6 3.69.71 7.26 1.5 10.7 2.42.56.2 1.12.36 1.67.55 1.11.4 2.22.84 3.33 1.31.44.12.84.28 1.27.44a17.8 17.8 0 0 1 4.09 2.18 11.6 11.6 0 0 1 3.65 4.12c.9 1.95 1.62 4.01 2.1 6.11a29.88 29.88 0 0 1 .24 13.25Z" />
            <path fill="#36353A"
                d="M170.35 178.6c-2.14 11.03-11.62 20.31-21.14 27.53-9.48 7.22-12.37 4.76-8.77 3.01 0 0 17.06-15.62 20.43-21.81 2.9-5.31 3.73-15.86 5.35-19.08 1.11.4 2.22.84 3.33 1.31.44.12.84.28 1.27.44.4 1.75.32 4.44-.47 8.6Zm-33.15 6.94s-2.98 15.71-5.64 17.1c-2.62 1.39 5.31 2.9 11.74-9.92 6.42-12.8-5.24-15.82-6.1-7.18Z" />
            <path fill="#CED2DB"
                d="M157.97 196.93c-8.6 4.68-18.28 3.57-26.21-1.11a27.84 27.84 0 0 1-3.17-2.14 32.96 32.96 0 0 1-8.73-9.84 27.57 27.57 0 0 1-3.57-15.86c1.59-17.06 22.6-23.4 36.21-15.55a28.48 28.48 0 0 1 14.08 16.26c.48 1.39.83 2.78 1.1 4.2 1.71 9.17-.98 18.84-9.7 24.04Z" />
            <path fill="#4F5156"
                d="M158.8 197.8c-8.84 4.8-18.8 3.65-26.88-1.15-.24-.12-.44-.28-.68-.4a7.2 7.2 0 0 1-3.37-5.07c-1.23-8.73 3.5-18.13 11.19-23.2 7.85-5.2 18.75-5.67 26.33-.84a6.97 6.97 0 0 1 3.01 4.17c.16.63.28 1.23.4 1.86 1.74 9.36-1.03 19.32-10 24.63Zm-40.17-35.18c-4.04-.55 7.26-24.66 11.38-19.67-.63.8.44 1.79 1.16 1.11 6.14-6.97 12.21-15.3 8.96 2.9 4.72-8.4 4.6 9.12-21.5 15.66Z" />
            <path fill="#36353A"
                d="M159.08 215.05c-1.9.24-3.8.32-5.67.28 0 0 8.4-8.2 8.69-9.76 3.2-5.94.95 5.08-3.02 9.48Zm21.82-19.31s-2.42-12.77-4.53-15.11c-3.72-6.86 1.23-3.89 4.37 1.78.99 4.4 1.07 9 .16 13.33Z" />
            <path fill="#36353A"
                d="M178.68 182.97c.31-.28.55-.52.83-.72.28-.23.56-.43.83-.63a9.2 9.2 0 0 1 1.83-1.07 5.43 5.43 0 0 1 2.1-.48c.75 0 1.47.24 2.1.64.6.4 1.11.87 1.55 1.38.43.52.83 1.08 1.15 1.67.16.32.31.6.43.95.12.36.2.72.16 1.15a1.5 1.5 0 0 1-.75 1.15c-.4.24-.8.28-1.2.32a3.92 3.92 0 0 1-2.97-1.3 2.44 2.44 0 0 1-.51-1.08 5.55 5.55 0 0 1 0-2.14c.12-.68.32-1.35.6-1.98a7.29 7.29 0 0 1 2.57-3.22c.6-.4 1.23-.71 1.9-.87a7.4 7.4 0 0 1 2.1-.2l-.07 1.11a5.04 5.04 0 0 0-3.3.88 6.7 6.7 0 0 0-2.18 2.73c-.23.56-.4 1.11-.51 1.7a4.9 4.9 0 0 0 0 1.71c.08.28.16.48.28.64.16.2.35.35.6.47.47.28 1.02.44 1.54.44.28 0 .51-.04.67-.16.16-.08.24-.2.28-.4.04-.2 0-.47-.08-.71-.08-.28-.2-.51-.36-.8-.27-.5-.67-1.02-1.03-1.5-.4-.48-.83-.87-1.3-1.15-1-.6-2.19-.56-3.18.04a5.16 5.16 0 0 0-2.26 2.58l-1.82-1.15Z" />
            <path fill="#36353A"
                d="M193.5 176.66c0 .2-.11.36-.27.44l-1.3.67a.56.56 0 0 1-.25.08.97.97 0 0 1-.75.08 1.19 1.19 0 0 1-.67-.47c-.16-.24-.2-.52-.16-.84.8-.75.8-2.34 2.38-1.94.79.4-1.2 1.59.51 1.43.28.04.52.27.52.55Zm-64.84-3.72c.91-.36 1.2-1.8.64-3.23-.57-1.43-1.77-2.3-2.68-1.93-.92.36-1.2 1.81-.64 3.24.56 1.42 1.76 2.29 2.68 1.92Zm21.99-10.13c.85-.18 1.33-1.32 1.07-2.54-.27-1.22-1.18-2.06-2.03-1.88-.86.19-1.34 1.33-1.07 2.55.26 1.22 1.17 2.06 2.03 1.87Z" />
            <path stroke="#232323" stroke-linecap="round" stroke-miterlimit="10" stroke-width="1.59"
                d="M146.87 190.58c2.38 1.59 6.7.36 6.5-3.8" />
        </g>
    </g>
    <defs>
        <clipPath id="a">
            <path fill="#fff" d="M0 0h196v223.87H0z" />
        </clipPath>
        <clipPath id="b">
            <path fill="#fff" d="M101.5 135.93h92.01v86.73H101.5z" />
        </clipPath>
    </defs>
</svg>