<svg xmlns="http://www.w3.org/2000/svg" fill="none" viewBox="0 0 142 209">
    <g clip-path="url(#a)">
        <path fill="#CED2DB"
            d="M29.92 121.54s-30.96 54.63-20.94 64.77c10.02 10.14 38.19 2.5 38.19 2.5s9.68-67.19-17.25-67.28v.01ZM66 156.73s50.58-13.36 63.41-14.42c12.83-1.06 5.57 25.88-2.28 30.39-7.85 4.51-76.88 12.97-61.14-15.97H66Z" />
        <path fill="#36353A"
            d="M41.83 179.07c-1.03-.19-1.82-.41-2.71-.64-.86-.24-1.7-.47-2.54-.77a24.68 24.68 0 0 1-4.85-2.16c-1.53-.92-3-2.11-4.05-3.68a10.32 10.32 0 0 1-1.72-5.21c-.1-1.81.16-3.56.6-5.22.45-1.66 1-3.21 1.75-4.78.4-.78.79-1.56 1.35-2.3a6.69 6.69 0 0 1 2.19-2.01 4 4 0 0 1 3.46-.15 5.93 5.93 0 0 1 2.35 2.01 10.55 10.55 0 0 1 1.85 5.19c.07.93.03 1.9-.23 2.88-.25 1-.85 1.96-1.48 2.64a13.99 13.99 0 0 1-4.38 3.1 21.7 21.7 0 0 1-4.92 1.63c-3.37.68-6.99.62-10.33-.63a15.2 15.2 0 0 1-4.6-2.68 16.65 16.65 0 0 1-3.4-4.05c-.4-.66-.19-1.52.47-1.91.66-.4 1.51-.19 1.91.47a12.7 12.7 0 0 0 6.58 5.58 16.21 16.21 0 0 0 8.83.53c1.48-.3 2.93-.78 4.29-1.41a11.85 11.85 0 0 0 3.53-2.46c.46-.51.74-.97.9-1.55.16-.58.21-1.26.16-1.94a8.07 8.07 0 0 0-1.32-3.88 3.45 3.45 0 0 0-1.25-1.16 1.37 1.37 0 0 0-1.23.04c-.46.22-.94.7-1.36 1.25-.43.54-.79 1.2-1.14 1.87a24.97 24.97 0 0 0-1.58 4.34 12.55 12.55 0 0 0-.47 4.39 7.64 7.64 0 0 0 4.68 6.45c1.31.61 2.78.97 4.27 1.13.75.06 1.5.1 2.25.06a9.88 9.88 0 0 0 2.14-.29 2.76 2.76 0 1 1 .28 5.36l-.26-.05-.02.01Z" />
        <path fill="#36353A"
            d="M7.3 157.59c.4-.27.91-.27 1.3-.06l3.3 1.74c.19.1.35.22.5.36a2.73 2.73 0 0 1-.21 4.96c-2.71-.53-5.99 1.77-7.47-2.07-.33-2.21 5 .16 2.21-3.15-.39-.59-.22-1.4.38-1.78H7.3Z" />
        <path fill="#DCDEE5"
            d="M129.83 165.09c1.17 10.36.17 24.36-10.68 28.49a43.04 43.04 0 0 1-10.12 4.57c-11.41 4.92-21.09 6.17-29.34 4.71a35.53 35.53 0 0 1-11.37-4.11 99.95 99.95 0 0 1-18.54-16.08 80.58 80.58 0 0 1-19.37-33.63l-.01-.01a66.41 66.41 0 0 1-2.6-18.92c.11-7.62 1.74-15.02 5.21-21.66 8-15 24-28 42.96-26.76 2.55.13 5.18.52 7.9 1.21a49.7 49.7 0 0 1 9.52 3.53 67.9 67.9 0 0 1 10.17 6.17c18.44 14.85 20.44 38.85 24.62 60.19.78 4.21 1.33 8.32 1.64 12.31l.01-.01Z" />
        <path fill="#CED2DB"
            d="M39.23 36.34S34.24-.68 45.25 0c11.01.69 39.54 36.62 26.21 45.61-13.33 8.99-32.24-9.28-32.24-9.28l.01.01Z" />
        <path fill="#4F5156"
            d="M19.33 101.79a45.25 45.25 0 0 1-7.82-8.45 39.66 39.66 0 0 1-2.78-4.58 44.06 44.06 0 0 1-2.5-4.81 39 39 0 0 1-1.8-4.93c-6.24-17.03 5.18-34.19 15.15-47.81a96.61 96.61 0 0 1 10.46-12.54c23.61-23.96 15.83 6.25 4.79 36.62-.44 1.22-.89 2.43-1.35 3.65-5.28 12.25-6.94 26.47-11.69 38.98a68.08 68.08 0 0 1-2.47 3.88l.01-.01Z" />
        <path fill="#CED2DB"
            d="M116.94 110.98a37.19 37.19 0 0 1-2.48 4.56 34.98 34.98 0 0 1-10.55 10.83 41.63 41.63 0 0 1-4.82 3.06c-21.09 11.51-50.55 5.14-68.31-10.28a37.39 37.39 0 0 1-6.93-7.02c-4.57-6.06-7.09-13.28-8.28-20.94a77.3 77.3 0 0 1-.75-7.34c-.4-7.62.24-15.43 1.28-22.8.13-.54.26-1.09.41-1.62a40.85 40.85 0 0 1 6.92-14.15 33.55 33.55 0 0 1 2.3-2.74 39.88 39.88 0 0 1 8.12-6.76l.32-.16a45.54 45.54 0 0 1 4.77-2.13c11.93-4.51 24.22-3.39 35.61 1.23a65.94 65.94 0 0 1 7.81 3.78c9.25 5.2 17.65 12.56 24.4 20.79a96.23 96.23 0 0 1 3.35 4.32 71.45 71.45 0 0 1 3.2 4.8c1.5 4.58 5.86 8.18 5.71 13.71.26 1.33.47 2.68.63 4.05 1.24 8.34 0 16.49-2.67 24.83l-.04-.02Z" />
        <path fill="#4F5156"
            d="M126.02 73.21c11.89 10.61 10.71 29.81.54 41.92a47.57 47.57 0 0 1-5.99 6.81c-5.48 5.09-12.09 8.39-19.23 7.81a20.52 20.52 0 0 1-4.34-.84c-7.32-3.07-12.2-6.75-15.15-10.87a19.4 19.4 0 0 1-2.34-4.26c-6.92-19.72 7.59-36.17 19.6-49.79a26.1 26.1 0 0 1 2.95-2.3 26.2 26.2 0 0 1 3.43-1.91c3.79-2.37 8.25 2.23 11.48 4.15 1.91 2.57 7.25 6.84 9.05 9.27v.01ZM17.2 44.1C8.66 38.29 60.94-3.83 64.79 12.07c-2.3 1.09-1 4.55 1.44 3.77 21.68-9.01 44.63-21.21 17.06 16.5 19.99-13.78.23 25.78-66.08 11.75l-.01.01Z" />
        <path fill="#CED2DB"
            d="M49.42 47.98S8.13 17.7 1.42 27.35C-5.29 37 13.01 80.61 31.4 74.27c18.39-6.34 18.02-26.28 18.02-26.28v-.01Z" />
        <path fill="#4F5156"
            d="M33.31 57.63c-.32-3.6-2.67-6.89-6.27-9.04C20.56 44.73 9.18 38.54 8.02 42c-1.64 4.86 8.94 26.76 19.34 24.15 5.27-1.32 6.26-5.11 5.96-8.52h-.01Z" />
        <path fill="#36353A"
            d="m49.02 93 .06 1.01c-4.09.28-8.21.32-12.33.14-4.11-.16-8.25-.55-12.39-1.1-2.88-.67-5.83-1.26-8.81-1.86a77.3 77.3 0 0 1-.75-7.34l.32.12c3.45 1.38 6.92 2.71 10.33 4.02 3.79 1.2 7.68 2.24 11.64 3.09 3.94.86 7.93 1.52 11.94 1.93l-.01-.01Zm7.77 15.53a111.34 111.34 0 0 1-11.35 4.82 135.2 135.2 0 0 1-11.88 3.69c-1.45.23-2.93.49-4.4.77a37.39 37.39 0 0 1-5.31-5.69c2.95-.04 5.9-.12 8.81-.19 3.96-.33 7.95-.84 11.94-1.56 3.97-.7 7.91-1.61 11.77-2.76l.44.91-.02.01ZM82.93 60.2l-8.22 5.25 2.15 3.37 8.22-5.24-2.15-3.37Z" />
        <path fill="#CED2DB"
            d="M70.64 185.99s50.88-15.32 63.75-16.67c12.87-1.34 5.22 28.24-2.71 33.28-7.93 5.04-77.23 15.27-61.04-16.61Z" />
        <path fill="#36353A"
            d="M110.05 144.94c-3.8 1.54-7.7 2.86-11.67 3.97a135.8 135.8 0 0 1-12.12 2.8c-3.21.29-6.48.67-9.76 1.06-13.72 1.68-28.41 3.68-42.06-1.32a12.75 12.75 0 0 1-4.04-2.41l-.01-.01a66.41 66.41 0 0 1-2.6-18.92c12.49 11.03 29.99 15.37 46.87 15.83 3.7.25 7.41.43 11.06.62 3.98-.05 8-.26 12.02-.68a107.2 107.2 0 0 0 11.95-1.88l.36.94Zm-12 15.67a110.87 110.87 0 0 1-12.02 4.3c-6.1.91-13.64 3.08-21.23 4.69-3.8.8-7.61 1.46-11.25 1.76-4.5 1.3-9.5.8-13.65-1.21a80.58 80.58 0 0 1-6.18-11.74c10.98 1.99 21.96 3.86 33.04 4.21 3.09.1 6.18.08 9.28-.07 3.1-.16 6.21-.46 9.33-.92 4.13-.44 8.25-1.11 12.31-2.03l.37 1.01Z" />
        <path fill="#DCDEE5"
            d="M52.86 138.92C43 158.45 29 179.45 34.98 203.31c2.51 2.54 6.15 3.96 10.2 4.67 3.04.53 6.31.66 9.5.56 3.19-.1 6.31-.44 9.05-.84 3.27-.24 8.27.76 8.27-2.24 5-21 5-44-7.72-62.37a14.52 14.52 0 0 0-11.42-4.17Z" />
    </g>
    <defs>
        <clipPath id="a">
            <path fill="#fff" d="M0 0h141.28v208.57H0z" />
        </clipPath>
    </defs>
</svg>