<svg xmlns="http://www.w3.org/2000/svg" fill="none" viewBox="0 0 202 219">
    <path fill="#CED2DB"
        d="M111.835 34.978s19.29-32.55 29.58-25.19c7 5 11.91 18.13 5.46 22.56s-2.81 19.78-2.81 19.78l-32.23-17.15ZM40.226 68.158s-37.29-16.92-40.04-5.15c-2.76 11.77 25.96 53.08 39.6 41.93 13.64-11.15.44-36.78.44-36.78Z" />
    <path fill="#4F5156"
        d="M126.195 43.138s4.69-16.19 11.96-16.27c7.27-.08-1.27 16.77 0 21.85 1.27 5.08-13.19-1.22-11.96-5.57v-.01ZM40.806 92.308c-1.37-3.71-4.35-6.58-8.05-7.95-6.65-2.47-18.16-6.18-18.1-2.27.09 5.51 15.68 25.9 23.69 20.63 4.06-2.68 3.75-6.9 2.46-10.4v-.01Z" />
    <path fill="#CED2DB"
        d="M83.755 216.638c-6.33.15-14.33.15-17.33-4.85-5-6 3-13 5.95-19.78a51.6 51.6 0 0 1 1.89-3.5c2.03-3.45 4.46-6.72 7.16-9.72 2-3 10-2 11 2 1.88 7.5.62 14.61-1.01 21.63-.33 1.41-.68 2.81-1.03 4.21-.96 3.16-.96 5.16-1.87 8.39-1.17 1.08-2.83 1.72-4.75 1.63l-.01-.01Z" />
    <path fill="#DCDEE5"
        d="M111.466 218.678c-6.73-1.14-19.27 2.28-19.27-5.71s4.56-15.97 5.59-24.4c.11-1.26.26-2.5.51-3.68.75-3.56 2.46-6.7 6.45-8.41 11.4-3.42 17.11 4.56 13.69 15.13v20.11c0 1.92-.78 3.66-2.04 4.91a6.92 6.92 0 0 1-4.92 2.04l-.01.01Z" />
    <path fill="#CED2DB"
        d="M173.286 216.848c-.94-.15-1.98-.21-3.09-.22-5.55-.05-12.66 1.09-15.26-2.22-.62-.79-.99-1.85-1.05-3.26.06-14.76-6.17-31.34 2.65-43.97.73-1.31 1.66-2.04 2.71-2.38 1.05-.34 2.24-.28 3.49-.02 3.45.79 5.93 2.49 7.79 4.76.93 1.14 1.71 2.41 2.37 3.79 3.9 12.46 9.11 27.39 5.27 41.29a6.725 6.725 0 0 1-4.89 2.22l.01.01Z" />
    <path fill="#DCDEE5"
        d="M191.466 217.778c-.93-.17-1.98-.24-3.09-.27-5.55-.13-12.67.91-15.22-2.43-.61-.8-.96-1.86-1-3.27.27-14.76-5.73-31.42 3.27-43.93.75-1.3 1.69-2.02 2.75-2.34 1.06-.32 2.24-.25 3.49.03 3.44.84 5.9 2.57 7.73 4.87.91 1.15 1.67 2.44 2.32 3.82 3.72 12.51 8.72 27.51 4.69 41.36-1.25 1.33-3 2.15-4.92 2.15l-.02.01Z" />
    <path fill="#DCDEE5"
        d="M200.176 150.748c-.85 4.01-2.02 7.9-3.51 11.64-7.73 22.96-29.03 34.28-51.49 37.15-4.76.61-9.57.84-14.3.72-2.51-.06-5-.22-7.45-.48-14-2-28-7-39.14-16.25a59.61 59.61 0 0 1-6.27-5.5 54.855 54.855 0 0 1-5.44-6.4c-13.15-22.85-24.15-52.85-13.15-78.85 9-22 38-23 59.02-20.25 4.59.31 9.13.78 13.64 1.45 9.34 1.8 18.34 3.8 27.03 6.07 1.4.45 2.8.92 4.18 1.41 2.84 1 5.64 2.1 8.4 3.31 1.08.33 2.15.7 3.2 1.12 3.7 1.41 7.23 3.28 10.31 5.51 3.97 2.88 7.22 6.38 9.22 10.38 2.32 4.91 4.1 10.07 5.31 15.36 2.58 11.12 2.72 22.77.44 33.61Z" />
    <path fill="#36353A"
        d="M173.616 107.598c-5.36 27.76-29.31 51.25-53.25 69.4-23.94 18.15-31.2 11.97-22.09 7.59 0 0 42.97-39.39 51.49-54.99 7.31-13.4 9.43-40.03 13.53-48.14 2.84 1 5.64 2.1 8.4 3.31 1.08.33 2.15.7 3.2 1.12.91 4.36.75 11.2-1.28 21.71ZM89.975 125.048s-7.55 39.6-14.19 43.12c-6.64 3.52 13.41 7.27 29.611-25.02 16.21-32.29-13.2-39.9-15.42-18.11v.01Z" />
    <path fill="#CED2DB"
        d="M142.426 153.778c-21.71 11.79-46.12 8.95-66.06-2.79a78.088 78.088 0 0 1-7.99-5.38c-8.8-6.65-16.37-15.13-21.95-24.83-7-12-10-26-9-40 4-43 57-59 91.3-39.18a71.569 71.569 0 0 1 15.35 10.52c9.17 8.02 16.05 18.79 20.07 30.5 1.19 3.47 2.13 7.03 2.8 10.63 4.28 23.03-2.51 47.44-24.52 60.53Z" />
    <path fill="#4F5156"
        d="M144.476 156.028c-22.29 12.11-47.36 9.19-67.83-2.86-.57-.33-1.13-.67-1.69-1.02-4.57-2.83-7.71-7.5-8.47-12.82-3.15-22.05 8.79-45.72 28.19-58.53 19.85-13.11 47.28-14.3 66.4-2.1 3.75 2.39 6.46 6.16 7.55 10.48.39 1.56.74 3.13 1.03 4.71 4.39 23.65-2.58 48.71-25.18 62.15v-.01ZM43.215 67.348c-10.23-1.47 18.26-62.26 28.7-49.66-1.59 1.98 1.1 4.53 2.95 2.76 15.52-17.61 30.78-38.65 22.57 7.33 11.92-21.16 11.53 23.06-54.21 39.57h-.01Z" />
    <path fill="#36353A"
        d="M145.176 199.538c-4.76.61-9.57.84-14.3.72h-.01s21.23-20.7 21.89-24.59c8.12-15.06 2.47 12.76-7.58 23.87ZM200.175 150.748s-6.1-32.16-11.43-38.06c-9.36-17.33 3.12-9.76 10.99 4.45 2.58 11.12 2.72 22.77.44 33.61ZM68.492 93.296c2.312-.913 3.035-4.568 1.615-8.163-1.42-3.596-4.445-5.771-6.757-4.858-2.312.913-3.034 4.568-1.614 8.163 1.42 3.596 4.445 5.771 6.756 4.858ZM123.926 67.725c2.159-.468 3.37-3.333 2.705-6.398-.665-3.066-2.955-5.172-5.114-4.703-2.158.468-3.369 3.333-2.704 6.399.665 3.065 2.954 5.17 5.113 4.702Z" />
    <path stroke="#232323" stroke-linecap="round" stroke-miterlimit="10" stroke-width="4"
        d="M114.426 137.778c6 4 16.88.89 16.44-9.56" />
</svg>