<svg xmlns="http://www.w3.org/2000/svg" fill="none" viewBox="0 0 226 138">
    <g clip-path="url(#a)">
        <path fill="#36353A"
            d="M189.66 65.64c1.75.52 3.69.4 5.52-.15a12 12 0 0 0 4.88-2.97 10.9 10.9 0 0 0 3.11-10.53l.2.43c-.55-.78-.97-1.54-1.4-2.26-.43-.71-.86-1.38-1.33-1.92-.47-.54-.96-.92-1.39-.99-.43-.09-.96.03-1.56.34l.28-.2a7.44 7.44 0 0 0-1.99 3.42c-.33 1.3-.3 2.67.13 3.85a5.07 5.07 0 0 0 2.47 2.67c.3.14.63.25.94.37l1.07.35a18.3 18.3 0 0 0 10.89-.12 17.3 17.3 0 0 0 7.35-4.64l2.03 1.9a20.08 20.08 0 0 1-8.54 5.36 21.06 21.06 0 0 1-12.5.11l-1.19-.39c-.42-.17-.85-.32-1.26-.51a7.73 7.73 0 0 1-3.8-4.15 9.7 9.7 0 0 1 2.62-10.14l.13-.12.16-.08a4.94 4.94 0 0 1 3.36-.52 5.12 5.12 0 0 1 2.73 1.86 16.6 16.6 0 0 1 1.53 2.29c.44.75.85 1.47 1.28 2.08l.14.2.06.23c.55 2.26.5 4.69-.13 6.94a15 15 0 0 1-3.39 6.05 19.97 19.97 0 0 1-5.55 4.21 24.06 24.06 0 0 1-6.91 2.33l.07-5.3h-.01Z" />
        <path fill="#DCDEE5"
            d="M202.75 99.11c-1.48 8.06-3.77 14.75-9.17 21.06a44.63 44.63 0 0 1-8.77 7.79 50.2 50.2 0 0 1-13.54 6.44 54.83 54.83 0 0 1-21.05 2.17c-4.49.02-9.04-.04-13.65-.18a493.7 493.7 0 0 1-14.04-.65c-4.53-.48-9.05-1.15-13.57-1.99-21.04-2.56-48.88-10.73-52.14-34.28a54.81 54.81 0 0 1-.3-13.76c.58-14.29 7.13-27.53 17.71-35.73a40.68 40.68 0 0 1 11.85-6.37c16.42-6.05 33.33-6.66 50.09-4.5a143.6 143.6 0 0 1 16.65 3.15c22.94 6.13 48.17 18.04 49.84 44.32.71 4.13.75 8.34.09 12.53Z" />
        <path fill="#36353A"
            d="M172.88 120.3a90.52 90.52 0 0 1-1.61 14.1 54.83 54.83 0 0 1-16.96 2.39c.1-.87.31-1.84.62-2.93 11.54-37.84-21.67-65.15-40.03-91.91 8.46 6.02 17.72 12.81 26.3 20.5a140.8 140.8 0 0 1 12.2 12.23c10.39 13.06 20.29 28.24 19.48 45.62Zm-77.3-40.68c1.15-11.6 2.59-24.56-4.4-36.06 14.74 2.79 19.81 19.02 25.62 31.32 2.63 7.62-2.98 15.72-10.33 17.62-6.34 1.13-12.97-4.01-10.9-12.87l.01-.01Zm65-34.97c-4.28-.96-7.23-1.52-11.34-1.28 5.57 8.18 12.5 14.58 15.93 23.37 3.88-4.35-.29-9.21-.83-13.44-.89-3.09-2.12-6.26-3.75-8.65h-.01Zm42.08 41.92c-6.97 12.41-13.32 24.44-21.45 35.11 11.37-.9 20.48-11.39 21.53-22.58.66-4.19.63-8.4-.08-12.53Z" />
        <path fill="#CED2DB"
            d="M118.78 25.79s31.67-20.69 37.67-9.55c4.08 7.58 2.69 21.52-5.06 22.66-7.75 1.13-11.24 16.51-11.24 16.51L118.79 25.8l-.01-.01Zm-78.55 7.05S2.94 15.92.19 27.69c-2.76 11.77 25.96 53.08 39.6 41.93 13.64-11.15.44-36.78.44-36.78Z" />
        <path fill="#4F5156"
            d="M128.06 39.45s11.36-12.46 17.91-9.32c6.55 3.14-8.54 14.49-9.64 19.6-1.1 5.11-11.3-6.92-8.27-10.28ZM40.81 56.99a13.54 13.54 0 0 0-8.05-7.95c-6.65-2.47-18.16-6.18-18.1-2.27.09 5.51 15.68 25.9 23.69 20.63 4.06-2.68 3.75-6.9 2.46-10.4v-.01Z" />
        <path fill="#CED2DB"
            d="M144.38 95.23a75.36 75.36 0 0 1-4.44 12.55c-4.26 9.28-10.38 17.56-18.04 23.79a129.9 129.9 0 0 1-13.89 3.46 39.53 39.53 0 0 1-11.67-2.99 75.76 75.76 0 0 0-9.42-1.06c-9.65 1.16-21.43 3.14-31.3.4-.21-.04-.41-.1-.61-.16l-.42-.33c-9.5-7.19-16.93-16.96-21.95-28.04a74.36 74.36 0 0 1-3.25-8.42l-.19-.58a83.22 83.22 0 0 1-3.65-32.94c1.18-13.84 6.79-27.02 15.66-37.89C69.24-9.83 121.79 7.6 138.42 43.55a71.35 71.35 0 0 1 6.5 17.44c2.7 11.09 2.36 23-.54 34.24Z" />
        <path fill="#4F5156"
            d="M130.89 126.36c-5.43 4.64-19.33 9.22-20.49 9.48-20.49 4.48-48.79 1.33-64.53-10.86-19.21-14.88-17.42-44.39 2.85-57.78C75.86 49.29 121.94 55.15 138 81.8c8.75 14.51 5.77 33.55-7.11 44.56ZM116.47 11.38c7.07 7.54-53.18 37.18-53.44 20.82 2.48-.56 1.97-4.22-.57-4-23.12 4.04-48.19 10.92-13.03-19.83-22.53 9.06 5.42-25.21 67.05 3.01h-.01ZM54.4 50.98l-11.33 3.95 1.32 3.78 11.33-3.95-1.31-3.78Zm64.32 2.78-11.43-3.64-1.21 3.8 11.43 3.65 1.21-3.81Z" />
        <path fill="#CED2DB"
            d="M52.86 105.15c5.81 3.51 18.33 6.21 15.89 11.73-2.44 5.52-9.05 9.2-12.56 14.62-.49.83-1 1.62-1.59 2.34-1.77 2.16-4.3 3.64-8.47 3.21a24.4 24.4 0 0 1-3.9-1.09 17 17 0 0 1-3.14-1.54c-11.69-8.59-.69-26.59 11.12-30 .87.09 1.77.33 2.65.72v.01Z" />
        <path fill="#DCDEE5"
            d="M214.85 116.34c-.19.92-.31 1.96-.41 3.07-.48 5.53-.21 12.69-2.84 15.06-.63.57-1.43.86-2.47.83-10.82-1.02-23.48 4.11-32.04-5.51a4.67 4.67 0 0 1-1.53-2.86 9.17 9.17 0 0 1 .27-3.48c.85-3.39 2.3-5.75 4.11-7.46a14.1 14.1 0 0 1 2.97-2.11c9.45-3.08 20.82-7.3 30.71-2.56a8.05 8.05 0 0 1 1.24 5.02h-.01Z" />
        <path fill="#36353A"
            d="M225.95 52.38c-.01.48-.3.9-.7 1.1l-3.32 1.7c-.19.1-.38.16-.58.2a2.74 2.74 0 0 1-3.94-3.03c1.99-1.92 1.99-5.92 5.99-4.92 2 1-3 4 1.31 3.62.71.02 1.27.62 1.24 1.33Z" />
        <path fill="#CED2DB"
            d="M113.5 106.46c6.58-1.67 17.29-8.69 19.51-3.07 2.22 5.61.2 12.9 1.59 19.21.25.93.45 1.85.55 2.78.29 2.78-.42 5.62-3.66 8.29-9.66 6.6-17.18 3.08-16.93-5.61l-.88-2.23-.93-2.37-3.77-9.55a4.7 4.7 0 0 1 .53-4.2 8.24 8.24 0 0 1 4.01-3.24l-.02-.01Z" />
    </g>
    <defs>
        <clipPath id="a">
            <path fill="#fff" d="M0 0h225.95v137.78H0z" />
        </clipPath>
    </defs>
</svg>