<svg xmlns="http://www.w3.org/2000/svg" fill="none" viewBox="0 0 238 137">
    <g clip-path="url(#a)">
        <path fill="#CED2DB"
            d="M225.01 78.41c-.97 8.74-5.71 15.59-11.49 21.47l-.51.53c-16 15-37 22-58.55 21.58a65.06 65.06 0 0 1-8.64-.76c-10.4-1.47-20.47-5.82-29.1-12.14-.57-.42-1.15-.84-1.71-1.29a68.1 68.1 0 0 1-7.51-6.79c-6.48-6.81-11.47-14.87-14.19-23.54.34-4.19.97-8.54 1.98-12.82.72-4.24 6.72-5.24 7.72-8.24 9-30 35-49 65.69-43.51 3.62.67 7.28 1.74 10.87 3.13 2.4.92 4.75 1.97 7.06 3.14 14.06 7.39 27.51 19.43 34.23 34.2a46.77 46.77 0 0 1 4.15 25.04ZM17.79 112.27c.34-.97.59-2.09.8-3.27 1.02-5.93.91-13.76 5.24-15.92a6.91 6.91 0 0 1 4-.51c17.29 2.82 37.81-.77 51.08 11.03a5.29 5.29 0 0 1 2.32 3.35 6.88 6.88 0 0 1-.58 3.74 14.7 14.7 0 0 1-6.93 7.46 22.83 22.83 0 0 1-4.85 1.83c-15.28 1.85-33.68 4.65-49.32-2.05a7.02 7.02 0 0 1-1.76-5.65v-.01Z" />
        <path fill="#CED2DB"
            d="M167.76 14.05S133.3-8.06 128.88 3.2c-4.42 11.25 18.06 56.26 33.16 47.18 15.11-9.08 5.72-36.33 5.72-36.33Z" />
        <path fill="#DCDEE5"
            d="M181.36 90.68c-1.48 8.06-3.77 14.75-9.17 21.06a44.63 44.63 0 0 1-8.77 7.79 50.2 50.2 0 0 1-13.54 6.44 54.83 54.83 0 0 1-21.05 2.17c-4.49.02-9.04-.04-13.69-.07-26.13.34-60.13 7.34-75.13-19.66-11-19-6-43 5.68-59.83a42.84 42.84 0 0 1 7.15-7.03 40.68 40.68 0 0 1 11.85-6.37c16.42-6.05 33.33-6.66 50.09-4.5a143.6 143.6 0 0 1 16.65 3.15c22.94 6.13 48.17 18.04 49.84 44.32.71 4.13.75 8.34.09 12.53Z" />
        <path fill="#36353A"
            d="M151.49 111.87a90.52 90.52 0 0 1-1.61 14.1 54.83 54.83 0 0 1-16.96 2.39c.1-.87.31-1.84.62-2.93 11.54-37.84-21.67-65.15-40.03-91.91 8.46 6.02 17.72 12.81 26.3 20.5a140.8 140.8 0 0 1 12.2 12.23c10.39 13.06 20.29 28.24 19.48 45.62ZM74.9 69.1c1.18-11.52.82-23.49-5.11-33.97 8.57 2.15 15.19 8.92 19.58 17.1a44.86 44.86 0 0 1 3.86 31.64c-3.79 15.74-10.73 38.55-25.22 31.54-3.33-6.71 7.75-26.29 6.83-39.15-.17-2.39-.18-4.78.06-7.17v.01Zm64.29-32.88c-4.28-.96-7.23-1.52-11.34-1.28 5.57 8.18 12.5 14.58 15.93 23.37 3.88-4.35-.29-9.21-.83-13.44-.89-3.09-2.12-6.26-3.75-8.65h-.01Zm28.98.99c-4.16-1.8-9.16-.8-14.16-2.8 2.25 2 4.44 4.06 6.61 6.14s4.33 4.17 6.52 6.23c4.88 3.62 8.88 8.62 13.88 12.62 1-6-2-10-5.56-12.99a59.3 59.3 0 0 0-7.27-9.21l-.02.01Zm13.1 40.94c-6.97 12.41-13.32 24.44-21.45 35.11 11.37-.9 20.48-11.39 21.53-22.58.66-4.19.63-8.4-.08-12.53Z" />
        <path fill="#CED2DB"
            d="M192.46 25.13s42.75-7.67 44.79 7.01c1.39 9.98-5.73 24.29-14.61 21.95-8.88-2.34-18.86 12.54-18.86 12.54l-11.33-41.5h.01Z" />
        <path fill="#4F5156"
            d="M225.01 78.41c-.97 8.74-5.71 15.59-11.49 21.47-9.38-14.6-6.55-34.78 7.34-46.51a46.77 46.77 0 0 1 4.15 25.04Z" />
        <path fill="#DCDEE5"
            d="M212.52 107.38c-.25 1-.41 2.13-.52 3.34-.56 6.02.04 13.83-3.82 16.34-.93.6-2.11.9-3.66.84-16.15-1.42-34.86 3.82-47.88-6.9a5.2 5.2 0 0 1-2.36-3.16 7.31 7.31 0 0 1 .3-3.78 14.83 14.83 0 0 1 5.92-8.02c1.33-.9 2.8-1.63 4.36-2.22 13.99-3.09 30.8-7.37 45.67-1.94a7.3 7.3 0 0 1 1.99 5.51v-.01Z" />
        <path fill="#36353A"
            d="M37.54 76.09c-.38-.48-1-1.04-1.57-1.48-.59-.47-1.22-.88-1.86-1.26-1.3-.74-2.7-1.3-4.12-1.57-2.85-.57-5.73.26-7.56 2.5a12.6 12.6 0 0 0-2.18 3.84A25.84 25.84 0 0 0 19 82.57c-.11.74-.2 1.49-.17 2.18.02.69.13 1.36.37 1.81.25.44.53.65.98.75.46.08 1.08 0 1.7-.21a8.08 8.08 0 0 0 3.34-2.38c.44-.53.8-1.1 1-1.67.21-.56.25-1.09.17-1.78a11.72 11.72 0 0 0-1.43-4.05 19.37 19.37 0 0 0-2.66-3.65 16.18 16.18 0 0 0-7.48-4.72c-2.83-.8-5.86-.51-8.59.69A1.39 1.39 0 0 1 5.11 67h.01a16.62 16.62 0 0 1 5.13-1.3 15.2 15.2 0 0 1 5.29.51 19 19 0 0 1 8.76 5.52 21.73 21.73 0 0 1 3.04 4.2A14.38 14.38 0 0 1 29.08 81c.12.92.04 2.05-.33 3.01a8.48 8.48 0 0 1-1.49 2.47 10.6 10.6 0 0 1-4.54 3.14c-.91.3-1.95.49-3.08.26a4.03 4.03 0 0 1-2.72-2.14 6.45 6.45 0 0 1-.6-2.91c-.02-.93.11-1.8.24-2.66.31-1.71.77-3.29 1.37-4.9.61-1.6 1.42-3.18 2.56-4.59a10.38 10.38 0 0 1 4.44-3.23 12.5 12.5 0 0 1 5.43-.63c1.79.16 3.52.56 5.2 1.08.85.25 1.67.56 2.51.86.85.33 1.62.61 2.57 1.06l.23.11a2.75 2.75 0 1 1-3.34 4.18l.01-.02Z" />
        <path fill="#36353A"
            d="M.09 69.08c.17.45.58.75 1.02.81l3.69.51c.21.03.41.03.61 0a2.78 2.78 0 0 0 3.07-2.09c.16-.68.06-1.43-.34-2.07-2.51-1.16-3.83-4.93-7.27-2.67-1.56 1.6 4.15 2.79-.05 3.85-.66.25-1 1-.73 1.66Z" />
        <path fill="#DCDEE5"
            d="M35.04 128.13c.28-.99.47-2.12.6-3.31.68-5.98.11-13.79 4.3-16.2a6.86 6.86 0 0 1 3.96-.74c17.42 1.8 37.7-2.97 51.64 8.03a5.26 5.26 0 0 1 2.51 3.21 6.87 6.87 0 0 1-.36 3.76 14.7 14.7 0 0 1-6.48 7.85 22.61 22.61 0 0 1-4.74 2.11c-15.15 2.74-33.35 6.61-49.35.83a7.02 7.02 0 0 1-2.08-5.54Z" />
        <path fill="#4F5156"
            d="M195.7 20.87c7.07 7.54-53.18 37.18-53.44 20.82 2.48-.56 1.97-4.22-.57-4-23.12 4.04-48.19 10.92-13.03-19.83-22.53 9.06 5.42-25.21 67.05 3.01h-.01Z" />
    </g>
    <defs>
        <clipPath id="a">
            <path fill="#fff" d="M0 0h237.43v136.67H0z" />
        </clipPath>
    </defs>
</svg>