<svg xmlns="http://www.w3.org/2000/svg" fill="none" viewBox="0 0 259 259">
    <g clip-path="url(#a)">
        <path fill="#CED2DB"
            d="M201.78 227.95c-.04.58-.08 1.15-.14 1.72C188 258 151 254 124.63 252.25c-4.41-.06-9.09-.3-13.75-.82-6.81-.75-13.57-2.13-19.3-4.47h-.01c-4.44-1.82-8.26-4.21-11.03-7.35A18.5 18.5 0 0 1 78 236a32.58 32.58 0 0 1-4.99-14.85A43.87 43.87 0 0 1 75 204.56c4.31-14.15 14.67-27.94 26-37.56 10.12-9 21.8-11.53 33.21-9.74 3.83.61 7.64 1.7 11.37 3.2 22.97 10.85 44.68 28.31 54.03 53.08a74.81 74.81 0 0 1 1.62 4.79c.56 3.24.74 6.45.55 9.62ZM72.68 92.81s-31.87-25.71-37.48-15c-5.61 10.71 11.85 57.89 27.85 50.5 16-7.39 9.63-35.5 9.63-35.5Z" />
        <path fill="#4F5156"
            d="M67.21 116.33a13.5 13.5 0 0 0-5.8-9.71c-5.82-4.06-16.04-10.53-16.96-6.72-1.29 5.35 8.7 29 17.78 25.9 4.6-1.58 5.36-5.74 4.98-9.46v-.01Z" />
        <path fill="#CED2DB"
            d="M140.19 85.24s15.72-37.81 25.77-31.08c10.05 6.73 17.22 56.52-.36 57.67-17.59 1.15-25.4-26.59-25.4-26.59h-.01Z" />
        <path fill="#4F5156"
            d="M156.24 103.3a13.56 13.56 0 0 1 .46-11.31c3.18-6.35 9.06-16.91 11.69-14 3.69 4.09 6.2 29.64-3.26 31.24-4.79.81-7.44-2.49-8.89-5.93Z" />
        <path fill="#DCDEE5"
            d="M143.48 211.25c-23.97 5.98-46.89-2.87-63.26-19.22a78.52 78.52 0 0 1-6.39-7.21 83.24 83.24 0 0 1-15.04-29.53c-3.78-13.37-3.18-27.67 1.29-40.98 14.63-40.63 69.95-42.87 98.2-15.1a71.85 71.85 0 0 1 12.23 14.03c6.87 10.06 10.84 22.21 11.8 34.55.28 3.66.3 7.34.05 10.99-1.62 23.37-14.3 45.3-38.88 52.47Z" />
        <path fill="#4F5156"
            d="M123.12 218.37c-23.3-2.22-46.5-17.28-55.49-39.29-3.17-8.66-.27-17.12 3.76-24.71a48.27 48.27 0 0 1 4.11-6.2 40.98 40.98 0 0 1 18.33-13.41 85.33 85.33 0 0 1 10.46-4.16c29.05-9.44 65.94-5.17 77 23.22 9.43 24.34-12.86 48.28-35.88 59.32a73.38 73.38 0 0 1-9.82 3.9 42.13 42.13 0 0 1-12.47 1.34v-.01Z" />
        <path fill="#36353A"
            d="M87.04 134.18c2.46-.3 4.08-3.66 3.6-7.5-.47-3.83-2.86-6.7-5.33-6.39-2.46.3-4.08 3.66-3.6 7.5s2.86 6.7 5.33 6.4Zm64.28-16.38c.12-3.14-1.57-5.75-3.78-5.83-2.2-.1-4.1 2.38-4.21 5.52-.13 3.13 1.56 5.74 3.77 5.83 2.2.08 4.1-2.39 4.22-5.52Z" />
        <path stroke="#232323" stroke-linecap="round" stroke-miterlimit="10" stroke-width="4"
            d="M120.37 188.75c4.81 5.37 16.12 5.08 18.31-5.14" />
        <path fill="#4F5156"
            d="M68.7 81.35c6.79 22.31 34.74 20.58 53.65 16.03 4-1.12 7.77-2.54 11.29-4.24 2.84-1.97 4.26-4.18 4.68-6.53 2.06-11.7-21.07-27.05-27.1-29.86-7.24-3.38.48 7.82.48 7.82S79.4 51.98 77.63 43.53c-1.77-8.45-8.1 2.96-2.74 13.65 5.36 10.69 8.92 11.47 8.92 11.47s-9.71-3.11-16.57-1.33c-6.86 1.78-14.37 6.78-9.88 6.74 3.18-.03 8.98 3.52 11.34 7.3v-.01Z" />
        <path fill="#36353A"
            d="M127.98 227.22c-3 .89-6.16 1.27-9.3 1.42-3.15.14-6.31.04-9.45-.19a146.43 146.43 0 0 1-18.66-2.85 245.18 245.18 0 0 1-17.56-4.45A43.87 43.87 0 0 1 75 204.56a237.7 237.7 0 0 0 19.1 10.98c5.3 2.72 10.72 5.2 16.32 7.2 2.79.98 5.63 1.85 8.53 2.5 2.9.64 5.86 1.06 8.87.99l.16.99Zm-15.31 10.68a39.67 39.67 0 0 1-8.15 4.69 80 80 0 0 1-8.89 3.24c-1.34.4-2.7.78-4.05 1.13h-.01c-4.44-1.82-8.26-4.21-11.03-7.35a131 131 0 0 0 14.14.47c2.96-.1 5.92-.32 8.86-.76a37.56 37.56 0 0 0 8.62-2.28l.51.86Zm89.11-9.95a89.08 89.08 0 0 1-29.3 2.53c-3.01-.23-6-.6-8.99-1.28l-.07-.99c5.6-2.22 11.08-4.17 16.44-6.23a250.96 250.96 0 0 0 15.52-6.39 103.5 103.5 0 0 0 4.23-2.05 74.81 74.81 0 0 1 1.62 4.79c.56 3.24.74 6.45.55 9.62Z" />
        <path fill="#DCDEE5"
            d="M189.33 221.98c32.29-1.28 49.9-34.25 37.4-62.46a76.5 76.5 0 0 1 1.02-8.59c3.4-10.14 2.03-17.97-7.55-21.93-9.95-1.48-20.63 2.01-18.62 22.65a31.79 31.79 0 0 0-9.38-2.34 29.96 29.96 0 0 0-8.9.56 34.44 34.44 0 0 0-8.23 2.91c-12.22 8.35-19.46 24.43-19.66 39.51-.05 3.77.35 7.48 1.29 10.95 2.72 4.31 5.66 8.6 9.53 11.99a26.87 26.87 0 0 0 6.58 4.29 27.93 27.93 0 0 0 8.58 2.28c2.57.24 5.22.31 7.95.19l-.01-.01Z" />
        <path fill="#12722F"
            d="M129.5 259a128.86 128.86 0 0 1-72.69-22.32A129.47 129.47 0 0 1 0 129.5C0 58.09 58.09 0 129.5 0S259 58.09 259 129.5c0 25.01-7.14 49.28-20.65 70.19a129.76 129.76 0 0 1-53.54 46.93A128.33 128.33 0 0 1 129.5 259Zm0-247C64.71 12 12 64.71 12 129.5A117.5 117.5 0 0 0 129.5 247c17.56 0 34.44-3.78 50.18-11.22a117.77 117.77 0 0 0 48.59-42.6A117.12 117.12 0 0 0 247 129.5C247 64.71 194.29 12 129.5 12Z" />
    </g>
    <defs>
        <clipPath id="a">
            <path fill="#fff" d="M0 0h259v259H0z" />
        </clipPath>
    </defs>
</svg>