<svg xmlns="http://www.w3.org/2000/svg" fill="none" viewBox="0 0 72 80">
    <path fill="#000"
        d="M30.58 24.16h13.73l-5.62-5.61-.02-.03h-7.22A9.28 9.28 0 0 0 30.58 0v18.55L15.16 3.17a27.39 27.39 0 0 0-4.8 3.17l14.59 14.54V52.8l11.27 11.27V56.1l-5.64-5.63V24.16Z" />
    <path fill="#000"
        d="m36.22 24.2-.03 27.2h5.63l.03-21.55-5.63-5.66Zm13.7 5.66 5.63 5.63h-8.07l-5.63-5.63h8.07ZM19.31 47.5V23.26L6.37 10.32a28.06 28.06 0 0 0-3.18 4.8l10.49 10.47v7.97L.96 20.84c-.6 2.24-.94 4.6-.96 7.01L19.3 47.5Zm28.18-12 5.63 5.64v10.3H47.5V35.5Zm16.91 8.82h-5.64v7.13h-5.64a9.28 9.28 0 1 0 18.56 0l-7.29-7.13ZM.1 43.89v-7.97l36.12 36.11V80L.1 43.89Z" />
</svg>