<svg xmlns="http://www.w3.org/2000/svg" fill="none" viewBox="0 0 80 32">
    <path fill="#000"
        d="M13.935 25.611V28L3.095 17.16v-2.389l10.84 10.84ZM12.24 4a2.78 2.78 0 0 1 2.785 2.785 2.788 2.788 0 0 1-2.525 2.772h2.17l1.693 1.692h-4.123v7.89l1.707 1.694v2.389l-3.386-3.386v-9.583L6.18 5.883c.232-.19.464-.368.723-.531a7.36 7.36 0 0 1 .71-.41l4.628 4.628V4Zm10.144 13.297 2.184 2.143a2.78 2.78 0 0 1-2.785 2.786A2.78 2.78 0 0 1 19 19.44h1.693v-2.143h1.693Zm-3.386-.955v3.098H17.32v-4.792L19 16.342Zm-3.372-3.386-.014 6.47h-1.692l.014-8.177 1.692 1.707ZM8.855 10.99v7.263c-.19-.205-5.788-5.899-5.815-5.899.014-.723.11-1.432.287-2.101l3.822 3.822v-2.39l-3.14-3.14c.274-.504.587-.982.956-1.433l3.89 3.878Zm10.881 3.658h-2.43l-1.679-1.692h2.417l1.692 1.692ZM31.197 19.734h4.546l-1.27 2.417H26.57l5.147-9.871h-4.56l1.27-2.416h7.904l-5.133 9.87Zm13.188-7.455H40.33v2.5h4.055v2.416H40.33v2.539h4.055v2.417h-7.03V9.864h7.03v2.415Zm15.468-2.415c1.625 0 2.799.3 3.604.915.846.668 1.324 1.76 1.324 3.112 0 1.884-.791 3.112-2.375 3.74l2.703 4.506h-3.577l-2.69-4.751v4.765h-2.961V9.864h3.972Zm13.12 0L77 22.15h-3.235l-.751-2.417h-3.987l-.764 2.417h-3.14l4.055-12.287h3.795Zm-22.922 0c1.57 0 2.47.163 3.126.586.846.52 1.365 1.57 1.365 2.745 0 .86-.273 1.583-.833 2.13-.355.368-.628.532-1.283.723.75.164 1.092.328 1.474.696.546.52.833 1.23.833 2.13 0 1.147-.464 2.156-1.255 2.689-.615.41-1.339.574-2.594.574h-5.025V9.85h4.192v.014Zm-1.215 10.143h1.092c1.256 0 1.788-.423 1.788-1.42 0-.587-.219-1.01-.67-1.256-.327-.177-.627-.218-1.527-.218h-.683v2.894Zm20.956-2.69h2.457l-1.228-3.931-1.229 3.932ZM58.87 15.735h.956v-.014c1.215 0 1.952-.628 1.952-1.692 0-1.01-.724-1.707-1.761-1.707H58.87v3.413Zm-10.034-.779h.737c1.365 0 1.938-.422 1.939-1.432 0-.997-.574-1.42-1.966-1.42h-.71v2.852Z" />
</svg>