<svg xmlns="http://www.w3.org/2000/svg" viewBox="0 0 93.66 34.21">
   <g fill="#fff" aria-label="Zebra Design System Web Components">
      <path d="M.41 8v-.83L4.91.89H.41V0h5.78v.83L1.68 7.11h4.59V8H.41Z" />
      <path fill-rule="evenodd"
         d="M.766 32.002v-8.004H6.01v.888H1.762v2.58h4.164v.888H1.762v3.648zM7.33 32.002v-8.004h.9v8.004zM13.942 32.002v-.816q-.336.384-.876.672-.54.288-1.188.288-.912 0-1.38-.444-.468-.456-.468-1.404v-4.092h.9v3.816q0 .384.084.636.096.252.264.408.18.156.42.216t.528.06q.528 0 .996-.264.468-.264.72-.612v-4.26h.9v5.796zM18.106 32.146q-.648 0-.972-.348-.312-.36-.312-1.008v-3.792h-.96v-.792h.96v-1.584h.9v1.584h1.176v.792h-1.176v3.6q0 .324.144.54.144.204.444.204.192 0 .348-.072.168-.072.264-.168l.264.672q-.168.168-.432.264-.252.108-.648.108zM21.634 32.146q-.648 0-.972-.348-.312-.36-.312-1.008v-3.792h-.96v-.792h.96v-1.584h.9v1.584h1.176v.792H21.25v3.6q0 .324.144.54.144.204.444.204.192 0 .348-.072.168-.072.264-.168l.264.672q-.168.168-.432.264-.252.108-.648.108zM26.314 32.146q-.648 0-1.188-.216-.54-.228-.936-.624-.384-.408-.612-.96-.216-.564-.216-1.248 0-.624.216-1.176.216-.564.588-.972.384-.408.9-.648.528-.24 1.152-.24.66 0 1.176.24.516.24.876.66.36.42.54.996.192.564.192 1.212v.228H24.31q.024.408.18.78.156.36.42.636.276.264.648.432.372.156.84.156.504 0 .972-.192.468-.192.816-.54l.432.588q-.432.432-1.008.66-.576.228-1.296.228zm1.8-3.408q0-.324-.12-.66-.108-.348-.348-.624-.228-.288-.588-.468-.36-.18-.852-.18-.468 0-.816.18-.348.18-.588.456-.228.276-.36.624-.12.336-.132.672zM30.454 32.002v-5.796h.9v.936q.348-.456.84-.756t1.092-.3v.924q-.168-.036-.36-.036-.204 0-.444.084-.228.072-.456.204-.216.132-.396.3-.18.156-.276.336v4.104z" />
      <path
         d="M7.42 5.1c0-1.68 1.2-3.03 2.85-3.03 1.75 0 2.78 1.37 2.78 3.11v.23H8.37c.07 1.09.83 2 2.08 2 .67 0 1.33-.26 1.8-.74l.43.59c-.59.58-1.37.9-2.3.9-1.73 0-2.96-1.24-2.96-3.05Zm2.84-2.29c-1.24 0-1.85 1.04-1.9 1.92h3.8c-.01-.85-.59-1.92-1.91-1.92ZM14.51 8V0h.9v3.08c.47-.63 1.18-1.02 1.96-1.02 1.52 0 2.58 1.19 2.58 3.05s-1.07 3.03-2.58 3.03c-.82 0-1.52-.42-1.96-1.01v.86h-.9Zm2.64-.66c1.16 0 1.86-.95 1.86-2.23s-.7-2.24-1.86-2.24c-.72 0-1.43.43-1.74.94v2.63c.31.5 1.02.91 1.74.91ZM21.41 8V2.21h.9v.92c.47-.6 1.14-1.06 1.93-1.06v.92c-.11-.01-.22-.02-.35-.02-.56 0-1.32.46-1.58.92v4.1h-.9ZM28.99 8v-.66c-.47.53-1.14.8-1.92.8-.97 0-2.01-.66-2.01-1.92s1.03-1.91 2.01-1.91c.79 0 1.45.25 1.92.78V4.05c0-.77-.62-1.21-1.46-1.21-.7 0-1.26.24-1.77.8l-.42-.62c.62-.65 1.37-.96 2.31-.96 1.24 0 2.24.55 2.24 1.95v3.98h-.9Zm0-1.22v-1.1c-.35-.47-.96-.71-1.58-.71-.85 0-1.44.53-1.44 1.26s.59 1.27 1.44 1.27c.62 0 1.24-.24 1.58-.72ZM.62 20v-8h3.15c2.51 0 4.25 1.6 4.25 4.01S6.28 20 3.77 20H.62Zm1.7-1.5h1.45c1.58 0 2.51-1.14 2.51-2.5s-.86-2.51-2.51-2.51H2.32v5ZM11.83 14.06c1.73 0 2.9 1.29 2.9 3.19v.34h-4.31c.1.73.68 1.34 1.67 1.34.54 0 1.18-.22 1.55-.58l.67.98c-.59.54-1.49.8-2.39.8-1.76 0-3.09-1.19-3.09-3.05 0-1.68 1.24-3.03 3-3.03Zm-1.43 2.49h2.85c-.04-.55-.42-1.28-1.43-1.28-.95 0-1.36.71-1.43 1.28ZM16 18.18c.42.4 1.28.79 2 .79.66 0 .97-.23.97-.59 0-.41-.5-.55-1.16-.68-1-.19-2.28-.43-2.28-1.81 0-.97.85-1.82 2.37-1.82.98 0 1.76.33 2.33.79l-.6 1.04c-.35-.37-1.01-.67-1.71-.67-.55 0-.91.2-.91.54 0 .36.46.49 1.1.62 1 .19 2.33.46 2.33 1.9 0 1.07-.9 1.86-2.51 1.86-1.01 0-1.98-.34-2.59-.9l.66-1.07ZM21.41 12.44c0-.5.42-.91.91-.91s.91.41.91.91-.41.91-.91.91-.91-.41-.91-.91Zm.16 7.56v-5.79h1.52V20h-1.52ZM25.16 20.38c.47.52 1.08.72 1.81.72s1.6-.32 1.6-1.46v-.59c-.46.58-1.08.91-1.79.91-1.45 0-2.55-1.02-2.55-2.95s1.09-2.95 2.55-2.95c.7 0 1.32.3 1.79.89v-.74h1.54v5.4c0 2.21-1.7 2.75-3.13 2.75-1 0-1.77-.23-2.49-.86l.68-1.1Zm3.41-4.31c-.25-.38-.8-.66-1.31-.66-.86 0-1.46.6-1.46 1.6s.6 1.59 1.46 1.59c.5 0 1.06-.29 1.31-.66v-1.87ZM35.53 20v-3.5c0-.8-.42-1.08-1.07-1.08-.6 0-1.07.34-1.32.68V20h-1.52v-5.79h1.52v.76c.37-.44 1.08-.9 2.03-.9 1.27 0 1.88.72 1.88 1.85v4.09h-1.52ZM42.06 17.58c.56.59 1.44 1.08 2.54 1.08.94 0 1.39-.44 1.39-.9 0-.6-.7-.8-1.62-1.02-1.31-.3-2.99-.66-2.99-2.45 0-1.33 1.15-2.41 3.03-2.41 1.27 0 2.33.38 3.12 1.12l-.95 1.25c-.65-.6-1.51-.88-2.29-.88s-1.18.34-1.18.82c0 .54.67.71 1.6.92 1.32.3 3 .7 3 2.47 0 1.46-1.04 2.57-3.2 2.57-1.54 0-2.64-.52-3.39-1.27l.94-1.29ZM48.78 20.9c.13.06.34.1.48.1.4 0 .66-.11.8-.42l.22-.49-2.35-5.88h1.63l1.51 4.03 1.51-4.03h1.64l-2.72 6.74c-.43 1.09-1.2 1.38-2.19 1.4-.18 0-.56-.04-.76-.08l.23-1.37ZM55.07 18.18c.42.4 1.28.79 2 .79.66 0 .97-.23.97-.59 0-.41-.5-.55-1.16-.68-1-.19-2.28-.43-2.28-1.81 0-.97.85-1.82 2.37-1.82.98 0 1.76.33 2.33.79l-.6 1.04c-.35-.37-1.01-.67-1.71-.67-.55 0-.91.2-.91.54 0 .36.46.49 1.1.62 1 .19 2.33.46 2.33 1.9 0 1.07-.9 1.86-2.51 1.86-1.01 0-1.98-.34-2.59-.9l.66-1.07ZM60.93 18.56v-3.02h-.96v-1.33h.96v-1.58h1.54v1.58h1.18v1.33h-1.18v2.61c0 .36.19.64.53.64.23 0 .44-.08.53-.17l.32 1.15c-.23.2-.64.37-1.27.37-1.07 0-1.64-.55-1.64-1.58ZM67.32 14.06c1.73 0 2.9 1.29 2.9 3.19v.34h-4.31c.1.73.68 1.34 1.67 1.34.54 0 1.18-.22 1.55-.58l.67.98c-.59.54-1.49.8-2.39.8-1.76 0-3.09-1.19-3.09-3.05 0-1.68 1.24-3.03 3-3.03Zm-1.43 2.49h2.85c-.04-.55-.42-1.28-1.43-1.28-.95 0-1.36.71-1.43 1.28ZM78.51 20v-3.66c0-.54-.24-.92-.86-.92-.54 0-.98.36-1.2.67V20h-1.54v-3.66c0-.54-.24-.92-.86-.92-.53 0-.97.36-1.2.68V20h-1.52v-5.79h1.52v.76c.24-.35 1.01-.9 1.9-.9s1.39.4 1.61 1.05c.34-.53 1.1-1.05 1.99-1.05 1.07 0 1.7.56 1.7 1.75v4.19h-1.54Z" />
   </g>
</svg>