<svg xmlns="http://www.w3.org/2000/svg" fill="none" viewBox="0 0 348 374">
    <g clip-path="url(#a)">
        <g filter="url(#b)">
            <path fill="#34517D"
                d="m122.56 21.14 16.52 164.84c.67 6.67-3.81 16.51-9.83 21.7l10.27 104.3c1.57 13.68-2.54 19.67-20.15 24.63l-54.21 5.43c-13.98-.87-24.42-8.74-24.63-20.14L29.89 215.79c-6.76-3.69-12.76-12.19-13.43-18.91L.08 33.42C-.38 28.8 1.1 24.38 3.9 21.04c0 0 2.95-9.44 7.29-11.24 0 0 6.92-1.1 7.76-.78.84.32 1.86 1.67 2.46 2.02.6.34 2.73 2.01 6.53 1.33 1.84-.34 3.78-.67 5.8-1.01 7.34-1.21 15.87-2.37 25.63-3.35 13.53-1.36 24.81-1.89 33.87-2l-.32-.16c3.86-.09 5.62-2.15 6.14-2.6.52-.45 1.25-1.98 2.02-2.46.76-.48 7.76-.78 7.76-.78 4.62.91 10.84 12.07 10.84 12.07l-.25.93c1.69 2.32 2.8 5.11 3.11 8.15l.02-.02Z" />
            <path fill="#92999E"
                d="m104.23 17.27-20.42.51c-.67.02-1.32.19-1.9.51l-3.79 2.06c-.52.28-1.09.46-1.68.52l-31.18 3.12c-.62.06-1.24 0-1.82-.2l-3.78-1.24c-.66-.21-1.35-.26-2.03-.15l-20.35 3.57c-4.9.49-8.46 5.02-7.95 10.11l16.51 158.69c.51 5.09 4.9 8.82 9.8 8.33 0 0 10.1-1.43 42.84-4.71 32.73-3.28 42.92-3.88 42.92-3.88 4.9-.49 8.46-5.02 7.95-10.11L114.04 25.59c-.51-5.09-4.9-8.82-9.8-8.33l-.01.01Z" />
            <path fill="#3E4651"
                d="m103.627 41.364-80.975 8.11a2.65 2.65 0 0 0-2.373 2.902l13.987 139.631a2.65 2.65 0 0 0 2.9 2.372l80.975-8.11a2.65 2.65 0 0 0 2.373-2.901L106.528 43.736a2.65 2.65 0 0 0-2.901-2.372Z" />
            <path fill="#CFE8FD"
                d="m103.479 41.368-80.975 8.11a2.65 2.65 0 0 0-2.373 2.901l13.986 139.632a2.65 2.65 0 0 0 2.901 2.372l80.975-8.111a2.65 2.65 0 0 0 2.373-2.9L106.379 43.74a2.649 2.649 0 0 0-2.9-2.372Z" />
            <path fill="#fff"
                d="m103.49 41.37-80.98 8.12a2.656 2.656 0 0 0-2.37 2.9l97.88 133.89a2.656 2.656 0 0 0 2.37-2.9l-14-139.64a2.656 2.656 0 0 0-2.9-2.37Z"
                opacity=".2" />
            <path fill="#1E3147"
                d="M122.2 204.67a4.63 4.63 0 0 0-4.35-4.16c-4.99-.27-15.88-.16-38.96 2.16-23.08 2.31-33.77 4.36-38.61 5.62a4.63 4.63 0 0 0-3.44 4.94l11.4 113.76c.3 3.03 2.54 5.5 5.52 6.11 5.75 1.18 17.18 2.26 38.21.15s32.03-5.44 37.42-7.73c2.8-1.19 4.5-4.06 4.2-7.09l-11.4-113.76h.01Z" />
            <path fill="#93BED9"
                d="m89.633 205.311-20.757 2.079a6.26 6.26 0 1 0 1.248 12.458l20.756-2.08a6.26 6.26 0 1 0-1.248-12.457Z" />
            <path fill="#4C4D4F"
                d="m113.598 206.064-6 .601a3.459 3.459 0 1 0 .69 6.885l6-.601a3.459 3.459 0 0 0 3.097-3.788 3.459 3.459 0 0 0-3.787-3.097ZM92.5 308.376l-6 .601a3.46 3.46 0 0 0 .69 6.886l6-.601a3.46 3.46 0 0 0-.69-6.886Zm-23.803 2.39-6 .601a3.46 3.46 0 0 0 .69 6.886l6-.601a3.46 3.46 0 0 0-.69-6.886Zm48.395-4.848-6 .601a3.46 3.46 0 1 0 .69 6.885l6-.601a3.46 3.46 0 0 0-.69-6.885Zm-64.777-93.717-6 .601a3.46 3.46 0 1 0 .69 6.885l6-.601a3.46 3.46 0 1 0-.69-6.885Z" />
            <path fill="#D2D4D8"
                d="m58.603 224.419-6.22.623a2.897 2.897 0 0 0-2.596 3.169 2.898 2.898 0 0 0 3.174 2.592l6.219-.623a2.898 2.898 0 0 0 2.597-3.17 2.897 2.897 0 0 0-3.174-2.591Zm16.897-1.686-6.219.623a2.897 2.897 0 0 0-2.597 3.169 2.898 2.898 0 0 0 3.174 2.592l6.22-.623a2.898 2.898 0 0 0 2.596-3.17 2.897 2.897 0 0 0-3.174-2.591Zm16.908-1.696-6.22.623a2.897 2.897 0 0 0-2.596 3.169 2.898 2.898 0 0 0 3.174 2.592l6.219-.623a2.898 2.898 0 0 0 2.597-3.17 2.897 2.897 0 0 0-3.174-2.591Zm16.886-1.695-6.219.623a2.898 2.898 0 0 0-2.597 3.169 2.898 2.898 0 0 0 3.174 2.592l6.219-.623a2.897 2.897 0 0 0 2.597-3.17 2.897 2.897 0 0 0-3.174-2.591Z" />
            <path fill="#4C4D4F"
                d="m59.747 235.857-6.219.623a2.898 2.898 0 0 0-2.597 3.17 2.897 2.897 0 0 0 3.175 2.591l6.218-.623a2.897 2.897 0 0 0 2.597-3.169 2.898 2.898 0 0 0-3.174-2.592Zm16.908-1.686-6.22.623a2.898 2.898 0 0 0-2.596 3.17 2.897 2.897 0 0 0 3.174 2.591l6.219-.623a2.897 2.897 0 0 0 2.597-3.169 2.898 2.898 0 0 0-3.174-2.592Zm16.886-1.705-6.219.623a2.898 2.898 0 0 0-2.597 3.17 2.897 2.897 0 0 0 3.174 2.591l6.22-.623a2.897 2.897 0 0 0 2.596-3.169 2.898 2.898 0 0 0-3.174-2.592Zm16.898-1.686-6.219.623a2.897 2.897 0 0 0-2.597 3.17 2.896 2.896 0 0 0 3.174 2.591l6.219-.622a2.899 2.899 0 0 0 2.597-3.17 2.899 2.899 0 0 0-3.174-2.592Z" />
            <path fill="#D2D4D8"
                d="M69.83 254.47c.09.94-.52 1.81-1.44 2.03-1.4.34-3.87.8-8.01 1.22-4.14.41-6.65.45-8.09.4-.95-.04-1.72-.76-1.82-1.71l-.57-5.7a1.89 1.89 0 0 1 1.37-2.01c1.51-.43 4.16-1.04 8.07-1.43 3.91-.39 6.63-.32 8.19-.2.92.07 1.65.79 1.74 1.7l.57 5.7h-.01Zm23.8-2.39c.09.94-.52 1.81-1.44 2.03-1.4.34-3.87.8-8.01 1.22-4.14.41-6.65.45-8.09.4-.95-.04-1.72-.76-1.82-1.71l-.57-5.7a1.89 1.89 0 0 1 1.37-2.01c1.51-.43 4.16-1.04 8.07-1.43 3.91-.39 6.63-.32 8.19-.2.92.07 1.65.79 1.74 1.7l.57 5.7h-.01Zm24.59-2.46c.09.94-.52 1.81-1.44 2.03-1.4.34-3.87.8-8.01 1.22-4.14.41-6.65.45-8.09.4-.95-.04-1.72-.76-1.82-1.71l-.57-5.7a1.89 1.89 0 0 1 1.37-2.01c1.51-.43 4.16-1.04 8.07-1.43 3.91-.39 6.63-.32 8.19-.2.92.07 1.65.79 1.74 1.7l.57 5.7h-.01Zm-46.79 20.8c.09.94-.52 1.81-1.44 2.03-1.4.34-3.87.8-8.01 1.22-4.14.41-6.65.45-8.09.4-.95-.04-1.72-.76-1.82-1.71l-.57-5.7a1.89 1.89 0 0 1 1.37-2.01c1.51-.43 4.16-1.04 8.07-1.43 3.91-.39 6.63-.32 8.19-.2.92.07 1.65.79 1.74 1.7l.57 5.7h-.01Zm23.8-2.39c.09.94-.52 1.81-1.44 2.03-1.4.34-3.87.8-8.01 1.22-4.14.42-6.65.45-8.09.4-.95-.04-1.72-.76-1.82-1.71l-.57-5.7a1.89 1.89 0 0 1 1.37-2.01c1.51-.43 4.16-1.04 8.07-1.43 3.91-.39 6.63-.32 8.19-.2.92.07 1.65.79 1.74 1.7l.57 5.7h-.01Zm24.59-2.46c.09.94-.52 1.81-1.44 2.03-1.4.34-3.87.8-8.01 1.22-4.14.41-6.65.45-8.09.4-.95-.04-1.72-.76-1.82-1.71l-.57-5.7a1.89 1.89 0 0 1 1.37-2.01c1.51-.43 4.16-1.04 8.07-1.43 3.91-.39 6.63-.32 8.19-.2.92.07 1.65.79 1.74 1.7l.57 5.7h-.01Zm-46.79 20.79c.09.94-.52 1.81-1.44 2.03-1.4.34-3.87.8-8.01 1.22-4.14.41-6.65.45-8.09.4-.95-.04-1.72-.76-1.82-1.71l-.57-5.7a1.89 1.89 0 0 1 1.37-2.01c1.51-.43 4.16-1.04 8.07-1.43 3.91-.39 6.63-.32 8.19-.2.92.07 1.65.79 1.74 1.7l.57 5.7h-.01Zm23.8-2.38c.09.94-.52 1.81-1.44 2.03-1.4.34-3.87.8-8.01 1.22-4.14.41-6.65.45-8.09.4-.95-.04-1.72-.76-1.82-1.71l-.57-5.7a1.89 1.89 0 0 1 1.37-2.01c1.51-.43 4.16-1.04 8.07-1.43 3.91-.39 6.63-.32 8.19-.2.92.07 1.65.79 1.74 1.7l.57 5.7h-.01Zm24.59-2.47c.09.94-.52 1.81-1.44 2.03-1.4.34-3.87.8-8.01 1.22-4.14.42-6.65.45-8.09.4-.95-.04-1.72-.76-1.82-1.71l-.57-5.7a1.89 1.89 0 0 1 1.37-2.01c1.51-.43 4.16-1.04 8.07-1.43 3.91-.39 6.63-.32 8.19-.2.92.07 1.65.79 1.74 1.7l.57 5.7h-.01Zm-46.79 20.8c.09.94-.52 1.81-1.44 2.03-1.4.34-3.87.8-8.01 1.22-4.14.42-6.65.45-8.09.4-.95-.04-1.72-.76-1.82-1.71l-.57-5.7a1.89 1.89 0 0 1 1.37-2.01c1.51-.43 4.16-1.04 8.07-1.43 3.91-.39 6.63-.32 8.19-.2.92.07 1.65.79 1.74 1.7l.57 5.7h-.01Zm23.8-2.38c.09.94-.52 1.81-1.44 2.03-1.4.34-3.87.8-8.01 1.22-4.14.41-6.65.45-8.09.4-.95-.04-1.72-.76-1.82-1.71l-.57-5.7a1.89 1.89 0 0 1 1.37-2.01c1.51-.43 4.16-1.04 8.07-1.43 3.91-.39 6.63-.32 8.19-.2.92.07 1.65.79 1.74 1.7l.57 5.7h-.01Zm24.59-2.47c.09.94-.52 1.81-1.44 2.03-1.4.34-3.87.8-8.01 1.22-4.14.41-6.65.45-8.09.4-.95-.04-1.72-.76-1.82-1.71l-.57-5.7a1.89 1.89 0 0 1 1.37-2.01c1.51-.43 4.16-1.04 8.07-1.43 3.91-.39 6.63-.32 8.19-.2.92.07 1.65.79 1.74 1.7l.57 5.7h-.01Z" />
            <path fill="#84B6DD"
                d="m127.054 78.75-3.691.37a1.86 1.86 0 0 0-1.665 2.037l1.477 14.746a1.86 1.86 0 0 0 2.036 1.665l3.691-.37a1.86 1.86 0 0 0 1.666-2.036l-1.477-14.746a1.86 1.86 0 0 0-2.037-1.665ZM10.578 90.411l-3.692.37a1.86 1.86 0 0 0-1.665 2.036l1.477 14.746a1.86 1.86 0 0 0 2.036 1.665l3.691-.369a1.86 1.86 0 0 0 1.666-2.036l-1.477-14.747a1.86 1.86 0 0 0-2.037-1.665Z" />
        </g>
        <g filter="url(#c)">
            <path fill="#C2C4C9"
                d="M254.75 144.46c-5.58 54.22-22.3 216.89-22.3 216.89s-1.36 13.12-62.09 6.87c-60.73-6.24-59.39-19.36-59.39-19.36l22.3-216.89s-.52-5.32 4.91-8.42c7.18-4.1 23.92-5.93 57.59-2.47 30.47 3.13 45.88 8.06 53.5 12.48 6.91 4.01 5.47 10.9 5.47 10.9" />
            <path fill="#1E3147"
                d="M252.76 145.67c-5.45 53.04-21.82 212.18-21.82 212.18s-1.33 12.83-60.29 6.77c-58.96-6.06-57.65-18.9-57.65-18.9l21.82-212.18s-.5-5.2 4.77-8.24c6.98-4.01 23.23-5.82 55.92-2.46 29.59 3.04 44.54 7.85 51.94 12.17 6.71 3.91 5.31 10.66 5.31 10.66Z" />
            <path fill="#365A7E" d="M155.16 135.1a3.54 3.54 0 1 0 0-7.08 3.54 3.54 0 0 0 0 7.08Z" />
            <path fill="#92999E"
                d="m210.067 135.306-31.623-3.251a1.447 1.447 0 0 0-1.59 1.289 1.447 1.447 0 0 0 1.294 1.586l31.624 3.251a1.448 1.448 0 0 0 1.59-1.289 1.448 1.448 0 0 0-1.295-1.586Zm18.493 5.274a.6.6 0 1 0-.001-1.201.6.6 0 0 0 .001 1.201Zm6.3.94a1.03 1.03 0 1 0 0-2.06 1.03 1.03 0 0 0 0 2.06Z" />
            <path fill="#3D5D80" d="M155.03 133.48a1.99 1.99 0 1 0 0-3.98 1.99 1.99 0 0 0 0 3.98Z" />
            <path fill="#090A0D"
                d="m122.27 239.03-.8-1.23s-.02-.04-.01-.06l2.3-21.65s.01-.04.03-.06l.95-.83c.06-.05.15 0 .15.08l-2.45 23.71c0 .08-.12.11-.16.04h-.01Zm124.06-11.31.8 1.23s.02.04.01.06l-2.3 21.65s-.01.04-.03.06l-.95.83c-.06.05-.15 0-.15-.08l2.45-23.71c0-.08.12-.11.16-.04h.01Z" />
            <path fill="#BEDDFD"
                d="m128.36 181.05-1.1.7-2.66 25.93.9 1.23 2.86-27.86Zm118.49 40.34 1.11-.7 2.66-25.93-.9-1.23-2.87 27.86Z" />
            <path fill="#090A0D" d="m243.562 162.407-103.415-10.633-18.558 180.509 103.415 10.632 18.558-180.508Z" />
            <path fill="#CFE8FD" d="m243.562 162.407-103.415-10.633-18.558 180.509 103.415 10.632 18.558-180.508Z" />
            <path fill="#fff" d="m224.99 342.92-84.85-191.14 103.41 10.63-18.56 180.51Z" opacity=".2" />
        </g>
        <g filter="url(#d)">
            <path fill="#fff"
                d="M284.71 247.15c-34.45 0-62.5 28.03-62.5 62.5s28.04 62.5 62.5 62.5 62.5-28.04 62.5-62.5-28.03-62.5-62.5-62.5Zm0 119.37c-31.36 0-56.87-25.51-56.87-56.87 0-31.36 25.51-56.87 56.87-56.87 31.36 0 56.87 25.51 56.87 56.87 0 31.36-25.51 56.87-56.87 56.87Z" />
            <path fill="#0073E5"
                d="M284.71 366.52c31.408 0 56.87-25.462 56.87-56.87 0-31.408-25.462-56.87-56.87-56.87-31.408 0-56.87 25.462-56.87 56.87 0 31.408 25.462 56.87 56.87 56.87Z" />
        </g>
        <path fill="#fff"
            d="M287.49 277.8h-5.57a2.88 2.88 0 0 0-2.88 2.88v57.93a2.88 2.88 0 0 0 2.88 2.88h5.57a2.88 2.88 0 0 0 2.88-2.88v-57.93a2.88 2.88 0 0 0-2.88-2.88Z" />
        <path fill="#fff"
            d="M316.55 311.37v-5.57a2.88 2.88 0 0 0-2.88-2.88h-57.93a2.88 2.88 0 0 0-2.88 2.88v5.57a2.88 2.88 0 0 0 2.88 2.88h57.93a2.88 2.88 0 0 0 2.88-2.88Z" />
    </g>
    <defs>
        <filter id="b" width="139.83" height="343.03" x="-.003" y=".01" color-interpolation-filters="sRGB"
            filterUnits="userSpaceOnUse">
            <feFlood flood-opacity="0" result="BackgroundImageFix" />
            <feColorMatrix in="SourceAlpha" result="hardAlpha" values="0 0 0 0 0 0 0 0 0 0 0 0 0 0 0 0 0 0 127 0" />
            <feOffset dy="1" />
            <feColorMatrix values="0 0 0 0 0 0 0 0 0 0 0 0 0 0 0 0 0 0 0.2 0" />
            <feBlend in2="BackgroundImageFix" result="effect1_dropShadow_3440_3178" />
            <feBlend in="SourceGraphic" in2="effect1_dropShadow_3440_3178" result="shape" />
        </filter>
        <filter id="c" width="143.897" height="251.649" x="110.968" y="119.259" color-interpolation-filters="sRGB"
            filterUnits="userSpaceOnUse">
            <feFlood flood-opacity="0" result="BackgroundImageFix" />
            <feColorMatrix in="SourceAlpha" result="hardAlpha" values="0 0 0 0 0 0 0 0 0 0 0 0 0 0 0 0 0 0 127 0" />
            <feOffset dy="1" />
            <feColorMatrix values="0 0 0 0 0 0 0 0 0 0 0 0 0 0 0 0 0 0 0.2 0" />
            <feBlend in2="BackgroundImageFix" result="effect1_dropShadow_3440_3178" />
            <feBlend in="SourceGraphic" in2="effect1_dropShadow_3440_3178" result="shape" />
        </filter>
        <filter id="d" width="125" height="126.41" x="222.21" y="247.15" color-interpolation-filters="sRGB"
            filterUnits="userSpaceOnUse">
            <feFlood flood-opacity="0" result="BackgroundImageFix" />
            <feColorMatrix in="SourceAlpha" result="hardAlpha" values="0 0 0 0 0 0 0 0 0 0 0 0 0 0 0 0 0 0 127 0" />
            <feOffset dy="1.41" />
            <feColorMatrix values="0 0 0 0 0 0 0 0 0 0 0 0 0 0 0 0 0 0 0.2 0" />
            <feBlend in2="BackgroundImageFix" result="effect1_dropShadow_3440_3178" />
            <feBlend in="SourceGraphic" in2="effect1_dropShadow_3440_3178" result="shape" />
        </filter>
        <clipPath id="a">
            <path fill="#fff" d="M0 0h347.2v373.55H0z" />
        </clipPath>
    </defs>
</svg>