<svg xmlns="http://www.w3.org/2000/svg" fill="none" viewBox="0 0 411 290">
    <g clip-path="url(#a)">
        <path fill="#8194B5"
            d="M240.9 230.7c-.2 2.7-1.6 4-4.3 4h-215c-1.7 0-3.3-.3-4.8-.7-1.3-.4-1.8-1.2-.8-2.3 2.1 1 4.4 1.2 6.7 1.2h65.7c29.5.3 59-.6 88.3.5 4 .2 4.6-.6 4.6-4.6v-103c0-1.2.2-2.4-.5-3.4l-.3-.2-.3-.3h.2a1.2 1.2 0 0 0 .6-.2l.3-.2.2-.3.8-.8a1.3 1.3 0 0 1 .7-.3l.2.1a3.6 3.6 0 0 0 1.6.4h2.3c1.8.2 3.5 0 5.3 0h.6a7.8 7.8 0 0 1 1.3.2l1.6.4h.2l.5.3c.3.1.6.2.8 0l.2-.2v-.2l.2-.5-.1-2v-.2l-.2-.2-.2-.2h-.2l-.1-.1a2.5 2.5 0 0 0-1 0c-1 .3-1.9.4-2.9.5-2.4.2-5 0-7.4 0h-.9l-1 .1-.8.1-1.3-.1-1.2-.1-3.7-.2h-2.5a134.6 134.6 0 0 0-9.6.1H162c-6 .2-11.8.2-17.8.6a61.9 61.9 0 0 0-7.6.7c-1.8-1.6-4-1.8-6.1-1.8H59l-43.7.2-.5-.2v-.4l.6-1.8c2.5.6 5 .5 7.6.5h22l19.5-.5c9.8-.3 19.6.4 29.4.5 10 0 19.9 0 29.9-.5 12.2-.5 24.5.3 36.7 1 4.9.3 5.3-.3 5.3-5.1V2.8c0-.7 0-1 .4-1.3a2 2 0 0 1 1-.1c3.7.2 7.4.2 11 .2h2.7c1.7 0 19.5-1.5 19.6 0l.1.6.3.4h.1l.2.1h.2l.2.1 1.3-.1a33.6 33.6 0 0 1 12.4-.2 33 33 0 0 0 9.3-.9c.9.8.5 1.8.5 2.7v104c0 2.6-.6 5.1-.2 7.7v.3h.2v-.1H238c.6 0 1.2 0 1.6.2l.2.1c.2.2.3.5.3 1v.3a2 2 0 0 1-.7 0c-.5 0-1.1 0-1.1.6v.5l.1.2h.1c0 .2.2.3.3.3h.3l.2.1h.5l.8.1v23.7l.1 84.5.2 2.9Z" />
        <path fill="#F3CF9F" d="M167.4 1.4a7437.3 7437.3 0 0 0 13 .2c-4.4 0-8.7 0-13-.2Z" />
        <path fill="#DDE4F0"
            d="M166.3 1.2c-.4.2-.5.6-.5 1.2v108.7c0 4.8-.4 5.4-5.3 5.2-12.2-.7-24.4-1.5-36.7-1-10 .4-20 .5-29.9.4-9.8 0-19.6-.7-29.4-.5-6.5.2-13 .5-19.5.5H23c-2.5 0-5 .2-7.6-.5H0V3.2C0 1 .6.9 2.7 1 6.8 1 11 .4 15 0l151.2 1.2Z" />
        <path fill="#F3C993"
            d="M173.9 121.3ZM163 121h-1 1Zm-58.8 2.4v.2-.3a1 1 0 0 0-.3-.7c.2.2.3.4.3.8Zm-4.1-1h2.4-2.4Zm-5.6 2.9 7.9-1h.1-.1l-8 1Zm-6.7.5 2-.1h-2Zm0 0Zm-14.5-2a289.1 289.1 0 0 1 1.4 0h-1.4Zm-33.7 6.9-3.7.3 3.7-.3c6.8-.7 13.5-1.5 20.3-2l10.8-1c-3.5.4-7.2.6-10.8.9l-20.3 2Zm16-8.2-5.8-.2c-.8 0-1.7.2-2.5.4.8-.2 1.6-.4 2.5-.4 2 0 4 .1 5.9.3Zm-23.5 8.9-7.5.7 7.5-.7Zm-12.5 1.7c.3 0 .6 0 .9-.2l1-.3a31 31 0 0 0-1.9.5Zm.5-11.1ZM17 132Z" />
        <path fill="#DDE4F0"
            d="m180.8 122.6-.3-.3-.3-.2h-.2a255.8 255.8 0 0 0-6.6-.7 59 59 0 0 0-10.3-.1h-1l-3.5.4-2.2.2c-5.3.6-10.6 1.2-16 .6h-1c-.7 0-1.6 0-2.2-.3a1 1 0 0 1-.3-.2c-.3-.4-.4-1-.3-1.8v-.5c-1.7-1.6-3.8-1.7-6-1.7H59l-43.7.1.2 38.9c0 13.1-.1 26.3.3 39.5.1 2.7-.5 5.5-.3 8.2.7 8.9.3 17.7.4 26.6v.5c2.1 1.1 4.4 1.3 6.7 1.3 22 0 43.8-.2 65.7 0 29.5.3 59-.7 88.3.5 4 .2 4.6-.7 4.6-4.6V126c0-1.2.2-2.4-.5-3.4Zm-76.5 1.2c0 .2 0 .3-.2.4l-.2.1-.6.1h-.8l-8 1.1a76.4 76.4 0 0 1-4.7.4l-2 .1a151.7 151.7 0 0 0-17 2c-3.5.4-7.2.5-10.8.9l-20.3 2-3.7.4-3.8.3-7.5.7c-.3 0-.6 0-1 .2-.7 0-1.4.2-2 .4-.4 0-.8.2-1.1.3a4 4 0 0 1-.9.2c-.6 0-1.1-.1-1.6-.3a4 4 0 0 1-1.2-.9c-1-1-.4-2 .2-3.1l.5-1.4.1-.5.6-2.9.1-.5.1-.2.1-.2c.2-.4.5-.7.8-.8l.2-.1.2-.1.4-.2.9-.1h3.4c6 1 12.7-1.1 19.2 1 1.2.4 2.4.1 3.7-.2.8-.2 1.7-.3 2.5-.3a165 165 0 0 1 14.7.8 290.1 290.1 0 0 0 8.8.6h1.4a51 51 0 0 0 7.4-.4c3.7-.6 7.4-.3 11-.5a342.3 342.3 0 0 0 9.1-.5h.3l1.1.1c.2 0 .3.1.3.2.2.2.3.4.3.7v.2Z" />
        <path fill="#8194B5"
            d="M224.7 1.6c-3.5.5-7 1.3-10.6.7-3.7-.5-7.4-.3-11 .4-1 .1-2.4.5-2.5-1.1-.1-1.5 17-1.6 24.2-1.6l-.1 1.6Z" />
        <path fill="#B5C3DC" d="M0 115.6h15.5l-.6 2.2H2.2c-1.9.1-2.5-.5-2.1-2.2Z" />
        <path fill="#F3CF9F"
            d="M240.6 119.6c-1-.2-2.3.3-2.3-1.2 0-.9 1.1-.4 1.8-.6.3.6.8 1.1.5 1.8Zm-15.3-3.4c-.3.3-.4.1-.3-.2.1 0 .2 0 .3.2Z" />
        <path fill="#B5C3DC"
            d="M183 120a1.2 1.2 0 0 0-.7.4l-.8.8-.2.3-.3.2h-.1l-.3.2h-.6a255.8 255.8 0 0 0-6.6-.7c-3.4-.2-6.9-.3-10.3-.1h-1a195.4 195.4 0 0 0-5.7.7c-5.3.5-10.6 1.2-16 .5h-1c-.7 0-1.6 0-2.2-.3l-.3-.2c-.3-.3-.4-.9-.3-1.7v-.5a111.4 111.4 0 0 1 7.8-.7c5.9-.4 11.8-.4 17.7-.5l2.6-.1h2.7a134.6 134.6 0 0 1 8.2-.2h1.2l3.7.3h1.3l1.2.2v1.5Z" />
        <path fill="#8194B5"
            d="M183 120v-1.4c4.3-.5 8.7.3 13-.6.6-.2 1.5-.2 1.7.6a7 7 0 0 1 0 2.5c-.4 1-1.2.3-1.8.1-3-1-6.2-.3-9.3-.5-1.2 0-2.5.1-3.6-.6Z" />
        <path fill="#B5C3DC" d="m18.1 118.7-2.7 16.7 165.9-9.6 1.7-7.2-164.9.1Z" />
        <path fill="#1D1E23"
            d="M58.7 71.8v2.7L46.5 62.3v-2.7l12.2 12.2Zm-2-24.3a3.1 3.1 0 0 1 .4 6.3h2.4l2 1.9h-4.7v8.8l1.9 2V69l-3.8-3.8V54.5l-5-4.9a8 8 0 0 1 1.7-1l5.2 5.2v-6.3Zm11.5 15 2.4 2.4a3.1 3.1 0 1 1-6.2 0h1.9v-2.4h1.9Zm-3.8-1.1v3.5h-2v-5.4l2 1.9Zm-3.8-3.8v7.3h-2v-9.2l2 1.9ZM53 55.4v8.1L46.4 57l.3-2.4 4.3 4.3v-2.7l-3.5-3.5 1-1.6 4.5 4.4Zm12.2 4h-2.7l-2-1.8h2.8l1.9 1.9Zm12.9 5.8h5.1l-1.4 2.7h-9l5.9-11h-5.1L75 54h8.9L78 65.2Zm14.8-8.4h-4.5v2.8h4.5v2.7h-4.5v2.9h4.5v2.7H85V54.1h8v2.7Zm17.4-2.7c1.9 0 3.2.3 4 1 1 .8 1.6 2 1.6 3.5 0 2.1-1 3.5-2.7 4.2l3 5.1h-4l-3-5.3v5.3h-3.3V54.1h4.4Zm14.8 0 4.5 13.8H126l-.9-2.7h-4.4l-.9 2.7h-3.5l4.5-13.8h4.3Zm-25.8 0c1.8 0 2.8.2 3.5.7 1 .5 1.6 1.7 1.6 3a3 3 0 0 1-1 2.4c-.4.5-.7.6-1.4.9.8.1 1.2.3 1.6.7a3 3 0 0 1 1 2.4c0 1.3-.5 2.5-1.4 3-.7.5-1.5.7-3 .7h-5.6V54.1h4.7ZM98 65.5h1.3c1.4 0 2-.5 2-1.6 0-.6-.3-1.1-.8-1.4-.3-.2-.7-.2-1.7-.2H98v3.2Zm23.6-3h2.8l-1.4-4.4-1.4 4.4Zm-12.3-1.8h1.1c1.4 0 2.2-.7 2.2-2 0-1-.8-1.8-2-1.8h-1.3v3.8ZM98 59.8h.9c1.5 0 2.2-.5 2.2-1.6s-.7-1.6-2.3-1.6H98v3.2Zm-22.3 127v2.7l-12.2-12.2v-2.7l12.2 12.2Zm-2-24.3a3.1 3.1 0 0 1 .4 6.3h2.4l2 1.9h-4.7v8.8l1.9 2v2.6l-3.8-3.8v-10.8l-5-4.9a7.9 7.9 0 0 1 1.7-1l5.2 5.2v-6.3Zm11.5 15 2.4 2.4a3.1 3.1 0 1 1-6.2 0h1.9v-2.4h1.9Zm-3.8-1.1v3.5h-2v-5.4l2 1.9Zm-3.8-3.8v7.3h-2v-9.2l2 1.9Zm-7.6-2.2v8.1l-6.6-6.6.3-2.4 4.3 4.3v-2.7l-3.5-3.5 1-1.6 4.5 4.4Zm12.2 4h-2.7l-2-1.8h2.8l1.9 1.9Zm12.9 5.8h5.1l-1.4 2.7h-9l5.9-11h-5.1L92 169h8.9L95 180.2Zm14.8-8.4h-4.5v2.8h4.5v2.7h-4.5v2.9h4.5v2.7H102v-13.8h8v2.7Zm17.4-2.7c1.9 0 3.2.3 4 1 1 .8 1.6 2 1.6 3.5 0 2.1-1 3.5-2.7 4.2l3 5.1h-4l-3-5.3v5.3h-3.3v-13.8h4.4Zm14.8 0 4.5 13.8H143l-.9-2.7h-4.4l-.9 2.7h-3.5l4.5-13.8h4.3Zm-25.8 0c1.8 0 2.8.2 3.5.7 1 .5 1.6 1.7 1.6 3a3 3 0 0 1-1 2.4c-.4.5-.7.6-1.4.9.8.1 1.2.3 1.6.7a3 3 0 0 1 1 2.4c0 1.3-.5 2.5-1.4 3-.7.5-1.5.7-3 .7h-5.6v-13.8h4.7Zm-1.4 11.4h1.3c1.4 0 2-.5 2-1.6 0-.7-.3-1.1-.8-1.4-.3-.2-.7-.2-1.7-.2h-.8v3.2Zm23.6-3h2.8l-1.4-4.4-1.4 4.4Zm-12.3-1.8h1.1c1.4 0 2.2-.7 2.2-2 0-1-.8-1.8-2-1.8h-1.3v3.8Zm-11.3-.9h.9c1.5 0 2.2-.5 2.2-1.6s-.7-1.6-2.3-1.6h-.8v3.2Z" />
        <path fill="#8194B5" d="m326.8 273.3-69.6-26.7 81-17.2 68.7 23.9-80 20Z" />
        <path fill="#162742" d="M338.3 134v76.7l-81-69 81-7.6Z" />
        <path fill="#22375D" d="M338.3 210.7v18.7l-81 17.2V141.7l81 69Z" />
        <path fill="#B5C3DC" d="M257.2 141.7H201v104.9h56.3V141.7Zm0 104.9 69.6 26.7-49.6 5.7-65.8-25.7 45.8-6.7Z" />
        <path fill="#DDE4F0" d="m326.8 161.7 84-9.5-72.5-18.1-81 7.6 69.5 20Z" />
        <path fill="#8194B5"
            d="m257.2 141.7 69.6 20-22.9-50.5-71.2-12.4 24.5 42.9Zm153.5 10.5-83.9 9.5v111.6l80.1-20 3.8-101.1Z" />
        <path fill="#B5C3DC" d="m357.3 289.5-30.5-16.2V161.7l32.4 9.6-1.9 118.2Z" />
    </g>
    <defs>
        <clipPath id="a">
            <path fill="#fff" d="M0 0h410.7v289.5H0z" />
        </clipPath>
    </defs>
</svg>