<svg xmlns="http://www.w3.org/2000/svg" fill="none" viewBox="0 0 443 332">
    <g clip-path="url(#a)">
        <path fill="#DDE4F0"
            d="M442.8 160.8a71.2 71.2 0 0 1-84 70.1 113.2 113.2 0 0 1-205.2 8.6 96.3 96.3 0 0 1-75.1-41.6 59.4 59.4 0 0 1-73.6-33A58.1 58.1 0 0 1 0 140.7v-.8a71.2 71.2 0 0 1 84-70 113.2 113.2 0 0 1 205.2-8.6 96.3 96.3 0 0 1 75.2 41.6 59.4 59.4 0 0 1 73.5 33 58.1 58.1 0 0 1 4.9 24.2v.7Z" />
        <path fill="#1E3147"
            d="M355.3 108.5H83.6a2.6 2.6 0 0 0-2.6 2.7V288c0 1.4 1.2 2.6 2.6 2.6h271.7c1.5 0 2.7-1.2 2.7-2.6V111c0-1.4-1.2-2.5-2.7-2.5Z" />
        <path fill="#CFE8FD"
            d="M353 110.5H86a2.6 2.6 0 0 0-2.6 2.6v172.6c0 1.4 1.2 2.6 2.6 2.6h267c1.4 0 2.6-1.2 2.6-2.6V113.1c0-1.4-1.2-2.5-2.6-2.5Z" />
        <path fill="#1E3147" d="M227 326.8h-15.3l-5.8-36H233l-6 36Zm61.1 0H150.8v4.5h137.3v-4.5Z" />
        <path fill="#EDF6FF"
            d="M135.7 68.3H80.3a2.5 2.5 0 0 0-2.5 2.4V126c0 1.3 1.1 2.4 2.5 2.4h55.4c1.3 0 2.4-1 2.4-2.4V70.7c0-1.3-1-2.4-2.4-2.4Zm116.4 44h-55.4c-1.4 0-2.4 1.1-2.4 2.5v55.1c0 1.3 1 2.4 2.4 2.4H252c1.3 0 2.4-1 2.4-2.4v-55.2c0-1.3-1-2.4-2.4-2.4Zm84.3-29.9H281c-1.3 0-2.4 1-2.4 2.4v55.1c0 1.4 1 2.4 2.4 2.4h55.4c1.3 0 2.4-1 2.4-2.4V84.8c0-1.4-1-2.4-2.4-2.4Zm-159.5 64.2h-55.5c-1.3 0-2.4 1-2.4 2.3v55.2c0 1.3 1.1 2.4 2.4 2.4H177c1.3 0 2.4-1 2.4-2.4V149c0-1.3-1.1-2.3-2.4-2.3Zm102.3 40.7h-55.4c-1.3 0-2.4 1-2.4 2.4v55.2c0 1.3 1 2.3 2.4 2.3h55.4c1.4 0 2.4-1 2.4-2.3v-55.2c0-1.3-1-2.4-2.4-2.4Zm69.3 34.5h-55.4c-1.3 0-2.4 1-2.4 2.4v55.1c0 1.4 1 2.4 2.4 2.4h55.4c1.3 0 2.4-1 2.4-2.4v-55.1c0-1.3-1-2.4-2.4-2.4Zm-235.2-8.6H57.8a2.4 2.4 0 0 0-2.4 2.4v55.2c0 1.3 1.1 2.4 2.4 2.4h55.5c1.3 0 2.4-1 2.4-2.4v-55.2c0-1.3-1.1-2.4-2.4-2.4ZM207 226h-55.5a2.4 2.4 0 0 0-2.4 2.4v55.2c0 1.3 1.1 2.4 2.4 2.4H207c1.3 0 2.4-1 2.4-2.4v-55.2c0-1.3-1.1-2.3-2.4-2.3Zm174.3-75.2H326c-1.3 0-2.4 1-2.4 2.4v55.2c0 1.3 1 2.4 2.4 2.4h55.4c1.3 0 2.4-1.1 2.4-2.4v-55.2c0-1.3-1-2.4-2.4-2.4Z"
            opacity=".8" />
        <path fill="#89C0F5"
            d="M314.4 94.4h-8.6v8.5h8.6v-8.5ZM301.5 120h-8.6v8.6h8.6V120Zm0-12.8h-8.6v8.5h8.6v-8.5Zm0-12.8h-8.6v8.5h8.6v-8.5Zm12.9 18v-5.2h-8.6v8.5h5.2l3.4-3.3Zm14.7-2.4-2.5-2.5a.9.9 0 0 0-1.2 0l-2 1.8 3.8 3.8 2-2c.3-.3.3-.8 0-1.1ZM308 124.8v3.8h3.7l14.3-14.3-3.8-3.7-14.3 14.2Zm19.2-30.4h-8.6v8.5h8.6v-8.5Z" />
        <path fill="#89C0F5" fill-rule="evenodd"
            d="M318.6 254.3h-17.1v-21.4h17.1v21.4Zm0 17h-17.1v-12.8h17.1v12.9Zm4.3 0h17.2V250h-17.2v21.4Zm0-25.6V233h17.2v12.8h-17.2Z"
            clip-rule="evenodd" />
        <path fill="#0073E6"
            d="m103.7 98.5.1-1v-1.1l2.3-1.8c.2-.1.2-.4 0-.6l-2.1-3.7a.6.6 0 0 0-.7-.3l-2.7 1.1c-.6-.4-1.2-.8-2-1l-.3-2.9c0-.3-.3-.4-.5-.4h-4.5c-.2 0-.5.2-.5.4l-.4 2.8-2 1-2.7-1a.5.5 0 0 0-.6.2L84.9 94c-.2.3-.1.6.1.7l2.3 1.8a9.1 9.1 0 0 0 0 2l-2.3 1.9c-.2.1-.2.4-.1.6l2.2 3.7c.1.3.4.4.7.3l2.7-1.1a7 7 0 0 0 1.9 1l.4 2.9c0 .2.3.4.6.4h4.4c.3 0 .5-.2.5-.4l.5-2.9c.6-.2 1.2-.6 1.8-1l2.8 1c.2.2.5 0 .6-.2l2.3-3.7c0-.2 0-.5-.2-.6l-2.3-1.8Zm-8.2 2.7a3.8 3.8 0 0 1-3.8-3.8c0-2 1.7-3.7 3.8-3.7 2.2 0 3.9 1.7 3.9 3.7 0 2.1-1.7 3.8-3.9 3.8ZM119.1 74H97.7a4.2 4.2 0 0 0-4.3 4.2v6.4h4.3v-2.1H119v29.9H97.7v-2.2h-4.3v6.5c0 2.3 2 4.2 4.3 4.2H119c2.4 0 4.3-1.9 4.3-4.2V78.2c0-2.3-1.9-4.2-4.3-4.2Zm243.1 83.3H345a6.4 6.4 0 0 0-6.4 6.4v34.2c0 3.5 2.8 6.4 6.4 6.4h17.2c3.5 0 6.4-2.9 6.4-6.4v-34.2c0-3.5-2.9-6.4-6.4-6.4Zm-4.3 42.7h-8.6v-2h8.6v2.1Zm7-6.4h-22.6v-29.9H365v29.9Z" />
        <path fill="#59A6F0"
            d="M89.5 234.2H89l-.2.4v.3l.1.3.3.2a.7.7 0 0 0 .7-.3l.1-.3c0-.2 0-.3-.2-.5a.6.6 0 0 0-.4-.1Zm-6.9 0h-.4l-.2.4v.3l.1.3.3.2h.4a.6.6 0 0 0 .4-.6c0-.2 0-.3-.2-.5a.6.6 0 0 0-.5-.1Z" />
        <path fill="#59A6F0"
            d="M104 228.8c-9.1-1.9-18-7.3-18-7.3s-8.8 5.4-18 7.3c-.8.2-1 1.3-1 2.1v15c0 10.9 19 19 19 19s19-8.1 19-19v-15c0-.8-.2-2-1-2Zm-26.2 18.3a1.7 1.7 0 0 1-3.3 0v-7c0-.4.2-.8.5-1.2.3-.3.7-.4 1.2-.4a1.7 1.7 0 0 1 1.7 1.6v7Zm14 4.3h-1.3v3.7a1.7 1.7 0 0 1-3.4 0v-3.7H85v3.7l-.1.7-.4.5-.6.4a1.6 1.6 0 0 1-1.3 0l-.5-.4-.4-.6v-4.3h-1.3l-.7-.1-.6-.4a1.7 1.7 0 0 1-.5-1.3v-10.8h15v10.8c0 .5-.2 1-.5 1.3-.3.3-.8.5-1.3.5Zm-13.4-13.2c0-2.6 1.6-4.9 3.9-6l-1.2-2.2v-.2l.1-.1h.3l1.2 2.2a8.3 8.3 0 0 1 6.6 0l1.2-2.2h.3l.1.1v.1l-1.2 2.2a6.8 6.8 0 0 1 3.9 6H78.4ZM96 248.8c-.3 0-.5 0-.7-.2-.2 0-.4-.2-.5-.3l-.4-.6-.1-.6v-7l.1-.7c0-.2.2-.3.4-.5l.5-.4a1.6 1.6 0 0 1 1.3 0l.6.4.3.5.1.7v7.7a1.6 1.6 0 0 1-1.6 1Z" />
        <path fill="#BADBFA"
            d="M194.3 241v30h-30v-30h30Zm2.3-4.2H162a2 2 0 0 0-2 2v34.5c0 .9.9 2 2 2h34.7c.9 0 2-1.1 2-2v-34.6c0-1-1.1-1.9-2-1.9Zm-19.5 8.5H190v4.3h-13v-4.3Zm0 8.6H190v4.3h-13v-4.3Zm0 8.5H190v4.3h-13v-4.3Zm-8.6-17h4.3v4.2h-4.3v-4.3Zm0 8.5h4.3v4.2h-4.3V254Zm0 8.5h4.3v4.3h-4.3v-4.3Z" />
        <path fill="#89C0F5"
            d="M130 174.8h17.2v-17.1h-17.1v17Zm4.4-12.9h8.5v8.6h-8.5v-8.6Zm-4.4 34.2h17.2v-17h-17.1v17Zm4.4-12.8h8.5v8.5h-8.5v-8.5Zm17.1-25.6v17h17.2v-17h-17.2Zm13 12.8h-8.7V162h8.6v8.5Zm4.2 21.3h-4.3v4.3h4.3v-4.3ZM155.8 179h-4.3v4.3h4.3V179Zm4.3 4.3h-4.3v4.3h4.3v-4.3Zm-4.3 4.3h-4.3v4.3h4.3v-4.3Z" />
        <path fill="#89C0F5" d="M160.1 191.8h-4.3v4.3h4.3v-4.3Zm4.3-4.2h-4.3v4.3h4.3v-4.3Zm0-8.6h-4.3v4.3h4.3V179Z" />
        <path fill="#89C0F5" d="M168.7 183.3h-4.3v4.3h4.3v-4.3Z" />
        <path fill="#2D2F33"
            d="M250.1 208.7h7.5l-3-3h-4.1a5 5 0 0 0 4.6-5 5 5 0 0 0-5-5v10l-8.3-8.3a16.6 16.6 0 0 0-2.7 1.7l8 7.9v17.2l6 6V226l-3-3v-14.3Z" />
        <path fill="#2D2F33"
            d="M253.2 208.8v14.6h3v-11.6l-3-3Zm7.4 3 3 3h-4.3l-3-3h4.3Zm-16.6 9.5v-13l-7-7c-.7.8-1.2 1.6-1.7 2.6l5.7 5.6v4.3l-7-6.9c-.3 1.3-.4 2.5-.4 3.8l10.4 10.6Zm15.3-6.5 3 3v5.6h-3v-8.6Zm9.1 4.8h-3v3.8h-3a5 5 0 0 0 10 0l-4-3.8Zm-34.8-.2V215l19.6 19.4v4.3l-19.6-19.4Z" />
        <path fill="#BADBFA"
            d="M223.2 159c-4.7-.3-8.6-2.2-11.8-5.5a17 17 0 0 1-4.7-12 17 17 0 0 1 4.7-12 17 17 0 0 1 11.8-5.6v4.5a13 13 0 0 0-8.6 4.2 12.6 12.6 0 0 0-3.5 8.9c0 3.4 1.2 6.4 3.5 8.9 2.3 2.4 5.2 3.8 8.6 4.2v4.5Zm2.6 0v-4.5c3.2-.2 5.9-1.4 8-3.7a13 13 0 0 0 4-8h4.4c-.4 4.4-2 8.1-5.1 11.2a17 17 0 0 1-11.3 5Zm12-18.9a13 13 0 0 0-4-8 11.8 11.8 0 0 0-8-3.7v-4.6a17.3 17.3 0 0 1 16.3 16.3h-4.4Z" />
    </g>
    <defs>
        <clipPath id="a">
            <path fill="#fff" d="M0 0h442.8v331.3H0z" />
        </clipPath>
    </defs>
</svg>